%TF.GenerationSoftware,KiCad,Pcbnew,5.1.6-c6e7f7d~86~ubuntu18.04.1*%
%TF.CreationDate,2020-06-01T12:36:53+02:00*%
%TF.ProjectId,UPC-EURS,5550432d-4555-4525-932e-6b696361645f,rev?*%
%TF.SameCoordinates,Original*%
%TF.FileFunction,Legend,Top*%
%TF.FilePolarity,Positive*%
%FSLAX46Y46*%
G04 Gerber Fmt 4.6, Leading zero omitted, Abs format (unit mm)*
G04 Created by KiCad (PCBNEW 5.1.6-c6e7f7d~86~ubuntu18.04.1) date 2020-06-01 12:36:53*
%MOMM*%
%LPD*%
G01*
G04 APERTURE LIST*
%ADD10C,0.300000*%
%ADD11C,0.010000*%
%ADD12C,0.002540*%
%ADD13C,0.120000*%
%ADD14C,0.100000*%
%ADD15C,0.400000*%
%ADD16C,0.150000*%
G04 APERTURE END LIST*
D10*
X204142857Y-56403571D02*
X204642857Y-57903571D01*
X205142857Y-56403571D01*
X206214285Y-57832142D02*
X206071428Y-57903571D01*
X205785714Y-57903571D01*
X205642857Y-57832142D01*
X205571428Y-57689285D01*
X205571428Y-57117857D01*
X205642857Y-56975000D01*
X205785714Y-56903571D01*
X206071428Y-56903571D01*
X206214285Y-56975000D01*
X206285714Y-57117857D01*
X206285714Y-57260714D01*
X205571428Y-57403571D01*
X206928571Y-57903571D02*
X206928571Y-56903571D01*
X206928571Y-57189285D02*
X207000000Y-57046428D01*
X207071428Y-56975000D01*
X207214285Y-56903571D01*
X207357142Y-56903571D01*
X207785714Y-57832142D02*
X207928571Y-57903571D01*
X208214285Y-57903571D01*
X208357142Y-57832142D01*
X208428571Y-57689285D01*
X208428571Y-57617857D01*
X208357142Y-57475000D01*
X208214285Y-57403571D01*
X208000000Y-57403571D01*
X207857142Y-57332142D01*
X207785714Y-57189285D01*
X207785714Y-57117857D01*
X207857142Y-56975000D01*
X208000000Y-56903571D01*
X208214285Y-56903571D01*
X208357142Y-56975000D01*
X209071428Y-57903571D02*
X209071428Y-56903571D01*
X209071428Y-56403571D02*
X209000000Y-56475000D01*
X209071428Y-56546428D01*
X209142857Y-56475000D01*
X209071428Y-56403571D01*
X209071428Y-56546428D01*
X210000000Y-57903571D02*
X209857142Y-57832142D01*
X209785714Y-57760714D01*
X209714285Y-57617857D01*
X209714285Y-57189285D01*
X209785714Y-57046428D01*
X209857142Y-56975000D01*
X210000000Y-56903571D01*
X210214285Y-56903571D01*
X210357142Y-56975000D01*
X210428571Y-57046428D01*
X210500000Y-57189285D01*
X210500000Y-57617857D01*
X210428571Y-57760714D01*
X210357142Y-57832142D01*
X210214285Y-57903571D01*
X210000000Y-57903571D01*
X210285714Y-56332142D02*
X210071428Y-56546428D01*
X212571428Y-56403571D02*
X212714285Y-56403571D01*
X212857142Y-56475000D01*
X212928571Y-56546428D01*
X213000000Y-56689285D01*
X213071428Y-56975000D01*
X213071428Y-57332142D01*
X213000000Y-57617857D01*
X212928571Y-57760714D01*
X212857142Y-57832142D01*
X212714285Y-57903571D01*
X212571428Y-57903571D01*
X212428571Y-57832142D01*
X212357142Y-57760714D01*
X212285714Y-57617857D01*
X212214285Y-57332142D01*
X212214285Y-56975000D01*
X212285714Y-56689285D01*
X212357142Y-56546428D01*
X212428571Y-56475000D01*
X212571428Y-56403571D01*
X213714285Y-57760714D02*
X213785714Y-57832142D01*
X213714285Y-57903571D01*
X213642857Y-57832142D01*
X213714285Y-57760714D01*
X213714285Y-57903571D01*
X215142857Y-56403571D02*
X214428571Y-56403571D01*
X214357142Y-57117857D01*
X214428571Y-57046428D01*
X214571428Y-56975000D01*
X214928571Y-56975000D01*
X215071428Y-57046428D01*
X215142857Y-57117857D01*
X215214285Y-57260714D01*
X215214285Y-57617857D01*
X215142857Y-57760714D01*
X215071428Y-57832142D01*
X214928571Y-57903571D01*
X214571428Y-57903571D01*
X214428571Y-57832142D01*
X214357142Y-57760714D01*
X204571428Y-60453571D02*
X204571428Y-58953571D01*
X205071428Y-60025000D01*
X205571428Y-58953571D01*
X205571428Y-60453571D01*
X206928571Y-60453571D02*
X206928571Y-59667857D01*
X206857142Y-59525000D01*
X206714285Y-59453571D01*
X206428571Y-59453571D01*
X206285714Y-59525000D01*
X206928571Y-60382142D02*
X206785714Y-60453571D01*
X206428571Y-60453571D01*
X206285714Y-60382142D01*
X206214285Y-60239285D01*
X206214285Y-60096428D01*
X206285714Y-59953571D01*
X206428571Y-59882142D01*
X206785714Y-59882142D01*
X206928571Y-59810714D01*
X207500000Y-59453571D02*
X207857142Y-60453571D01*
X208214285Y-59453571D02*
X207857142Y-60453571D01*
X207714285Y-60810714D01*
X207642857Y-60882142D01*
X207500000Y-60953571D01*
X209857142Y-59096428D02*
X209928571Y-59025000D01*
X210071428Y-58953571D01*
X210428571Y-58953571D01*
X210571428Y-59025000D01*
X210642857Y-59096428D01*
X210714285Y-59239285D01*
X210714285Y-59382142D01*
X210642857Y-59596428D01*
X209785714Y-60453571D01*
X210714285Y-60453571D01*
X211642857Y-58953571D02*
X211785714Y-58953571D01*
X211928571Y-59025000D01*
X212000000Y-59096428D01*
X212071428Y-59239285D01*
X212142857Y-59525000D01*
X212142857Y-59882142D01*
X212071428Y-60167857D01*
X212000000Y-60310714D01*
X211928571Y-60382142D01*
X211785714Y-60453571D01*
X211642857Y-60453571D01*
X211500000Y-60382142D01*
X211428571Y-60310714D01*
X211357142Y-60167857D01*
X211285714Y-59882142D01*
X211285714Y-59525000D01*
X211357142Y-59239285D01*
X211428571Y-59096428D01*
X211500000Y-59025000D01*
X211642857Y-58953571D01*
X212714285Y-59096428D02*
X212785714Y-59025000D01*
X212928571Y-58953571D01*
X213285714Y-58953571D01*
X213428571Y-59025000D01*
X213500000Y-59096428D01*
X213571428Y-59239285D01*
X213571428Y-59382142D01*
X213500000Y-59596428D01*
X212642857Y-60453571D01*
X213571428Y-60453571D01*
X214500000Y-58953571D02*
X214642857Y-58953571D01*
X214785714Y-59025000D01*
X214857142Y-59096428D01*
X214928571Y-59239285D01*
X215000000Y-59525000D01*
X215000000Y-59882142D01*
X214928571Y-60167857D01*
X214857142Y-60310714D01*
X214785714Y-60382142D01*
X214642857Y-60453571D01*
X214500000Y-60453571D01*
X214357142Y-60382142D01*
X214285714Y-60310714D01*
X214214285Y-60167857D01*
X214142857Y-59882142D01*
X214142857Y-59525000D01*
X214214285Y-59239285D01*
X214285714Y-59096428D01*
X214357142Y-59025000D01*
X214500000Y-58953571D01*
D11*
%TO.C,REF\u002A\u002A*%
G36*
X202139014Y-28742998D02*
G01*
X202297006Y-28743863D01*
X202411347Y-28746205D01*
X202489407Y-28750762D01*
X202538554Y-28758270D01*
X202566159Y-28769466D01*
X202579592Y-28785088D01*
X202586221Y-28805873D01*
X202586865Y-28808563D01*
X202596935Y-28857113D01*
X202615575Y-28952905D01*
X202640845Y-29085743D01*
X202670807Y-29245431D01*
X202703522Y-29421774D01*
X202704664Y-29427967D01*
X202737433Y-29600782D01*
X202768093Y-29753469D01*
X202794664Y-29876871D01*
X202815167Y-29961831D01*
X202827626Y-29999190D01*
X202828220Y-29999852D01*
X202864919Y-30018095D01*
X202940586Y-30048497D01*
X203038878Y-30084493D01*
X203039425Y-30084685D01*
X203163233Y-30131222D01*
X203309196Y-30190504D01*
X203446781Y-30250109D01*
X203453293Y-30253056D01*
X203677390Y-30354765D01*
X204173619Y-30015897D01*
X204325846Y-29912592D01*
X204463741Y-29820237D01*
X204579315Y-29744084D01*
X204664579Y-29689385D01*
X204711544Y-29661393D01*
X204716004Y-29659317D01*
X204750134Y-29668560D01*
X204813881Y-29713156D01*
X204909731Y-29795209D01*
X205040169Y-29916821D01*
X205173328Y-30046205D01*
X205301694Y-30173702D01*
X205416581Y-30290046D01*
X205511073Y-30388052D01*
X205578253Y-30460536D01*
X205611206Y-30500313D01*
X205612432Y-30502361D01*
X205616074Y-30529656D01*
X205602350Y-30574234D01*
X205567869Y-30642112D01*
X205509239Y-30739311D01*
X205423070Y-30871851D01*
X205308200Y-31042476D01*
X205206254Y-31192655D01*
X205115123Y-31327350D01*
X205040073Y-31438740D01*
X204986369Y-31519005D01*
X204959280Y-31560325D01*
X204957574Y-31563130D01*
X204960882Y-31602721D01*
X204985953Y-31679669D01*
X205027798Y-31779432D01*
X205042712Y-31811291D01*
X205107786Y-31953226D01*
X205177212Y-32114273D01*
X205233609Y-32253621D01*
X205274247Y-32357044D01*
X205306526Y-32435642D01*
X205325178Y-32476720D01*
X205327497Y-32479885D01*
X205361803Y-32485128D01*
X205442669Y-32499494D01*
X205559343Y-32520937D01*
X205701075Y-32547413D01*
X205857110Y-32576877D01*
X206016698Y-32607283D01*
X206169085Y-32636588D01*
X206303521Y-32662745D01*
X206409252Y-32683710D01*
X206475526Y-32697439D01*
X206491782Y-32701320D01*
X206508573Y-32710900D01*
X206521249Y-32732536D01*
X206530378Y-32773531D01*
X206536531Y-32841189D01*
X206540280Y-32942812D01*
X206542192Y-33085703D01*
X206542840Y-33277165D01*
X206542874Y-33355645D01*
X206542874Y-33993906D01*
X206389598Y-34024160D01*
X206304322Y-34040564D01*
X206177070Y-34064509D01*
X206023315Y-34093107D01*
X205858534Y-34123467D01*
X205812989Y-34131806D01*
X205660932Y-34161370D01*
X205528468Y-34190442D01*
X205426714Y-34216329D01*
X205366788Y-34236337D01*
X205356805Y-34242301D01*
X205332293Y-34284534D01*
X205297148Y-34366370D01*
X205258173Y-34471683D01*
X205250442Y-34494368D01*
X205199360Y-34635018D01*
X205135954Y-34793714D01*
X205073904Y-34936225D01*
X205073598Y-34936886D01*
X204970267Y-35160440D01*
X205649961Y-36160232D01*
X205213621Y-36597300D01*
X205081649Y-36727381D01*
X204961279Y-36842048D01*
X204859273Y-36935181D01*
X204782391Y-37000658D01*
X204737393Y-37032357D01*
X204730938Y-37034368D01*
X204693040Y-37018529D01*
X204615708Y-36974496D01*
X204507389Y-36907490D01*
X204376532Y-36822734D01*
X204235052Y-36727816D01*
X204091461Y-36630998D01*
X203963435Y-36546751D01*
X203859105Y-36480258D01*
X203786600Y-36436702D01*
X203754158Y-36421264D01*
X203714576Y-36434328D01*
X203639519Y-36468750D01*
X203544468Y-36517380D01*
X203534392Y-36522785D01*
X203406391Y-36586980D01*
X203318618Y-36618463D01*
X203264028Y-36618798D01*
X203235575Y-36589548D01*
X203235410Y-36589138D01*
X203221188Y-36554498D01*
X203187269Y-36472269D01*
X203136284Y-36348814D01*
X203070862Y-36190498D01*
X202993634Y-36003686D01*
X202907229Y-35794742D01*
X202823551Y-35592446D01*
X202731588Y-35369200D01*
X202647150Y-35162392D01*
X202572769Y-34978362D01*
X202510974Y-34823451D01*
X202464297Y-34703996D01*
X202435268Y-34626339D01*
X202426322Y-34597356D01*
X202448756Y-34564110D01*
X202507439Y-34511123D01*
X202585689Y-34452704D01*
X202808534Y-34267952D01*
X202982718Y-34056182D01*
X203106154Y-33821856D01*
X203176754Y-33569434D01*
X203192431Y-33303377D01*
X203181036Y-33180575D01*
X203118950Y-32925793D01*
X203012023Y-32700801D01*
X202866889Y-32507817D01*
X202690178Y-32349061D01*
X202488522Y-32226750D01*
X202268554Y-32143105D01*
X202036906Y-32100344D01*
X201800209Y-32100687D01*
X201565095Y-32146352D01*
X201338196Y-32239559D01*
X201126144Y-32382527D01*
X201037636Y-32463383D01*
X200867889Y-32671007D01*
X200749699Y-32897895D01*
X200682278Y-33137433D01*
X200664840Y-33383007D01*
X200696598Y-33628003D01*
X200776765Y-33865808D01*
X200904555Y-34089807D01*
X201079180Y-34293387D01*
X201274312Y-34452704D01*
X201355591Y-34513602D01*
X201413009Y-34566015D01*
X201433678Y-34597406D01*
X201422856Y-34631639D01*
X201392077Y-34713419D01*
X201343874Y-34836407D01*
X201280778Y-34994263D01*
X201205322Y-35180649D01*
X201120038Y-35389226D01*
X201036219Y-35592496D01*
X200943745Y-35815933D01*
X200858089Y-36022984D01*
X200781882Y-36207286D01*
X200717753Y-36362475D01*
X200668332Y-36482188D01*
X200636248Y-36560061D01*
X200624359Y-36589138D01*
X200596274Y-36618677D01*
X200541949Y-36618591D01*
X200454395Y-36587326D01*
X200326619Y-36523329D01*
X200325608Y-36522785D01*
X200229402Y-36473121D01*
X200151631Y-36436945D01*
X200107777Y-36421408D01*
X200105842Y-36421264D01*
X200072829Y-36437024D01*
X199999946Y-36480850D01*
X199895322Y-36547557D01*
X199767090Y-36631964D01*
X199624948Y-36727816D01*
X199480233Y-36824867D01*
X199349804Y-36909270D01*
X199242110Y-36975801D01*
X199165598Y-37019238D01*
X199129062Y-37034368D01*
X199095418Y-37014482D01*
X199027776Y-36958903D01*
X198932893Y-36873754D01*
X198817530Y-36765153D01*
X198688445Y-36639221D01*
X198646229Y-36597149D01*
X198209739Y-36159931D01*
X198541977Y-35672340D01*
X198642946Y-35522605D01*
X198731562Y-35388220D01*
X198802854Y-35276969D01*
X198851850Y-35196639D01*
X198873578Y-35155014D01*
X198874215Y-35152053D01*
X198862760Y-35112818D01*
X198831949Y-35033895D01*
X198787116Y-34928509D01*
X198755647Y-34857954D01*
X198696808Y-34722876D01*
X198641396Y-34586409D01*
X198598436Y-34471103D01*
X198586766Y-34435977D01*
X198553611Y-34342174D01*
X198521201Y-34269694D01*
X198503399Y-34242301D01*
X198464114Y-34225536D01*
X198378374Y-34201770D01*
X198257303Y-34173697D01*
X198112027Y-34144009D01*
X198047012Y-34131806D01*
X197881913Y-34101468D01*
X197723552Y-34072093D01*
X197587404Y-34046569D01*
X197488943Y-34027785D01*
X197470402Y-34024160D01*
X197317127Y-33993906D01*
X197317127Y-33355645D01*
X197317471Y-33145770D01*
X197318884Y-32986980D01*
X197321936Y-32871973D01*
X197327197Y-32793446D01*
X197335237Y-32744096D01*
X197346627Y-32716619D01*
X197361937Y-32703713D01*
X197368218Y-32701320D01*
X197406104Y-32692833D01*
X197489805Y-32675900D01*
X197608567Y-32652566D01*
X197751639Y-32624875D01*
X197908268Y-32594873D01*
X198067703Y-32564604D01*
X198219191Y-32536115D01*
X198351981Y-32511449D01*
X198455319Y-32492651D01*
X198518455Y-32481767D01*
X198532503Y-32479885D01*
X198545230Y-32454704D01*
X198573400Y-32387622D01*
X198611748Y-32291333D01*
X198626391Y-32253621D01*
X198685452Y-32107921D01*
X198755000Y-31946951D01*
X198817288Y-31811291D01*
X198863121Y-31707561D01*
X198893613Y-31622326D01*
X198903792Y-31570126D01*
X198902169Y-31563130D01*
X198880657Y-31530102D01*
X198831535Y-31456643D01*
X198760077Y-31350577D01*
X198671555Y-31219726D01*
X198571241Y-31071912D01*
X198551406Y-31042734D01*
X198435012Y-30869863D01*
X198349452Y-30738226D01*
X198291316Y-30641761D01*
X198257192Y-30574408D01*
X198243669Y-30530106D01*
X198247336Y-30502794D01*
X198247430Y-30502620D01*
X198276293Y-30466746D01*
X198340133Y-30397391D01*
X198432031Y-30301745D01*
X198545067Y-30186999D01*
X198672321Y-30060341D01*
X198686672Y-30046205D01*
X198847043Y-29890903D01*
X198970805Y-29776870D01*
X199060445Y-29702002D01*
X199118448Y-29664196D01*
X199143996Y-29659317D01*
X199181282Y-29680603D01*
X199258657Y-29729773D01*
X199368133Y-29801575D01*
X199501720Y-29890755D01*
X199651430Y-29992063D01*
X199686382Y-30015897D01*
X200182610Y-30354765D01*
X200406707Y-30253056D01*
X200542989Y-30193783D01*
X200689276Y-30134170D01*
X200815035Y-30086640D01*
X200820575Y-30084685D01*
X200918943Y-30048677D01*
X200994771Y-30018229D01*
X201031718Y-29999905D01*
X201031780Y-29999852D01*
X201043504Y-29966729D01*
X201063432Y-29885267D01*
X201089587Y-29764625D01*
X201119990Y-29613959D01*
X201152663Y-29442428D01*
X201155336Y-29427967D01*
X201188110Y-29251235D01*
X201218198Y-29090810D01*
X201243661Y-28956888D01*
X201262559Y-28859663D01*
X201272953Y-28809332D01*
X201273135Y-28808563D01*
X201279461Y-28787153D01*
X201291761Y-28770988D01*
X201317406Y-28759331D01*
X201363765Y-28751445D01*
X201438208Y-28746593D01*
X201548105Y-28744039D01*
X201700825Y-28743045D01*
X201903738Y-28742874D01*
X201930000Y-28742874D01*
X202139014Y-28742998D01*
G37*
X202139014Y-28742998D02*
X202297006Y-28743863D01*
X202411347Y-28746205D01*
X202489407Y-28750762D01*
X202538554Y-28758270D01*
X202566159Y-28769466D01*
X202579592Y-28785088D01*
X202586221Y-28805873D01*
X202586865Y-28808563D01*
X202596935Y-28857113D01*
X202615575Y-28952905D01*
X202640845Y-29085743D01*
X202670807Y-29245431D01*
X202703522Y-29421774D01*
X202704664Y-29427967D01*
X202737433Y-29600782D01*
X202768093Y-29753469D01*
X202794664Y-29876871D01*
X202815167Y-29961831D01*
X202827626Y-29999190D01*
X202828220Y-29999852D01*
X202864919Y-30018095D01*
X202940586Y-30048497D01*
X203038878Y-30084493D01*
X203039425Y-30084685D01*
X203163233Y-30131222D01*
X203309196Y-30190504D01*
X203446781Y-30250109D01*
X203453293Y-30253056D01*
X203677390Y-30354765D01*
X204173619Y-30015897D01*
X204325846Y-29912592D01*
X204463741Y-29820237D01*
X204579315Y-29744084D01*
X204664579Y-29689385D01*
X204711544Y-29661393D01*
X204716004Y-29659317D01*
X204750134Y-29668560D01*
X204813881Y-29713156D01*
X204909731Y-29795209D01*
X205040169Y-29916821D01*
X205173328Y-30046205D01*
X205301694Y-30173702D01*
X205416581Y-30290046D01*
X205511073Y-30388052D01*
X205578253Y-30460536D01*
X205611206Y-30500313D01*
X205612432Y-30502361D01*
X205616074Y-30529656D01*
X205602350Y-30574234D01*
X205567869Y-30642112D01*
X205509239Y-30739311D01*
X205423070Y-30871851D01*
X205308200Y-31042476D01*
X205206254Y-31192655D01*
X205115123Y-31327350D01*
X205040073Y-31438740D01*
X204986369Y-31519005D01*
X204959280Y-31560325D01*
X204957574Y-31563130D01*
X204960882Y-31602721D01*
X204985953Y-31679669D01*
X205027798Y-31779432D01*
X205042712Y-31811291D01*
X205107786Y-31953226D01*
X205177212Y-32114273D01*
X205233609Y-32253621D01*
X205274247Y-32357044D01*
X205306526Y-32435642D01*
X205325178Y-32476720D01*
X205327497Y-32479885D01*
X205361803Y-32485128D01*
X205442669Y-32499494D01*
X205559343Y-32520937D01*
X205701075Y-32547413D01*
X205857110Y-32576877D01*
X206016698Y-32607283D01*
X206169085Y-32636588D01*
X206303521Y-32662745D01*
X206409252Y-32683710D01*
X206475526Y-32697439D01*
X206491782Y-32701320D01*
X206508573Y-32710900D01*
X206521249Y-32732536D01*
X206530378Y-32773531D01*
X206536531Y-32841189D01*
X206540280Y-32942812D01*
X206542192Y-33085703D01*
X206542840Y-33277165D01*
X206542874Y-33355645D01*
X206542874Y-33993906D01*
X206389598Y-34024160D01*
X206304322Y-34040564D01*
X206177070Y-34064509D01*
X206023315Y-34093107D01*
X205858534Y-34123467D01*
X205812989Y-34131806D01*
X205660932Y-34161370D01*
X205528468Y-34190442D01*
X205426714Y-34216329D01*
X205366788Y-34236337D01*
X205356805Y-34242301D01*
X205332293Y-34284534D01*
X205297148Y-34366370D01*
X205258173Y-34471683D01*
X205250442Y-34494368D01*
X205199360Y-34635018D01*
X205135954Y-34793714D01*
X205073904Y-34936225D01*
X205073598Y-34936886D01*
X204970267Y-35160440D01*
X205649961Y-36160232D01*
X205213621Y-36597300D01*
X205081649Y-36727381D01*
X204961279Y-36842048D01*
X204859273Y-36935181D01*
X204782391Y-37000658D01*
X204737393Y-37032357D01*
X204730938Y-37034368D01*
X204693040Y-37018529D01*
X204615708Y-36974496D01*
X204507389Y-36907490D01*
X204376532Y-36822734D01*
X204235052Y-36727816D01*
X204091461Y-36630998D01*
X203963435Y-36546751D01*
X203859105Y-36480258D01*
X203786600Y-36436702D01*
X203754158Y-36421264D01*
X203714576Y-36434328D01*
X203639519Y-36468750D01*
X203544468Y-36517380D01*
X203534392Y-36522785D01*
X203406391Y-36586980D01*
X203318618Y-36618463D01*
X203264028Y-36618798D01*
X203235575Y-36589548D01*
X203235410Y-36589138D01*
X203221188Y-36554498D01*
X203187269Y-36472269D01*
X203136284Y-36348814D01*
X203070862Y-36190498D01*
X202993634Y-36003686D01*
X202907229Y-35794742D01*
X202823551Y-35592446D01*
X202731588Y-35369200D01*
X202647150Y-35162392D01*
X202572769Y-34978362D01*
X202510974Y-34823451D01*
X202464297Y-34703996D01*
X202435268Y-34626339D01*
X202426322Y-34597356D01*
X202448756Y-34564110D01*
X202507439Y-34511123D01*
X202585689Y-34452704D01*
X202808534Y-34267952D01*
X202982718Y-34056182D01*
X203106154Y-33821856D01*
X203176754Y-33569434D01*
X203192431Y-33303377D01*
X203181036Y-33180575D01*
X203118950Y-32925793D01*
X203012023Y-32700801D01*
X202866889Y-32507817D01*
X202690178Y-32349061D01*
X202488522Y-32226750D01*
X202268554Y-32143105D01*
X202036906Y-32100344D01*
X201800209Y-32100687D01*
X201565095Y-32146352D01*
X201338196Y-32239559D01*
X201126144Y-32382527D01*
X201037636Y-32463383D01*
X200867889Y-32671007D01*
X200749699Y-32897895D01*
X200682278Y-33137433D01*
X200664840Y-33383007D01*
X200696598Y-33628003D01*
X200776765Y-33865808D01*
X200904555Y-34089807D01*
X201079180Y-34293387D01*
X201274312Y-34452704D01*
X201355591Y-34513602D01*
X201413009Y-34566015D01*
X201433678Y-34597406D01*
X201422856Y-34631639D01*
X201392077Y-34713419D01*
X201343874Y-34836407D01*
X201280778Y-34994263D01*
X201205322Y-35180649D01*
X201120038Y-35389226D01*
X201036219Y-35592496D01*
X200943745Y-35815933D01*
X200858089Y-36022984D01*
X200781882Y-36207286D01*
X200717753Y-36362475D01*
X200668332Y-36482188D01*
X200636248Y-36560061D01*
X200624359Y-36589138D01*
X200596274Y-36618677D01*
X200541949Y-36618591D01*
X200454395Y-36587326D01*
X200326619Y-36523329D01*
X200325608Y-36522785D01*
X200229402Y-36473121D01*
X200151631Y-36436945D01*
X200107777Y-36421408D01*
X200105842Y-36421264D01*
X200072829Y-36437024D01*
X199999946Y-36480850D01*
X199895322Y-36547557D01*
X199767090Y-36631964D01*
X199624948Y-36727816D01*
X199480233Y-36824867D01*
X199349804Y-36909270D01*
X199242110Y-36975801D01*
X199165598Y-37019238D01*
X199129062Y-37034368D01*
X199095418Y-37014482D01*
X199027776Y-36958903D01*
X198932893Y-36873754D01*
X198817530Y-36765153D01*
X198688445Y-36639221D01*
X198646229Y-36597149D01*
X198209739Y-36159931D01*
X198541977Y-35672340D01*
X198642946Y-35522605D01*
X198731562Y-35388220D01*
X198802854Y-35276969D01*
X198851850Y-35196639D01*
X198873578Y-35155014D01*
X198874215Y-35152053D01*
X198862760Y-35112818D01*
X198831949Y-35033895D01*
X198787116Y-34928509D01*
X198755647Y-34857954D01*
X198696808Y-34722876D01*
X198641396Y-34586409D01*
X198598436Y-34471103D01*
X198586766Y-34435977D01*
X198553611Y-34342174D01*
X198521201Y-34269694D01*
X198503399Y-34242301D01*
X198464114Y-34225536D01*
X198378374Y-34201770D01*
X198257303Y-34173697D01*
X198112027Y-34144009D01*
X198047012Y-34131806D01*
X197881913Y-34101468D01*
X197723552Y-34072093D01*
X197587404Y-34046569D01*
X197488943Y-34027785D01*
X197470402Y-34024160D01*
X197317127Y-33993906D01*
X197317127Y-33355645D01*
X197317471Y-33145770D01*
X197318884Y-32986980D01*
X197321936Y-32871973D01*
X197327197Y-32793446D01*
X197335237Y-32744096D01*
X197346627Y-32716619D01*
X197361937Y-32703713D01*
X197368218Y-32701320D01*
X197406104Y-32692833D01*
X197489805Y-32675900D01*
X197608567Y-32652566D01*
X197751639Y-32624875D01*
X197908268Y-32594873D01*
X198067703Y-32564604D01*
X198219191Y-32536115D01*
X198351981Y-32511449D01*
X198455319Y-32492651D01*
X198518455Y-32481767D01*
X198532503Y-32479885D01*
X198545230Y-32454704D01*
X198573400Y-32387622D01*
X198611748Y-32291333D01*
X198626391Y-32253621D01*
X198685452Y-32107921D01*
X198755000Y-31946951D01*
X198817288Y-31811291D01*
X198863121Y-31707561D01*
X198893613Y-31622326D01*
X198903792Y-31570126D01*
X198902169Y-31563130D01*
X198880657Y-31530102D01*
X198831535Y-31456643D01*
X198760077Y-31350577D01*
X198671555Y-31219726D01*
X198571241Y-31071912D01*
X198551406Y-31042734D01*
X198435012Y-30869863D01*
X198349452Y-30738226D01*
X198291316Y-30641761D01*
X198257192Y-30574408D01*
X198243669Y-30530106D01*
X198247336Y-30502794D01*
X198247430Y-30502620D01*
X198276293Y-30466746D01*
X198340133Y-30397391D01*
X198432031Y-30301745D01*
X198545067Y-30186999D01*
X198672321Y-30060341D01*
X198686672Y-30046205D01*
X198847043Y-29890903D01*
X198970805Y-29776870D01*
X199060445Y-29702002D01*
X199118448Y-29664196D01*
X199143996Y-29659317D01*
X199181282Y-29680603D01*
X199258657Y-29729773D01*
X199368133Y-29801575D01*
X199501720Y-29890755D01*
X199651430Y-29992063D01*
X199686382Y-30015897D01*
X200182610Y-30354765D01*
X200406707Y-30253056D01*
X200542989Y-30193783D01*
X200689276Y-30134170D01*
X200815035Y-30086640D01*
X200820575Y-30084685D01*
X200918943Y-30048677D01*
X200994771Y-30018229D01*
X201031718Y-29999905D01*
X201031780Y-29999852D01*
X201043504Y-29966729D01*
X201063432Y-29885267D01*
X201089587Y-29764625D01*
X201119990Y-29613959D01*
X201152663Y-29442428D01*
X201155336Y-29427967D01*
X201188110Y-29251235D01*
X201218198Y-29090810D01*
X201243661Y-28956888D01*
X201262559Y-28859663D01*
X201272953Y-28809332D01*
X201273135Y-28808563D01*
X201279461Y-28787153D01*
X201291761Y-28770988D01*
X201317406Y-28759331D01*
X201363765Y-28751445D01*
X201438208Y-28746593D01*
X201548105Y-28744039D01*
X201700825Y-28743045D01*
X201903738Y-28742874D01*
X201930000Y-28742874D01*
X202139014Y-28742998D01*
G36*
X208273439Y-38246540D02*
G01*
X208388950Y-38322034D01*
X208444664Y-38389617D01*
X208488804Y-38512255D01*
X208492309Y-38609298D01*
X208484368Y-38739056D01*
X208185115Y-38870039D01*
X208039611Y-38936958D01*
X207944537Y-38990790D01*
X207895101Y-39037416D01*
X207886511Y-39082720D01*
X207913972Y-39132582D01*
X207944253Y-39165632D01*
X208032363Y-39218633D01*
X208128196Y-39222347D01*
X208216212Y-39181041D01*
X208280869Y-39098983D01*
X208292433Y-39070008D01*
X208347825Y-38979509D01*
X208411553Y-38940940D01*
X208498966Y-38907946D01*
X208498966Y-39033034D01*
X208491238Y-39118156D01*
X208460966Y-39189938D01*
X208397518Y-39272356D01*
X208388088Y-39283066D01*
X208317513Y-39356391D01*
X208256847Y-39395742D01*
X208180950Y-39413845D01*
X208118030Y-39419774D01*
X208005487Y-39421251D01*
X207925370Y-39402535D01*
X207875390Y-39374747D01*
X207796838Y-39313641D01*
X207742463Y-39247554D01*
X207708052Y-39164441D01*
X207689388Y-39052254D01*
X207682256Y-38898946D01*
X207681687Y-38821136D01*
X207683622Y-38727853D01*
X207859899Y-38727853D01*
X207861944Y-38777896D01*
X207867039Y-38786092D01*
X207900666Y-38774958D01*
X207973030Y-38745493D01*
X208069747Y-38703601D01*
X208089973Y-38694597D01*
X208212203Y-38632442D01*
X208279547Y-38577815D01*
X208294348Y-38526649D01*
X208258947Y-38474876D01*
X208229711Y-38452000D01*
X208124216Y-38406250D01*
X208025476Y-38413808D01*
X207942812Y-38469651D01*
X207885548Y-38568753D01*
X207867188Y-38647414D01*
X207859899Y-38727853D01*
X207683622Y-38727853D01*
X207685459Y-38639351D01*
X207699359Y-38504853D01*
X207726894Y-38406916D01*
X207771572Y-38334811D01*
X207836901Y-38277813D01*
X207865383Y-38259393D01*
X207994763Y-38211422D01*
X208136412Y-38208403D01*
X208273439Y-38246540D01*
G37*
X208273439Y-38246540D02*
X208388950Y-38322034D01*
X208444664Y-38389617D01*
X208488804Y-38512255D01*
X208492309Y-38609298D01*
X208484368Y-38739056D01*
X208185115Y-38870039D01*
X208039611Y-38936958D01*
X207944537Y-38990790D01*
X207895101Y-39037416D01*
X207886511Y-39082720D01*
X207913972Y-39132582D01*
X207944253Y-39165632D01*
X208032363Y-39218633D01*
X208128196Y-39222347D01*
X208216212Y-39181041D01*
X208280869Y-39098983D01*
X208292433Y-39070008D01*
X208347825Y-38979509D01*
X208411553Y-38940940D01*
X208498966Y-38907946D01*
X208498966Y-39033034D01*
X208491238Y-39118156D01*
X208460966Y-39189938D01*
X208397518Y-39272356D01*
X208388088Y-39283066D01*
X208317513Y-39356391D01*
X208256847Y-39395742D01*
X208180950Y-39413845D01*
X208118030Y-39419774D01*
X208005487Y-39421251D01*
X207925370Y-39402535D01*
X207875390Y-39374747D01*
X207796838Y-39313641D01*
X207742463Y-39247554D01*
X207708052Y-39164441D01*
X207689388Y-39052254D01*
X207682256Y-38898946D01*
X207681687Y-38821136D01*
X207683622Y-38727853D01*
X207859899Y-38727853D01*
X207861944Y-38777896D01*
X207867039Y-38786092D01*
X207900666Y-38774958D01*
X207973030Y-38745493D01*
X208069747Y-38703601D01*
X208089973Y-38694597D01*
X208212203Y-38632442D01*
X208279547Y-38577815D01*
X208294348Y-38526649D01*
X208258947Y-38474876D01*
X208229711Y-38452000D01*
X208124216Y-38406250D01*
X208025476Y-38413808D01*
X207942812Y-38469651D01*
X207885548Y-38568753D01*
X207867188Y-38647414D01*
X207859899Y-38727853D01*
X207683622Y-38727853D01*
X207685459Y-38639351D01*
X207699359Y-38504853D01*
X207726894Y-38406916D01*
X207771572Y-38334811D01*
X207836901Y-38277813D01*
X207865383Y-38259393D01*
X207994763Y-38211422D01*
X208136412Y-38208403D01*
X208273439Y-38246540D01*
G36*
X207265690Y-38230018D02*
G01*
X207300585Y-38245269D01*
X207383877Y-38311235D01*
X207455103Y-38406618D01*
X207499153Y-38508406D01*
X207506322Y-38558587D01*
X207482285Y-38628647D01*
X207429561Y-38665717D01*
X207373031Y-38688164D01*
X207347146Y-38692300D01*
X207334542Y-38662283D01*
X207309654Y-38596961D01*
X207298735Y-38567445D01*
X207237508Y-38465348D01*
X207148861Y-38414423D01*
X207035193Y-38415989D01*
X207026774Y-38417994D01*
X206966088Y-38446767D01*
X206921474Y-38502859D01*
X206891002Y-38593163D01*
X206872744Y-38724571D01*
X206864771Y-38903974D01*
X206864023Y-38999433D01*
X206863652Y-39149913D01*
X206861223Y-39252495D01*
X206854760Y-39317672D01*
X206842288Y-39355938D01*
X206821833Y-39377785D01*
X206791419Y-39393707D01*
X206789661Y-39394509D01*
X206731091Y-39419272D01*
X206702075Y-39428391D01*
X206697616Y-39400822D01*
X206693799Y-39324620D01*
X206690899Y-39209541D01*
X206689191Y-39065341D01*
X206688851Y-38959814D01*
X206690588Y-38755613D01*
X206697382Y-38600697D01*
X206711607Y-38486024D01*
X206735638Y-38402551D01*
X206771848Y-38341236D01*
X206822612Y-38293034D01*
X206872739Y-38259393D01*
X206993275Y-38214619D01*
X207133557Y-38204521D01*
X207265690Y-38230018D01*
G37*
X207265690Y-38230018D02*
X207300585Y-38245269D01*
X207383877Y-38311235D01*
X207455103Y-38406618D01*
X207499153Y-38508406D01*
X207506322Y-38558587D01*
X207482285Y-38628647D01*
X207429561Y-38665717D01*
X207373031Y-38688164D01*
X207347146Y-38692300D01*
X207334542Y-38662283D01*
X207309654Y-38596961D01*
X207298735Y-38567445D01*
X207237508Y-38465348D01*
X207148861Y-38414423D01*
X207035193Y-38415989D01*
X207026774Y-38417994D01*
X206966088Y-38446767D01*
X206921474Y-38502859D01*
X206891002Y-38593163D01*
X206872744Y-38724571D01*
X206864771Y-38903974D01*
X206864023Y-38999433D01*
X206863652Y-39149913D01*
X206861223Y-39252495D01*
X206854760Y-39317672D01*
X206842288Y-39355938D01*
X206821833Y-39377785D01*
X206791419Y-39393707D01*
X206789661Y-39394509D01*
X206731091Y-39419272D01*
X206702075Y-39428391D01*
X206697616Y-39400822D01*
X206693799Y-39324620D01*
X206690899Y-39209541D01*
X206689191Y-39065341D01*
X206688851Y-38959814D01*
X206690588Y-38755613D01*
X206697382Y-38600697D01*
X206711607Y-38486024D01*
X206735638Y-38402551D01*
X206771848Y-38341236D01*
X206822612Y-38293034D01*
X206872739Y-38259393D01*
X206993275Y-38214619D01*
X207133557Y-38204521D01*
X207265690Y-38230018D01*
G36*
X206244406Y-38225156D02*
G01*
X206328469Y-38263393D01*
X206394450Y-38309726D01*
X206442794Y-38361532D01*
X206476172Y-38428363D01*
X206497253Y-38519769D01*
X206508707Y-38645301D01*
X206513203Y-38814508D01*
X206513678Y-38925933D01*
X206513678Y-39360627D01*
X206439316Y-39394509D01*
X206380746Y-39419272D01*
X206351730Y-39428391D01*
X206346179Y-39401257D01*
X206341775Y-39328094D01*
X206339078Y-39221263D01*
X206338506Y-39136437D01*
X206336046Y-39013887D01*
X206329412Y-38916668D01*
X206319726Y-38857134D01*
X206312032Y-38844483D01*
X206260311Y-38857402D01*
X206179117Y-38890539D01*
X206085102Y-38935461D01*
X205994917Y-38983735D01*
X205925215Y-39026928D01*
X205892648Y-39056608D01*
X205892519Y-39056929D01*
X205895320Y-39111857D01*
X205920439Y-39164292D01*
X205964541Y-39206881D01*
X206028909Y-39221126D01*
X206083921Y-39219466D01*
X206161835Y-39218245D01*
X206202732Y-39236498D01*
X206227295Y-39284726D01*
X206230392Y-39293820D01*
X206241040Y-39362598D01*
X206212565Y-39404360D01*
X206138344Y-39424263D01*
X206058168Y-39427944D01*
X205913890Y-39400658D01*
X205839203Y-39361690D01*
X205746963Y-39270148D01*
X205698043Y-39157782D01*
X205693654Y-39039051D01*
X205735001Y-38928411D01*
X205797197Y-38859080D01*
X205859294Y-38820265D01*
X205956895Y-38771125D01*
X206070632Y-38721292D01*
X206089590Y-38713677D01*
X206214521Y-38658545D01*
X206286539Y-38609954D01*
X206309700Y-38561647D01*
X206288064Y-38507370D01*
X206250920Y-38464943D01*
X206163127Y-38412702D01*
X206066530Y-38408784D01*
X205977944Y-38449041D01*
X205914186Y-38529326D01*
X205905817Y-38550040D01*
X205857096Y-38626225D01*
X205785965Y-38682785D01*
X205696207Y-38729201D01*
X205696207Y-38597584D01*
X205701490Y-38517168D01*
X205724142Y-38453786D01*
X205774367Y-38386163D01*
X205822582Y-38334076D01*
X205897554Y-38260322D01*
X205955806Y-38220702D01*
X206018372Y-38204810D01*
X206089193Y-38202184D01*
X206244406Y-38225156D01*
G37*
X206244406Y-38225156D02*
X206328469Y-38263393D01*
X206394450Y-38309726D01*
X206442794Y-38361532D01*
X206476172Y-38428363D01*
X206497253Y-38519769D01*
X206508707Y-38645301D01*
X206513203Y-38814508D01*
X206513678Y-38925933D01*
X206513678Y-39360627D01*
X206439316Y-39394509D01*
X206380746Y-39419272D01*
X206351730Y-39428391D01*
X206346179Y-39401257D01*
X206341775Y-39328094D01*
X206339078Y-39221263D01*
X206338506Y-39136437D01*
X206336046Y-39013887D01*
X206329412Y-38916668D01*
X206319726Y-38857134D01*
X206312032Y-38844483D01*
X206260311Y-38857402D01*
X206179117Y-38890539D01*
X206085102Y-38935461D01*
X205994917Y-38983735D01*
X205925215Y-39026928D01*
X205892648Y-39056608D01*
X205892519Y-39056929D01*
X205895320Y-39111857D01*
X205920439Y-39164292D01*
X205964541Y-39206881D01*
X206028909Y-39221126D01*
X206083921Y-39219466D01*
X206161835Y-39218245D01*
X206202732Y-39236498D01*
X206227295Y-39284726D01*
X206230392Y-39293820D01*
X206241040Y-39362598D01*
X206212565Y-39404360D01*
X206138344Y-39424263D01*
X206058168Y-39427944D01*
X205913890Y-39400658D01*
X205839203Y-39361690D01*
X205746963Y-39270148D01*
X205698043Y-39157782D01*
X205693654Y-39039051D01*
X205735001Y-38928411D01*
X205797197Y-38859080D01*
X205859294Y-38820265D01*
X205956895Y-38771125D01*
X206070632Y-38721292D01*
X206089590Y-38713677D01*
X206214521Y-38658545D01*
X206286539Y-38609954D01*
X206309700Y-38561647D01*
X206288064Y-38507370D01*
X206250920Y-38464943D01*
X206163127Y-38412702D01*
X206066530Y-38408784D01*
X205977944Y-38449041D01*
X205914186Y-38529326D01*
X205905817Y-38550040D01*
X205857096Y-38626225D01*
X205785965Y-38682785D01*
X205696207Y-38729201D01*
X205696207Y-38597584D01*
X205701490Y-38517168D01*
X205724142Y-38453786D01*
X205774367Y-38386163D01*
X205822582Y-38334076D01*
X205897554Y-38260322D01*
X205955806Y-38220702D01*
X206018372Y-38204810D01*
X206089193Y-38202184D01*
X206244406Y-38225156D01*
G36*
X205510124Y-38229840D02*
G01*
X205514579Y-38306653D01*
X205518071Y-38423391D01*
X205520315Y-38570821D01*
X205521035Y-38725455D01*
X205521035Y-39248727D01*
X205428645Y-39341117D01*
X205364978Y-39398047D01*
X205309089Y-39421107D01*
X205232702Y-39419647D01*
X205202380Y-39415934D01*
X205107610Y-39405126D01*
X205029222Y-39398933D01*
X205010115Y-39398361D01*
X204945699Y-39402102D01*
X204853571Y-39411494D01*
X204817850Y-39415934D01*
X204730114Y-39422801D01*
X204671153Y-39407885D01*
X204612690Y-39361835D01*
X204591585Y-39341117D01*
X204499195Y-39248727D01*
X204499195Y-38269947D01*
X204573558Y-38236066D01*
X204637590Y-38210970D01*
X204675052Y-38202184D01*
X204684657Y-38229950D01*
X204693635Y-38307530D01*
X204701386Y-38426348D01*
X204707314Y-38577828D01*
X204710173Y-38705805D01*
X204718161Y-39209425D01*
X204787848Y-39219278D01*
X204851229Y-39212389D01*
X204882286Y-39190083D01*
X204890967Y-39148379D01*
X204898378Y-39059544D01*
X204903931Y-38934834D01*
X204907036Y-38785507D01*
X204907484Y-38708661D01*
X204907931Y-38266287D01*
X204999874Y-38234235D01*
X205064949Y-38212443D01*
X205100347Y-38202281D01*
X205101368Y-38202184D01*
X205104920Y-38229809D01*
X205108823Y-38306411D01*
X205112751Y-38422579D01*
X205116376Y-38568904D01*
X205118908Y-38705805D01*
X205126897Y-39209425D01*
X205302069Y-39209425D01*
X205310107Y-38749965D01*
X205318146Y-38290505D01*
X205403543Y-38246344D01*
X205466593Y-38216019D01*
X205503910Y-38202258D01*
X205504987Y-38202184D01*
X205510124Y-38229840D01*
G37*
X205510124Y-38229840D02*
X205514579Y-38306653D01*
X205518071Y-38423391D01*
X205520315Y-38570821D01*
X205521035Y-38725455D01*
X205521035Y-39248727D01*
X205428645Y-39341117D01*
X205364978Y-39398047D01*
X205309089Y-39421107D01*
X205232702Y-39419647D01*
X205202380Y-39415934D01*
X205107610Y-39405126D01*
X205029222Y-39398933D01*
X205010115Y-39398361D01*
X204945699Y-39402102D01*
X204853571Y-39411494D01*
X204817850Y-39415934D01*
X204730114Y-39422801D01*
X204671153Y-39407885D01*
X204612690Y-39361835D01*
X204591585Y-39341117D01*
X204499195Y-39248727D01*
X204499195Y-38269947D01*
X204573558Y-38236066D01*
X204637590Y-38210970D01*
X204675052Y-38202184D01*
X204684657Y-38229950D01*
X204693635Y-38307530D01*
X204701386Y-38426348D01*
X204707314Y-38577828D01*
X204710173Y-38705805D01*
X204718161Y-39209425D01*
X204787848Y-39219278D01*
X204851229Y-39212389D01*
X204882286Y-39190083D01*
X204890967Y-39148379D01*
X204898378Y-39059544D01*
X204903931Y-38934834D01*
X204907036Y-38785507D01*
X204907484Y-38708661D01*
X204907931Y-38266287D01*
X204999874Y-38234235D01*
X205064949Y-38212443D01*
X205100347Y-38202281D01*
X205101368Y-38202184D01*
X205104920Y-38229809D01*
X205108823Y-38306411D01*
X205112751Y-38422579D01*
X205116376Y-38568904D01*
X205118908Y-38705805D01*
X205126897Y-39209425D01*
X205302069Y-39209425D01*
X205310107Y-38749965D01*
X205318146Y-38290505D01*
X205403543Y-38246344D01*
X205466593Y-38216019D01*
X205503910Y-38202258D01*
X205504987Y-38202184D01*
X205510124Y-38229840D01*
G36*
X204323914Y-38444455D02*
G01*
X204323543Y-38662661D01*
X204322108Y-38830519D01*
X204319002Y-38956070D01*
X204313622Y-39047355D01*
X204305362Y-39112415D01*
X204293616Y-39159291D01*
X204277781Y-39196024D01*
X204265790Y-39216991D01*
X204166490Y-39330694D01*
X204040588Y-39401965D01*
X203901291Y-39427538D01*
X203761805Y-39404150D01*
X203678743Y-39362119D01*
X203591545Y-39289411D01*
X203532117Y-39200612D01*
X203496261Y-39084320D01*
X203479781Y-38929135D01*
X203477447Y-38815287D01*
X203477761Y-38807106D01*
X203681724Y-38807106D01*
X203682970Y-38937657D01*
X203688678Y-39024080D01*
X203701804Y-39080618D01*
X203725306Y-39121514D01*
X203753386Y-39152362D01*
X203847688Y-39211905D01*
X203948940Y-39216992D01*
X204044636Y-39167279D01*
X204052084Y-39160543D01*
X204083874Y-39125502D01*
X204103808Y-39083811D01*
X204114600Y-39021762D01*
X204118965Y-38925644D01*
X204119655Y-38819379D01*
X204118159Y-38685880D01*
X204111964Y-38596822D01*
X204098514Y-38538293D01*
X204075251Y-38496382D01*
X204056175Y-38474123D01*
X203967563Y-38417985D01*
X203865508Y-38411235D01*
X203768095Y-38454114D01*
X203749296Y-38470032D01*
X203717293Y-38505382D01*
X203697318Y-38547502D01*
X203686593Y-38610251D01*
X203682339Y-38707487D01*
X203681724Y-38807106D01*
X203477761Y-38807106D01*
X203484504Y-38631947D01*
X203508472Y-38494195D01*
X203553548Y-38390632D01*
X203623928Y-38309856D01*
X203678743Y-38268455D01*
X203778376Y-38223728D01*
X203893855Y-38202967D01*
X204001199Y-38208525D01*
X204061264Y-38230943D01*
X204084835Y-38237323D01*
X204100477Y-38213535D01*
X204111395Y-38149788D01*
X204119655Y-38052687D01*
X204128699Y-37944541D01*
X204141261Y-37879475D01*
X204164119Y-37842268D01*
X204204051Y-37817699D01*
X204229138Y-37806819D01*
X204324023Y-37767072D01*
X204323914Y-38444455D01*
G37*
X204323914Y-38444455D02*
X204323543Y-38662661D01*
X204322108Y-38830519D01*
X204319002Y-38956070D01*
X204313622Y-39047355D01*
X204305362Y-39112415D01*
X204293616Y-39159291D01*
X204277781Y-39196024D01*
X204265790Y-39216991D01*
X204166490Y-39330694D01*
X204040588Y-39401965D01*
X203901291Y-39427538D01*
X203761805Y-39404150D01*
X203678743Y-39362119D01*
X203591545Y-39289411D01*
X203532117Y-39200612D01*
X203496261Y-39084320D01*
X203479781Y-38929135D01*
X203477447Y-38815287D01*
X203477761Y-38807106D01*
X203681724Y-38807106D01*
X203682970Y-38937657D01*
X203688678Y-39024080D01*
X203701804Y-39080618D01*
X203725306Y-39121514D01*
X203753386Y-39152362D01*
X203847688Y-39211905D01*
X203948940Y-39216992D01*
X204044636Y-39167279D01*
X204052084Y-39160543D01*
X204083874Y-39125502D01*
X204103808Y-39083811D01*
X204114600Y-39021762D01*
X204118965Y-38925644D01*
X204119655Y-38819379D01*
X204118159Y-38685880D01*
X204111964Y-38596822D01*
X204098514Y-38538293D01*
X204075251Y-38496382D01*
X204056175Y-38474123D01*
X203967563Y-38417985D01*
X203865508Y-38411235D01*
X203768095Y-38454114D01*
X203749296Y-38470032D01*
X203717293Y-38505382D01*
X203697318Y-38547502D01*
X203686593Y-38610251D01*
X203682339Y-38707487D01*
X203681724Y-38807106D01*
X203477761Y-38807106D01*
X203484504Y-38631947D01*
X203508472Y-38494195D01*
X203553548Y-38390632D01*
X203623928Y-38309856D01*
X203678743Y-38268455D01*
X203778376Y-38223728D01*
X203893855Y-38202967D01*
X204001199Y-38208525D01*
X204061264Y-38230943D01*
X204084835Y-38237323D01*
X204100477Y-38213535D01*
X204111395Y-38149788D01*
X204119655Y-38052687D01*
X204128699Y-37944541D01*
X204141261Y-37879475D01*
X204164119Y-37842268D01*
X204204051Y-37817699D01*
X204229138Y-37806819D01*
X204324023Y-37767072D01*
X204323914Y-38444455D01*
G36*
X202995943Y-38211920D02*
G01*
X203128565Y-38260859D01*
X203236010Y-38347419D01*
X203278032Y-38408352D01*
X203323843Y-38520161D01*
X203322891Y-38601006D01*
X203274808Y-38655378D01*
X203257017Y-38664624D01*
X203180204Y-38693450D01*
X203140976Y-38686065D01*
X203127689Y-38637658D01*
X203127012Y-38610920D01*
X203102686Y-38512548D01*
X203039281Y-38443734D01*
X202951154Y-38410498D01*
X202852663Y-38418861D01*
X202772602Y-38462296D01*
X202745561Y-38487072D01*
X202726394Y-38517129D01*
X202713446Y-38562565D01*
X202705064Y-38633476D01*
X202699593Y-38739960D01*
X202695378Y-38892112D01*
X202694287Y-38940287D01*
X202690307Y-39105095D01*
X202685781Y-39221088D01*
X202678995Y-39297833D01*
X202668231Y-39344893D01*
X202651773Y-39371835D01*
X202627906Y-39388223D01*
X202612626Y-39395463D01*
X202547733Y-39420220D01*
X202509534Y-39428391D01*
X202496912Y-39401103D01*
X202489208Y-39318603D01*
X202486380Y-39179941D01*
X202488386Y-38984162D01*
X202489011Y-38953965D01*
X202493421Y-38775349D01*
X202498635Y-38644923D01*
X202506055Y-38552492D01*
X202517082Y-38487858D01*
X202533117Y-38440825D01*
X202555561Y-38401196D01*
X202567302Y-38384215D01*
X202634619Y-38309080D01*
X202709910Y-38250638D01*
X202719128Y-38245536D01*
X202854133Y-38205260D01*
X202995943Y-38211920D01*
G37*
X202995943Y-38211920D02*
X203128565Y-38260859D01*
X203236010Y-38347419D01*
X203278032Y-38408352D01*
X203323843Y-38520161D01*
X203322891Y-38601006D01*
X203274808Y-38655378D01*
X203257017Y-38664624D01*
X203180204Y-38693450D01*
X203140976Y-38686065D01*
X203127689Y-38637658D01*
X203127012Y-38610920D01*
X203102686Y-38512548D01*
X203039281Y-38443734D01*
X202951154Y-38410498D01*
X202852663Y-38418861D01*
X202772602Y-38462296D01*
X202745561Y-38487072D01*
X202726394Y-38517129D01*
X202713446Y-38562565D01*
X202705064Y-38633476D01*
X202699593Y-38739960D01*
X202695378Y-38892112D01*
X202694287Y-38940287D01*
X202690307Y-39105095D01*
X202685781Y-39221088D01*
X202678995Y-39297833D01*
X202668231Y-39344893D01*
X202651773Y-39371835D01*
X202627906Y-39388223D01*
X202612626Y-39395463D01*
X202547733Y-39420220D01*
X202509534Y-39428391D01*
X202496912Y-39401103D01*
X202489208Y-39318603D01*
X202486380Y-39179941D01*
X202488386Y-38984162D01*
X202489011Y-38953965D01*
X202493421Y-38775349D01*
X202498635Y-38644923D01*
X202506055Y-38552492D01*
X202517082Y-38487858D01*
X202533117Y-38440825D01*
X202555561Y-38401196D01*
X202567302Y-38384215D01*
X202634619Y-38309080D01*
X202709910Y-38250638D01*
X202719128Y-38245536D01*
X202854133Y-38205260D01*
X202995943Y-38211920D01*
G36*
X202009944Y-38214360D02*
G01*
X202124343Y-38256842D01*
X202125652Y-38257658D01*
X202196403Y-38309730D01*
X202248636Y-38370584D01*
X202285371Y-38449887D01*
X202309634Y-38557309D01*
X202324445Y-38702517D01*
X202332829Y-38895179D01*
X202333564Y-38922628D01*
X202344120Y-39336521D01*
X202255291Y-39382456D01*
X202191018Y-39413498D01*
X202152210Y-39428206D01*
X202150415Y-39428391D01*
X202143700Y-39401250D01*
X202138365Y-39328041D01*
X202135083Y-39221081D01*
X202134368Y-39134469D01*
X202134351Y-38994162D01*
X202127937Y-38906051D01*
X202105580Y-38864025D01*
X202057732Y-38861975D01*
X201974849Y-38893790D01*
X201849713Y-38952272D01*
X201757697Y-39000845D01*
X201710371Y-39042986D01*
X201696458Y-39088916D01*
X201696437Y-39091189D01*
X201719395Y-39170311D01*
X201787370Y-39213055D01*
X201891398Y-39219246D01*
X201966330Y-39218172D01*
X202005839Y-39239753D01*
X202030478Y-39291591D01*
X202044659Y-39357632D01*
X202024223Y-39395104D01*
X202016528Y-39400467D01*
X201944083Y-39422006D01*
X201842633Y-39425055D01*
X201738157Y-39410778D01*
X201664125Y-39384688D01*
X201561772Y-39297785D01*
X201503591Y-39176816D01*
X201492069Y-39082308D01*
X201500862Y-38997062D01*
X201532680Y-38927476D01*
X201595684Y-38865672D01*
X201698031Y-38803772D01*
X201847882Y-38733897D01*
X201857012Y-38729948D01*
X201991997Y-38667588D01*
X202075294Y-38616446D01*
X202110997Y-38570488D01*
X202103203Y-38523683D01*
X202056007Y-38469998D01*
X202041894Y-38457644D01*
X201947359Y-38409741D01*
X201849406Y-38411758D01*
X201764097Y-38458724D01*
X201707496Y-38545669D01*
X201702237Y-38562734D01*
X201651023Y-38645504D01*
X201586037Y-38685372D01*
X201492069Y-38724882D01*
X201492069Y-38622658D01*
X201520653Y-38474072D01*
X201605495Y-38337784D01*
X201649645Y-38292191D01*
X201750005Y-38233674D01*
X201877635Y-38207184D01*
X202009944Y-38214360D01*
G37*
X202009944Y-38214360D02*
X202124343Y-38256842D01*
X202125652Y-38257658D01*
X202196403Y-38309730D01*
X202248636Y-38370584D01*
X202285371Y-38449887D01*
X202309634Y-38557309D01*
X202324445Y-38702517D01*
X202332829Y-38895179D01*
X202333564Y-38922628D01*
X202344120Y-39336521D01*
X202255291Y-39382456D01*
X202191018Y-39413498D01*
X202152210Y-39428206D01*
X202150415Y-39428391D01*
X202143700Y-39401250D01*
X202138365Y-39328041D01*
X202135083Y-39221081D01*
X202134368Y-39134469D01*
X202134351Y-38994162D01*
X202127937Y-38906051D01*
X202105580Y-38864025D01*
X202057732Y-38861975D01*
X201974849Y-38893790D01*
X201849713Y-38952272D01*
X201757697Y-39000845D01*
X201710371Y-39042986D01*
X201696458Y-39088916D01*
X201696437Y-39091189D01*
X201719395Y-39170311D01*
X201787370Y-39213055D01*
X201891398Y-39219246D01*
X201966330Y-39218172D01*
X202005839Y-39239753D01*
X202030478Y-39291591D01*
X202044659Y-39357632D01*
X202024223Y-39395104D01*
X202016528Y-39400467D01*
X201944083Y-39422006D01*
X201842633Y-39425055D01*
X201738157Y-39410778D01*
X201664125Y-39384688D01*
X201561772Y-39297785D01*
X201503591Y-39176816D01*
X201492069Y-39082308D01*
X201500862Y-38997062D01*
X201532680Y-38927476D01*
X201595684Y-38865672D01*
X201698031Y-38803772D01*
X201847882Y-38733897D01*
X201857012Y-38729948D01*
X201991997Y-38667588D01*
X202075294Y-38616446D01*
X202110997Y-38570488D01*
X202103203Y-38523683D01*
X202056007Y-38469998D01*
X202041894Y-38457644D01*
X201947359Y-38409741D01*
X201849406Y-38411758D01*
X201764097Y-38458724D01*
X201707496Y-38545669D01*
X201702237Y-38562734D01*
X201651023Y-38645504D01*
X201586037Y-38685372D01*
X201492069Y-38724882D01*
X201492069Y-38622658D01*
X201520653Y-38474072D01*
X201605495Y-38337784D01*
X201649645Y-38292191D01*
X201750005Y-38233674D01*
X201877635Y-38207184D01*
X202009944Y-38214360D01*
G36*
X200674598Y-38013857D02*
G01*
X200683154Y-38133188D01*
X200692981Y-38203506D01*
X200706599Y-38234179D01*
X200726527Y-38234571D01*
X200732989Y-38230910D01*
X200818940Y-38204398D01*
X200930745Y-38205946D01*
X201044414Y-38233199D01*
X201115510Y-38268455D01*
X201188405Y-38324778D01*
X201241693Y-38388519D01*
X201278275Y-38469510D01*
X201301050Y-38577586D01*
X201312919Y-38722580D01*
X201316782Y-38914326D01*
X201316851Y-38951109D01*
X201316897Y-39364288D01*
X201224954Y-39396339D01*
X201159652Y-39418144D01*
X201123824Y-39428297D01*
X201122770Y-39428391D01*
X201119242Y-39400860D01*
X201116239Y-39324923D01*
X201113990Y-39210565D01*
X201112724Y-39067769D01*
X201112529Y-38980951D01*
X201112123Y-38809773D01*
X201110032Y-38687088D01*
X201104947Y-38603000D01*
X201095560Y-38547614D01*
X201080561Y-38511032D01*
X201058642Y-38483359D01*
X201044957Y-38470032D01*
X200950949Y-38416328D01*
X200848364Y-38412307D01*
X200755290Y-38457725D01*
X200738078Y-38474123D01*
X200712832Y-38504957D01*
X200695320Y-38541531D01*
X200684142Y-38594415D01*
X200677896Y-38674177D01*
X200675182Y-38791385D01*
X200674598Y-38952991D01*
X200674598Y-39364288D01*
X200582655Y-39396339D01*
X200517353Y-39418144D01*
X200481525Y-39428297D01*
X200480471Y-39428391D01*
X200477775Y-39400448D01*
X200475345Y-39321630D01*
X200473278Y-39199453D01*
X200471671Y-39041432D01*
X200470623Y-38855083D01*
X200470231Y-38647920D01*
X200470230Y-38638706D01*
X200470230Y-37849020D01*
X200565115Y-37808997D01*
X200660000Y-37768973D01*
X200674598Y-38013857D01*
G37*
X200674598Y-38013857D02*
X200683154Y-38133188D01*
X200692981Y-38203506D01*
X200706599Y-38234179D01*
X200726527Y-38234571D01*
X200732989Y-38230910D01*
X200818940Y-38204398D01*
X200930745Y-38205946D01*
X201044414Y-38233199D01*
X201115510Y-38268455D01*
X201188405Y-38324778D01*
X201241693Y-38388519D01*
X201278275Y-38469510D01*
X201301050Y-38577586D01*
X201312919Y-38722580D01*
X201316782Y-38914326D01*
X201316851Y-38951109D01*
X201316897Y-39364288D01*
X201224954Y-39396339D01*
X201159652Y-39418144D01*
X201123824Y-39428297D01*
X201122770Y-39428391D01*
X201119242Y-39400860D01*
X201116239Y-39324923D01*
X201113990Y-39210565D01*
X201112724Y-39067769D01*
X201112529Y-38980951D01*
X201112123Y-38809773D01*
X201110032Y-38687088D01*
X201104947Y-38603000D01*
X201095560Y-38547614D01*
X201080561Y-38511032D01*
X201058642Y-38483359D01*
X201044957Y-38470032D01*
X200950949Y-38416328D01*
X200848364Y-38412307D01*
X200755290Y-38457725D01*
X200738078Y-38474123D01*
X200712832Y-38504957D01*
X200695320Y-38541531D01*
X200684142Y-38594415D01*
X200677896Y-38674177D01*
X200675182Y-38791385D01*
X200674598Y-38952991D01*
X200674598Y-39364288D01*
X200582655Y-39396339D01*
X200517353Y-39418144D01*
X200481525Y-39428297D01*
X200480471Y-39428391D01*
X200477775Y-39400448D01*
X200475345Y-39321630D01*
X200473278Y-39199453D01*
X200471671Y-39041432D01*
X200470623Y-38855083D01*
X200470231Y-38647920D01*
X200470230Y-38638706D01*
X200470230Y-37849020D01*
X200565115Y-37808997D01*
X200660000Y-37768973D01*
X200674598Y-38013857D01*
G36*
X198245552Y-38174676D02*
G01*
X198360658Y-38252111D01*
X198449611Y-38363949D01*
X198502749Y-38506265D01*
X198513497Y-38611015D01*
X198512276Y-38654726D01*
X198502056Y-38688194D01*
X198473961Y-38718179D01*
X198419116Y-38751440D01*
X198328645Y-38794738D01*
X198193672Y-38854833D01*
X198192989Y-38855134D01*
X198068751Y-38912037D01*
X197966873Y-38962565D01*
X197897767Y-39001280D01*
X197871846Y-39022740D01*
X197871839Y-39022913D01*
X197894685Y-39069644D01*
X197948109Y-39121154D01*
X198009442Y-39158261D01*
X198040515Y-39165632D01*
X198125289Y-39140138D01*
X198198293Y-39076291D01*
X198233913Y-39006094D01*
X198268180Y-38954343D01*
X198335303Y-38895409D01*
X198414208Y-38844496D01*
X198483821Y-38816809D01*
X198498377Y-38815287D01*
X198514763Y-38840321D01*
X198515750Y-38904311D01*
X198503708Y-38990593D01*
X198481007Y-39082501D01*
X198450014Y-39163369D01*
X198448448Y-39166509D01*
X198355181Y-39296734D01*
X198234304Y-39385311D01*
X198097027Y-39428786D01*
X197954560Y-39423706D01*
X197818112Y-39366616D01*
X197812045Y-39362602D01*
X197704710Y-39265326D01*
X197634132Y-39138409D01*
X197595074Y-38971526D01*
X197589832Y-38924639D01*
X197580548Y-38703329D01*
X197591678Y-38600124D01*
X197871839Y-38600124D01*
X197875479Y-38664503D01*
X197895389Y-38683291D01*
X197945026Y-38669235D01*
X198023267Y-38636009D01*
X198110726Y-38594359D01*
X198112899Y-38593256D01*
X198187030Y-38554265D01*
X198216781Y-38528244D01*
X198209445Y-38500965D01*
X198178553Y-38465121D01*
X198099960Y-38413251D01*
X198015323Y-38409439D01*
X197939403Y-38447189D01*
X197886965Y-38520001D01*
X197871839Y-38600124D01*
X197591678Y-38600124D01*
X197599644Y-38526261D01*
X197648634Y-38385829D01*
X197716836Y-38287447D01*
X197839935Y-38188030D01*
X197975528Y-38138711D01*
X198113955Y-38135568D01*
X198245552Y-38174676D01*
G37*
X198245552Y-38174676D02*
X198360658Y-38252111D01*
X198449611Y-38363949D01*
X198502749Y-38506265D01*
X198513497Y-38611015D01*
X198512276Y-38654726D01*
X198502056Y-38688194D01*
X198473961Y-38718179D01*
X198419116Y-38751440D01*
X198328645Y-38794738D01*
X198193672Y-38854833D01*
X198192989Y-38855134D01*
X198068751Y-38912037D01*
X197966873Y-38962565D01*
X197897767Y-39001280D01*
X197871846Y-39022740D01*
X197871839Y-39022913D01*
X197894685Y-39069644D01*
X197948109Y-39121154D01*
X198009442Y-39158261D01*
X198040515Y-39165632D01*
X198125289Y-39140138D01*
X198198293Y-39076291D01*
X198233913Y-39006094D01*
X198268180Y-38954343D01*
X198335303Y-38895409D01*
X198414208Y-38844496D01*
X198483821Y-38816809D01*
X198498377Y-38815287D01*
X198514763Y-38840321D01*
X198515750Y-38904311D01*
X198503708Y-38990593D01*
X198481007Y-39082501D01*
X198450014Y-39163369D01*
X198448448Y-39166509D01*
X198355181Y-39296734D01*
X198234304Y-39385311D01*
X198097027Y-39428786D01*
X197954560Y-39423706D01*
X197818112Y-39366616D01*
X197812045Y-39362602D01*
X197704710Y-39265326D01*
X197634132Y-39138409D01*
X197595074Y-38971526D01*
X197589832Y-38924639D01*
X197580548Y-38703329D01*
X197591678Y-38600124D01*
X197871839Y-38600124D01*
X197875479Y-38664503D01*
X197895389Y-38683291D01*
X197945026Y-38669235D01*
X198023267Y-38636009D01*
X198110726Y-38594359D01*
X198112899Y-38593256D01*
X198187030Y-38554265D01*
X198216781Y-38528244D01*
X198209445Y-38500965D01*
X198178553Y-38465121D01*
X198099960Y-38413251D01*
X198015323Y-38409439D01*
X197939403Y-38447189D01*
X197886965Y-38520001D01*
X197871839Y-38600124D01*
X197591678Y-38600124D01*
X197599644Y-38526261D01*
X197648634Y-38385829D01*
X197716836Y-38287447D01*
X197839935Y-38188030D01*
X197975528Y-38138711D01*
X198113955Y-38135568D01*
X198245552Y-38174676D01*
G36*
X195978221Y-38156015D02*
G01*
X196115061Y-38227968D01*
X196216051Y-38343766D01*
X196251925Y-38418213D01*
X196279839Y-38529992D01*
X196294129Y-38671227D01*
X196295484Y-38825371D01*
X196284595Y-38975879D01*
X196262153Y-39106205D01*
X196228850Y-39199803D01*
X196218615Y-39215922D01*
X196097382Y-39336249D01*
X195953387Y-39408317D01*
X195797139Y-39429408D01*
X195639148Y-39396802D01*
X195595180Y-39377253D01*
X195509556Y-39317012D01*
X195434408Y-39237135D01*
X195427306Y-39227004D01*
X195398439Y-39178181D01*
X195379357Y-39125990D01*
X195368084Y-39057285D01*
X195362645Y-38958918D01*
X195361062Y-38817744D01*
X195361035Y-38786092D01*
X195361107Y-38776019D01*
X195652989Y-38776019D01*
X195654687Y-38909256D01*
X195661372Y-38997674D01*
X195675425Y-39054785D01*
X195699229Y-39094102D01*
X195711379Y-39107241D01*
X195781236Y-39157172D01*
X195849059Y-39154895D01*
X195917635Y-39111584D01*
X195958535Y-39065346D01*
X195982758Y-38997857D01*
X195996361Y-38891433D01*
X195997294Y-38879020D01*
X195999616Y-38686147D01*
X195975350Y-38542900D01*
X195924824Y-38450160D01*
X195848368Y-38408807D01*
X195821076Y-38406552D01*
X195749411Y-38417893D01*
X195700390Y-38457184D01*
X195670418Y-38532326D01*
X195655899Y-38651222D01*
X195652989Y-38776019D01*
X195361107Y-38776019D01*
X195362122Y-38635659D01*
X195366688Y-38530549D01*
X195376688Y-38457714D01*
X195394079Y-38404108D01*
X195420816Y-38356681D01*
X195426724Y-38347864D01*
X195526032Y-38229007D01*
X195634242Y-38160008D01*
X195765981Y-38132619D01*
X195810717Y-38131281D01*
X195978221Y-38156015D01*
G37*
X195978221Y-38156015D02*
X196115061Y-38227968D01*
X196216051Y-38343766D01*
X196251925Y-38418213D01*
X196279839Y-38529992D01*
X196294129Y-38671227D01*
X196295484Y-38825371D01*
X196284595Y-38975879D01*
X196262153Y-39106205D01*
X196228850Y-39199803D01*
X196218615Y-39215922D01*
X196097382Y-39336249D01*
X195953387Y-39408317D01*
X195797139Y-39429408D01*
X195639148Y-39396802D01*
X195595180Y-39377253D01*
X195509556Y-39317012D01*
X195434408Y-39237135D01*
X195427306Y-39227004D01*
X195398439Y-39178181D01*
X195379357Y-39125990D01*
X195368084Y-39057285D01*
X195362645Y-38958918D01*
X195361062Y-38817744D01*
X195361035Y-38786092D01*
X195361107Y-38776019D01*
X195652989Y-38776019D01*
X195654687Y-38909256D01*
X195661372Y-38997674D01*
X195675425Y-39054785D01*
X195699229Y-39094102D01*
X195711379Y-39107241D01*
X195781236Y-39157172D01*
X195849059Y-39154895D01*
X195917635Y-39111584D01*
X195958535Y-39065346D01*
X195982758Y-38997857D01*
X195996361Y-38891433D01*
X195997294Y-38879020D01*
X195999616Y-38686147D01*
X195975350Y-38542900D01*
X195924824Y-38450160D01*
X195848368Y-38408807D01*
X195821076Y-38406552D01*
X195749411Y-38417893D01*
X195700390Y-38457184D01*
X195670418Y-38532326D01*
X195655899Y-38651222D01*
X195652989Y-38776019D01*
X195361107Y-38776019D01*
X195362122Y-38635659D01*
X195366688Y-38530549D01*
X195376688Y-38457714D01*
X195394079Y-38404108D01*
X195420816Y-38356681D01*
X195426724Y-38347864D01*
X195526032Y-38229007D01*
X195634242Y-38160008D01*
X195765981Y-38132619D01*
X195810717Y-38131281D01*
X195978221Y-38156015D01*
G36*
X199347429Y-38167719D02*
G01*
X199441123Y-38221914D01*
X199506264Y-38275707D01*
X199553907Y-38332066D01*
X199586728Y-38400987D01*
X199607406Y-38492468D01*
X199618620Y-38616506D01*
X199623049Y-38783098D01*
X199623563Y-38902851D01*
X199623563Y-39343659D01*
X199499483Y-39399283D01*
X199375402Y-39454907D01*
X199360805Y-38972095D01*
X199354773Y-38791779D01*
X199348445Y-38660901D01*
X199340606Y-38570511D01*
X199330037Y-38511664D01*
X199315523Y-38475413D01*
X199295848Y-38452810D01*
X199289535Y-38447917D01*
X199193888Y-38409706D01*
X199097207Y-38424827D01*
X199039655Y-38464943D01*
X199016245Y-38493370D01*
X199000039Y-38530672D01*
X198989741Y-38587223D01*
X198984049Y-38673394D01*
X198981664Y-38799558D01*
X198981264Y-38931042D01*
X198981186Y-39095999D01*
X198978361Y-39212761D01*
X198968907Y-39291510D01*
X198948940Y-39342431D01*
X198914576Y-39375706D01*
X198861932Y-39401520D01*
X198791617Y-39428344D01*
X198714820Y-39457542D01*
X198723962Y-38939346D01*
X198727643Y-38752539D01*
X198731950Y-38614490D01*
X198738123Y-38515568D01*
X198747402Y-38446145D01*
X198761027Y-38396590D01*
X198780239Y-38357273D01*
X198803402Y-38322584D01*
X198915152Y-38211770D01*
X199051513Y-38147689D01*
X199199825Y-38132339D01*
X199347429Y-38167719D01*
G37*
X199347429Y-38167719D02*
X199441123Y-38221914D01*
X199506264Y-38275707D01*
X199553907Y-38332066D01*
X199586728Y-38400987D01*
X199607406Y-38492468D01*
X199618620Y-38616506D01*
X199623049Y-38783098D01*
X199623563Y-38902851D01*
X199623563Y-39343659D01*
X199499483Y-39399283D01*
X199375402Y-39454907D01*
X199360805Y-38972095D01*
X199354773Y-38791779D01*
X199348445Y-38660901D01*
X199340606Y-38570511D01*
X199330037Y-38511664D01*
X199315523Y-38475413D01*
X199295848Y-38452810D01*
X199289535Y-38447917D01*
X199193888Y-38409706D01*
X199097207Y-38424827D01*
X199039655Y-38464943D01*
X199016245Y-38493370D01*
X199000039Y-38530672D01*
X198989741Y-38587223D01*
X198984049Y-38673394D01*
X198981664Y-38799558D01*
X198981264Y-38931042D01*
X198981186Y-39095999D01*
X198978361Y-39212761D01*
X198968907Y-39291510D01*
X198948940Y-39342431D01*
X198914576Y-39375706D01*
X198861932Y-39401520D01*
X198791617Y-39428344D01*
X198714820Y-39457542D01*
X198723962Y-38939346D01*
X198727643Y-38752539D01*
X198731950Y-38614490D01*
X198738123Y-38515568D01*
X198747402Y-38446145D01*
X198761027Y-38396590D01*
X198780239Y-38357273D01*
X198803402Y-38322584D01*
X198915152Y-38211770D01*
X199051513Y-38147689D01*
X199199825Y-38132339D01*
X199347429Y-38167719D01*
G36*
X197101900Y-38151903D02*
G01*
X197213450Y-38207522D01*
X197311908Y-38309931D01*
X197339023Y-38347864D01*
X197368562Y-38397500D01*
X197387728Y-38451412D01*
X197398693Y-38523364D01*
X197403629Y-38627122D01*
X197404713Y-38764101D01*
X197399818Y-38951815D01*
X197382804Y-39092758D01*
X197350177Y-39197908D01*
X197298442Y-39278243D01*
X197224104Y-39344741D01*
X197218642Y-39348678D01*
X197145380Y-39388953D01*
X197057160Y-39408880D01*
X196944962Y-39413793D01*
X196762567Y-39413793D01*
X196762491Y-39590857D01*
X196760793Y-39689470D01*
X196750450Y-39747314D01*
X196723422Y-39782006D01*
X196671668Y-39811164D01*
X196659239Y-39817121D01*
X196601077Y-39845039D01*
X196556044Y-39862672D01*
X196522559Y-39864194D01*
X196499038Y-39843781D01*
X196483900Y-39795607D01*
X196475563Y-39713846D01*
X196472444Y-39592672D01*
X196472960Y-39426260D01*
X196475529Y-39208785D01*
X196476332Y-39143736D01*
X196479222Y-38919502D01*
X196481812Y-38772821D01*
X196762414Y-38772821D01*
X196763991Y-38897326D01*
X196771000Y-38978787D01*
X196786858Y-39032515D01*
X196814981Y-39073823D01*
X196834075Y-39093971D01*
X196912135Y-39152921D01*
X196981247Y-39157720D01*
X197052560Y-39109038D01*
X197054368Y-39107241D01*
X197083383Y-39069618D01*
X197101033Y-39018484D01*
X197109936Y-38939738D01*
X197112709Y-38819276D01*
X197112759Y-38792588D01*
X197106058Y-38626583D01*
X197084248Y-38511505D01*
X197044765Y-38441254D01*
X196985044Y-38409729D01*
X196950528Y-38406552D01*
X196868611Y-38421460D01*
X196812421Y-38470548D01*
X196778598Y-38560362D01*
X196763780Y-38697445D01*
X196762414Y-38772821D01*
X196481812Y-38772821D01*
X196482287Y-38745952D01*
X196486247Y-38615382D01*
X196491826Y-38520087D01*
X196499746Y-38452364D01*
X196510731Y-38404507D01*
X196525501Y-38368813D01*
X196544782Y-38337578D01*
X196553049Y-38325824D01*
X196662712Y-38214797D01*
X196801365Y-38151847D01*
X196961754Y-38134297D01*
X197101900Y-38151903D01*
G37*
X197101900Y-38151903D02*
X197213450Y-38207522D01*
X197311908Y-38309931D01*
X197339023Y-38347864D01*
X197368562Y-38397500D01*
X197387728Y-38451412D01*
X197398693Y-38523364D01*
X197403629Y-38627122D01*
X197404713Y-38764101D01*
X197399818Y-38951815D01*
X197382804Y-39092758D01*
X197350177Y-39197908D01*
X197298442Y-39278243D01*
X197224104Y-39344741D01*
X197218642Y-39348678D01*
X197145380Y-39388953D01*
X197057160Y-39408880D01*
X196944962Y-39413793D01*
X196762567Y-39413793D01*
X196762491Y-39590857D01*
X196760793Y-39689470D01*
X196750450Y-39747314D01*
X196723422Y-39782006D01*
X196671668Y-39811164D01*
X196659239Y-39817121D01*
X196601077Y-39845039D01*
X196556044Y-39862672D01*
X196522559Y-39864194D01*
X196499038Y-39843781D01*
X196483900Y-39795607D01*
X196475563Y-39713846D01*
X196472444Y-39592672D01*
X196472960Y-39426260D01*
X196475529Y-39208785D01*
X196476332Y-39143736D01*
X196479222Y-38919502D01*
X196481812Y-38772821D01*
X196762414Y-38772821D01*
X196763991Y-38897326D01*
X196771000Y-38978787D01*
X196786858Y-39032515D01*
X196814981Y-39073823D01*
X196834075Y-39093971D01*
X196912135Y-39152921D01*
X196981247Y-39157720D01*
X197052560Y-39109038D01*
X197054368Y-39107241D01*
X197083383Y-39069618D01*
X197101033Y-39018484D01*
X197109936Y-38939738D01*
X197112709Y-38819276D01*
X197112759Y-38792588D01*
X197106058Y-38626583D01*
X197084248Y-38511505D01*
X197044765Y-38441254D01*
X196985044Y-38409729D01*
X196950528Y-38406552D01*
X196868611Y-38421460D01*
X196812421Y-38470548D01*
X196778598Y-38560362D01*
X196763780Y-38697445D01*
X196762414Y-38772821D01*
X196481812Y-38772821D01*
X196482287Y-38745952D01*
X196486247Y-38615382D01*
X196491826Y-38520087D01*
X196499746Y-38452364D01*
X196510731Y-38404507D01*
X196525501Y-38368813D01*
X196544782Y-38337578D01*
X196553049Y-38325824D01*
X196662712Y-38214797D01*
X196801365Y-38151847D01*
X196961754Y-38134297D01*
X197101900Y-38151903D01*
D12*
%TO.C,OSHW_Mono_0.5_Scale*%
G36*
X209444728Y-42698133D02*
G01*
X210096265Y-42698133D01*
X210569207Y-46706571D01*
X211131446Y-44054123D01*
X211829286Y-44054123D01*
X212398140Y-46713186D01*
X213999971Y-39029244D01*
X214651508Y-39029244D01*
X212785092Y-47635920D01*
X212153400Y-47635920D01*
X211482020Y-44702353D01*
X210813946Y-47635920D01*
X210182254Y-47635920D01*
X209444728Y-42698133D01*
G37*
X209444728Y-42698133D02*
X210096265Y-42698133D01*
X210569207Y-46706571D01*
X211131446Y-44054123D01*
X211829286Y-44054123D01*
X212398140Y-46713186D01*
X213999971Y-39029244D01*
X214651508Y-39029244D01*
X212785092Y-47635920D01*
X212153400Y-47635920D01*
X211482020Y-44702353D01*
X210813946Y-47635920D01*
X210182254Y-47635920D01*
X209444728Y-42698133D01*
G36*
X205823244Y-42698133D02*
G01*
X206494624Y-42698133D01*
X206494624Y-44722196D01*
X208323557Y-44722196D01*
X208323557Y-42698133D01*
X208994937Y-42698133D01*
X208994937Y-47635920D01*
X208323557Y-47635920D01*
X208323557Y-45284436D01*
X206494624Y-45284436D01*
X206494624Y-47635920D01*
X205823244Y-47635920D01*
X205823244Y-42698133D01*
G37*
X205823244Y-42698133D02*
X206494624Y-42698133D01*
X206494624Y-44722196D01*
X208323557Y-44722196D01*
X208323557Y-42698133D01*
X208994937Y-42698133D01*
X208994937Y-47635920D01*
X208323557Y-47635920D01*
X208323557Y-45284436D01*
X206494624Y-45284436D01*
X206494624Y-47635920D01*
X205823244Y-47635920D01*
X205823244Y-42698133D01*
G36*
X204642541Y-42866805D02*
G01*
X204642541Y-43544800D01*
X204439324Y-43425373D01*
X204235375Y-43327257D01*
X204030691Y-43250450D01*
X203827108Y-43195333D01*
X203622056Y-43162260D01*
X203415536Y-43151232D01*
X203122288Y-43175856D01*
X202873139Y-43249719D01*
X202668087Y-43372821D01*
X202515584Y-43535616D01*
X202424082Y-43732951D01*
X202393582Y-43964825D01*
X202438230Y-44253390D01*
X202572177Y-44464228D01*
X202727986Y-44572635D01*
X202952882Y-44668547D01*
X203246864Y-44751962D01*
X203597437Y-44831337D01*
X203860166Y-44903569D01*
X204092734Y-44990617D01*
X204295141Y-45092482D01*
X204467385Y-45209162D01*
X204609469Y-45340659D01*
X204748372Y-45530003D01*
X204847590Y-45750765D01*
X204907122Y-46002946D01*
X204926969Y-46286545D01*
X204909504Y-46554965D01*
X204857116Y-46796662D01*
X204769803Y-47011636D01*
X204647567Y-47199887D01*
X204490406Y-47361415D01*
X204299904Y-47494765D01*
X204077653Y-47598482D01*
X203823654Y-47672565D01*
X203537905Y-47717015D01*
X203220406Y-47731832D01*
X202988527Y-47723380D01*
X202755913Y-47698023D01*
X202522566Y-47655763D01*
X202288484Y-47598804D01*
X202053666Y-47524942D01*
X201818114Y-47434175D01*
X201818114Y-46723107D01*
X202066895Y-46869731D01*
X202306122Y-46987691D01*
X202535796Y-47076987D01*
X202763263Y-47139459D01*
X202991466Y-47176942D01*
X203220406Y-47189436D01*
X203459356Y-47175380D01*
X203670195Y-47133212D01*
X203852924Y-47062932D01*
X204007541Y-46964540D01*
X204163716Y-46792561D01*
X204257423Y-46580895D01*
X204288661Y-46329540D01*
X204266978Y-46102073D01*
X204201934Y-45913557D01*
X204093531Y-45763992D01*
X203933677Y-45643829D01*
X203709883Y-45543508D01*
X203422150Y-45463029D01*
X203064962Y-45380346D01*
X202804876Y-45311821D01*
X202574953Y-45230594D01*
X202375193Y-45136667D01*
X202205596Y-45030040D01*
X202066161Y-44910712D01*
X201930148Y-44740181D01*
X201832996Y-44542778D01*
X201774705Y-44318502D01*
X201755275Y-44067353D01*
X201773002Y-43813355D01*
X201826183Y-43580522D01*
X201914818Y-43368856D01*
X202038908Y-43178355D01*
X202198453Y-43009019D01*
X202388687Y-42864956D01*
X202602205Y-42752906D01*
X202839007Y-42672870D01*
X203099093Y-42624847D01*
X203382462Y-42608837D01*
X203575387Y-42616190D01*
X203774927Y-42638238D01*
X203981082Y-42674982D01*
X204194217Y-42724227D01*
X204414703Y-42788168D01*
X204642541Y-42866805D01*
G37*
X204642541Y-42866805D02*
X204642541Y-43544800D01*
X204439324Y-43425373D01*
X204235375Y-43327257D01*
X204030691Y-43250450D01*
X203827108Y-43195333D01*
X203622056Y-43162260D01*
X203415536Y-43151232D01*
X203122288Y-43175856D01*
X202873139Y-43249719D01*
X202668087Y-43372821D01*
X202515584Y-43535616D01*
X202424082Y-43732951D01*
X202393582Y-43964825D01*
X202438230Y-44253390D01*
X202572177Y-44464228D01*
X202727986Y-44572635D01*
X202952882Y-44668547D01*
X203246864Y-44751962D01*
X203597437Y-44831337D01*
X203860166Y-44903569D01*
X204092734Y-44990617D01*
X204295141Y-45092482D01*
X204467385Y-45209162D01*
X204609469Y-45340659D01*
X204748372Y-45530003D01*
X204847590Y-45750765D01*
X204907122Y-46002946D01*
X204926969Y-46286545D01*
X204909504Y-46554965D01*
X204857116Y-46796662D01*
X204769803Y-47011636D01*
X204647567Y-47199887D01*
X204490406Y-47361415D01*
X204299904Y-47494765D01*
X204077653Y-47598482D01*
X203823654Y-47672565D01*
X203537905Y-47717015D01*
X203220406Y-47731832D01*
X202988527Y-47723380D01*
X202755913Y-47698023D01*
X202522566Y-47655763D01*
X202288484Y-47598804D01*
X202053666Y-47524942D01*
X201818114Y-47434175D01*
X201818114Y-46723107D01*
X202066895Y-46869731D01*
X202306122Y-46987691D01*
X202535796Y-47076987D01*
X202763263Y-47139459D01*
X202991466Y-47176942D01*
X203220406Y-47189436D01*
X203459356Y-47175380D01*
X203670195Y-47133212D01*
X203852924Y-47062932D01*
X204007541Y-46964540D01*
X204163716Y-46792561D01*
X204257423Y-46580895D01*
X204288661Y-46329540D01*
X204266978Y-46102073D01*
X204201934Y-45913557D01*
X204093531Y-45763992D01*
X203933677Y-45643829D01*
X203709883Y-45543508D01*
X203422150Y-45463029D01*
X203064962Y-45380346D01*
X202804876Y-45311821D01*
X202574953Y-45230594D01*
X202375193Y-45136667D01*
X202205596Y-45030040D01*
X202066161Y-44910712D01*
X201930148Y-44740181D01*
X201832996Y-44542778D01*
X201774705Y-44318502D01*
X201755275Y-44067353D01*
X201773002Y-43813355D01*
X201826183Y-43580522D01*
X201914818Y-43368856D01*
X202038908Y-43178355D01*
X202198453Y-43009019D01*
X202388687Y-42864956D01*
X202602205Y-42752906D01*
X202839007Y-42672870D01*
X203099093Y-42624847D01*
X203382462Y-42608837D01*
X203575387Y-42616190D01*
X203774927Y-42638238D01*
X203981082Y-42674982D01*
X204194217Y-42724227D01*
X204414703Y-42788168D01*
X204642541Y-42866805D01*
G36*
X200214078Y-45171987D02*
G01*
X200911916Y-45171987D01*
X200905507Y-45484217D01*
X200886282Y-45775982D01*
X200854242Y-46047283D01*
X200809387Y-46298121D01*
X200751716Y-46528494D01*
X200681230Y-46738404D01*
X200597928Y-46927850D01*
X200501812Y-47096832D01*
X200354268Y-47290859D01*
X200182840Y-47449609D01*
X199987526Y-47573082D01*
X199768326Y-47661276D01*
X199525241Y-47714193D01*
X199258270Y-47731832D01*
X198991297Y-47714285D01*
X198748211Y-47661643D01*
X198529011Y-47573908D01*
X198333697Y-47451079D01*
X198162270Y-47293155D01*
X198014728Y-47100138D01*
X197919385Y-46931828D01*
X197836754Y-46742745D01*
X197766836Y-46532887D01*
X197709631Y-46302255D01*
X197665137Y-46050849D01*
X197633356Y-45778669D01*
X197614288Y-45485715D01*
X197607932Y-45171987D01*
X197614288Y-44858984D01*
X197633356Y-44566548D01*
X197665137Y-44294679D01*
X197709631Y-44043377D01*
X197766836Y-43812642D01*
X197836754Y-43602473D01*
X197919385Y-43412872D01*
X198014728Y-43243837D01*
X198163188Y-43049811D01*
X198335167Y-42891062D01*
X198530665Y-42767590D01*
X198749681Y-42679396D01*
X198992216Y-42626478D01*
X199258270Y-42608837D01*
X199525241Y-42626478D01*
X199768326Y-42679396D01*
X199987526Y-42767590D01*
X200182840Y-42891062D01*
X200354268Y-43049811D01*
X200501812Y-43243837D01*
X200597928Y-43412872D01*
X200681230Y-43602473D01*
X200751716Y-43812642D01*
X200809387Y-44043377D01*
X200854242Y-44294679D01*
X200886282Y-44566548D01*
X200905507Y-44858984D01*
X200911916Y-45171987D01*
X200214078Y-45171987D01*
X200207829Y-44826561D01*
X200189087Y-44515676D01*
X200157852Y-44239334D01*
X200114122Y-43997534D01*
X200057899Y-43790276D01*
X199989182Y-43617561D01*
X199860402Y-43413544D01*
X199695657Y-43267818D01*
X199494946Y-43180380D01*
X199258270Y-43151232D01*
X199022831Y-43180380D01*
X198822533Y-43267818D01*
X198657375Y-43413544D01*
X198527358Y-43617561D01*
X198459650Y-43790276D01*
X198404253Y-43997534D01*
X198361166Y-44239334D01*
X198330390Y-44515676D01*
X198311925Y-44826561D01*
X198305770Y-45171987D01*
X198311925Y-45516405D01*
X198330390Y-45826464D01*
X198361166Y-46102164D01*
X198404253Y-46343504D01*
X198459650Y-46550485D01*
X198527358Y-46723107D01*
X198657375Y-46927126D01*
X198822533Y-47072854D01*
X199022831Y-47160290D01*
X199258270Y-47189436D01*
X199494946Y-47160497D01*
X199695657Y-47073681D01*
X199860402Y-46928987D01*
X199989182Y-46726415D01*
X200057899Y-46553701D01*
X200114122Y-46346445D01*
X200157852Y-46104645D01*
X200189087Y-45828302D01*
X200207829Y-45517416D01*
X200214078Y-45171987D01*
G37*
X200214078Y-45171987D02*
X200911916Y-45171987D01*
X200905507Y-45484217D01*
X200886282Y-45775982D01*
X200854242Y-46047283D01*
X200809387Y-46298121D01*
X200751716Y-46528494D01*
X200681230Y-46738404D01*
X200597928Y-46927850D01*
X200501812Y-47096832D01*
X200354268Y-47290859D01*
X200182840Y-47449609D01*
X199987526Y-47573082D01*
X199768326Y-47661276D01*
X199525241Y-47714193D01*
X199258270Y-47731832D01*
X198991297Y-47714285D01*
X198748211Y-47661643D01*
X198529011Y-47573908D01*
X198333697Y-47451079D01*
X198162270Y-47293155D01*
X198014728Y-47100138D01*
X197919385Y-46931828D01*
X197836754Y-46742745D01*
X197766836Y-46532887D01*
X197709631Y-46302255D01*
X197665137Y-46050849D01*
X197633356Y-45778669D01*
X197614288Y-45485715D01*
X197607932Y-45171987D01*
X197614288Y-44858984D01*
X197633356Y-44566548D01*
X197665137Y-44294679D01*
X197709631Y-44043377D01*
X197766836Y-43812642D01*
X197836754Y-43602473D01*
X197919385Y-43412872D01*
X198014728Y-43243837D01*
X198163188Y-43049811D01*
X198335167Y-42891062D01*
X198530665Y-42767590D01*
X198749681Y-42679396D01*
X198992216Y-42626478D01*
X199258270Y-42608837D01*
X199525241Y-42626478D01*
X199768326Y-42679396D01*
X199987526Y-42767590D01*
X200182840Y-42891062D01*
X200354268Y-43049811D01*
X200501812Y-43243837D01*
X200597928Y-43412872D01*
X200681230Y-43602473D01*
X200751716Y-43812642D01*
X200809387Y-44043377D01*
X200854242Y-44294679D01*
X200886282Y-44566548D01*
X200905507Y-44858984D01*
X200911916Y-45171987D01*
X200214078Y-45171987D01*
X200207829Y-44826561D01*
X200189087Y-44515676D01*
X200157852Y-44239334D01*
X200114122Y-43997534D01*
X200057899Y-43790276D01*
X199989182Y-43617561D01*
X199860402Y-43413544D01*
X199695657Y-43267818D01*
X199494946Y-43180380D01*
X199258270Y-43151232D01*
X199022831Y-43180380D01*
X198822533Y-43267818D01*
X198657375Y-43413544D01*
X198527358Y-43617561D01*
X198459650Y-43790276D01*
X198404253Y-43997534D01*
X198361166Y-44239334D01*
X198330390Y-44515676D01*
X198311925Y-44826561D01*
X198305770Y-45171987D01*
X198311925Y-45516405D01*
X198330390Y-45826464D01*
X198361166Y-46102164D01*
X198404253Y-46343504D01*
X198459650Y-46550485D01*
X198527358Y-46723107D01*
X198657375Y-46927126D01*
X198822533Y-47072854D01*
X199022831Y-47160290D01*
X199258270Y-47189436D01*
X199494946Y-47160497D01*
X199695657Y-47073681D01*
X199860402Y-46928987D01*
X199989182Y-46726415D01*
X200057899Y-46553701D01*
X200114122Y-46346445D01*
X200157852Y-46104645D01*
X200189087Y-45828302D01*
X200207829Y-45517416D01*
X200214078Y-45171987D01*
G36*
X195328646Y-40266381D02*
G01*
X195328646Y-40689714D01*
X195328646Y-49447422D01*
X195328646Y-49870756D01*
X195751979Y-49870756D01*
X215728021Y-49870756D01*
X216151354Y-49870756D01*
X216151354Y-49447422D01*
X216151354Y-40266381D01*
X215322861Y-40266381D01*
X215304688Y-49024089D01*
X196175312Y-49024089D01*
X196175312Y-41113047D01*
X212451597Y-41113047D01*
X212451597Y-40266381D01*
X195751979Y-40266381D01*
X195328646Y-40266381D01*
G37*
X195328646Y-40266381D02*
X195328646Y-40689714D01*
X195328646Y-49447422D01*
X195328646Y-49870756D01*
X195751979Y-49870756D01*
X215728021Y-49870756D01*
X216151354Y-49870756D01*
X216151354Y-49447422D01*
X216151354Y-40266381D01*
X215322861Y-40266381D01*
X215304688Y-49024089D01*
X196175312Y-49024089D01*
X196175312Y-41113047D01*
X212451597Y-41113047D01*
X212451597Y-40266381D01*
X195751979Y-40266381D01*
X195328646Y-40266381D01*
D13*
%TO.C,U1*%
X63714000Y-98335000D02*
X63714000Y-97235000D01*
X62764000Y-98335000D02*
X63714000Y-98335000D01*
X62764000Y-99835000D02*
X62764000Y-98335000D01*
X72214000Y-98335000D02*
X72214000Y-93210000D01*
X73164000Y-98335000D02*
X72214000Y-98335000D01*
X73164000Y-99835000D02*
X73164000Y-98335000D01*
%TO.C,R23*%
X170441252Y-71680000D02*
X169918748Y-71680000D01*
X170441252Y-73100000D02*
X169918748Y-73100000D01*
%TO.C,R22*%
X170441252Y-69140000D02*
X169918748Y-69140000D01*
X170441252Y-70560000D02*
X169918748Y-70560000D01*
%TO.C,R21*%
X158878748Y-73100000D02*
X159401252Y-73100000D01*
X158878748Y-71680000D02*
X159401252Y-71680000D01*
%TO.C,R20*%
X134603748Y-53415000D02*
X135126252Y-53415000D01*
X134603748Y-51995000D02*
X135126252Y-51995000D01*
%TO.C,R19*%
X182955000Y-105916252D02*
X182955000Y-105393748D01*
X181535000Y-105916252D02*
X181535000Y-105393748D01*
%TO.C,R18*%
X185291252Y-71680000D02*
X184768748Y-71680000D01*
X185291252Y-73100000D02*
X184768748Y-73100000D01*
%TO.C,R17*%
X184741748Y-75640000D02*
X185264252Y-75640000D01*
X184741748Y-74220000D02*
X185264252Y-74220000D01*
%TO.C,R16*%
X185291252Y-69140000D02*
X184768748Y-69140000D01*
X185291252Y-70560000D02*
X184768748Y-70560000D01*
%TO.C,R15*%
X73735000Y-79881252D02*
X73735000Y-79358748D01*
X72315000Y-79881252D02*
X72315000Y-79358748D01*
%TO.C,R14*%
X77395000Y-79358748D02*
X77395000Y-79881252D01*
X78815000Y-79358748D02*
X78815000Y-79881252D01*
%TO.C,R13*%
X185291252Y-79300000D02*
X184768748Y-79300000D01*
X185291252Y-80720000D02*
X184768748Y-80720000D01*
%TO.C,R12*%
X184768748Y-78180000D02*
X185291252Y-78180000D01*
X184768748Y-76760000D02*
X185291252Y-76760000D01*
%TO.C,R11*%
X74855000Y-79358748D02*
X74855000Y-79881252D01*
X76275000Y-79358748D02*
X76275000Y-79881252D01*
%TO.C,R10*%
X185291252Y-81840000D02*
X184768748Y-81840000D01*
X185291252Y-83260000D02*
X184768748Y-83260000D01*
%TO.C,R9*%
X75490000Y-94743748D02*
X75490000Y-95266252D01*
X76910000Y-94743748D02*
X76910000Y-95266252D01*
%TO.C,Q1*%
X188990000Y-106990000D02*
X187530000Y-106990000D01*
X188990000Y-103830000D02*
X186830000Y-103830000D01*
X188990000Y-103830000D02*
X188990000Y-104760000D01*
X188990000Y-106990000D02*
X188990000Y-106060000D01*
%TO.C,C8*%
X75490000Y-101973748D02*
X75490000Y-102496252D01*
X76910000Y-101973748D02*
X76910000Y-102496252D01*
%TO.C,C7*%
X62213748Y-69290000D02*
X62736252Y-69290000D01*
X62213748Y-67870000D02*
X62736252Y-67870000D01*
%TO.C,A1*%
X163580000Y-67180000D02*
X161040000Y-64640000D01*
X175010000Y-67180000D02*
X163580000Y-67180000D01*
X176660000Y-68830000D02*
X175010000Y-67180000D01*
X176660000Y-133480000D02*
X176660000Y-68830000D01*
X167130000Y-133480000D02*
X176660000Y-133480000D01*
X167130000Y-139830000D02*
X167130000Y-133480000D01*
X155450000Y-139830000D02*
X167130000Y-139830000D01*
X155450000Y-133480000D02*
X155450000Y-139830000D01*
X135380000Y-133480000D02*
X155450000Y-133480000D01*
X135380000Y-135380000D02*
X135380000Y-133480000D01*
X126240000Y-135380000D02*
X135380000Y-135380000D01*
X126240000Y-133480000D02*
X126240000Y-135380000D01*
X123060000Y-133480000D02*
X126240000Y-133480000D01*
X123060000Y-67180000D02*
X123060000Y-133480000D01*
X125730000Y-67180000D02*
X123060000Y-67180000D01*
X128270000Y-64640000D02*
X125730000Y-67180000D01*
X161040000Y-64640000D02*
X128270000Y-64640000D01*
%TO.C,A2*%
X186560000Y-125600000D02*
X186560000Y-138430000D01*
X207140000Y-125600000D02*
X186560000Y-125600000D01*
X207140000Y-141100000D02*
X207140000Y-125600000D01*
X189230000Y-141100000D02*
X207140000Y-141100000D01*
X189230000Y-138430000D02*
X189230000Y-141100000D01*
X186560000Y-138430000D02*
X189230000Y-138430000D01*
X186560000Y-141100000D02*
X187960000Y-141100000D01*
X186560000Y-139700000D02*
X186560000Y-141100000D01*
X189230000Y-138430000D02*
X207140000Y-138430000D01*
X186560000Y-128270000D02*
X207140000Y-128270000D01*
%TO.C,C1*%
X71295000Y-114580302D02*
X70495000Y-114580302D01*
X70895000Y-114180302D02*
X70895000Y-114980302D01*
X69113000Y-122671000D02*
X68047000Y-122671000D01*
X69348000Y-122631000D02*
X67812000Y-122631000D01*
X69528000Y-122591000D02*
X67632000Y-122591000D01*
X69678000Y-122551000D02*
X67482000Y-122551000D01*
X69809000Y-122511000D02*
X67351000Y-122511000D01*
X69926000Y-122471000D02*
X67234000Y-122471000D01*
X70033000Y-122431000D02*
X67127000Y-122431000D01*
X70132000Y-122391000D02*
X67028000Y-122391000D01*
X70225000Y-122351000D02*
X66935000Y-122351000D01*
X70311000Y-122311000D02*
X66849000Y-122311000D01*
X70393000Y-122271000D02*
X66767000Y-122271000D01*
X70470000Y-122231000D02*
X66690000Y-122231000D01*
X70544000Y-122191000D02*
X66616000Y-122191000D01*
X70614000Y-122151000D02*
X66546000Y-122151000D01*
X70682000Y-122111000D02*
X66478000Y-122111000D01*
X70746000Y-122071000D02*
X66414000Y-122071000D01*
X70808000Y-122031000D02*
X66352000Y-122031000D01*
X70867000Y-121991000D02*
X66293000Y-121991000D01*
X70925000Y-121951000D02*
X66235000Y-121951000D01*
X70980000Y-121911000D02*
X66180000Y-121911000D01*
X71034000Y-121871000D02*
X66126000Y-121871000D01*
X71085000Y-121831000D02*
X66075000Y-121831000D01*
X71136000Y-121791000D02*
X66024000Y-121791000D01*
X71184000Y-121751000D02*
X65976000Y-121751000D01*
X71231000Y-121711000D02*
X65929000Y-121711000D01*
X71277000Y-121671000D02*
X65883000Y-121671000D01*
X71321000Y-121631000D02*
X65839000Y-121631000D01*
X71364000Y-121591000D02*
X65796000Y-121591000D01*
X71406000Y-121551000D02*
X65754000Y-121551000D01*
X71447000Y-121511000D02*
X65713000Y-121511000D01*
X71487000Y-121471000D02*
X65673000Y-121471000D01*
X71525000Y-121431000D02*
X65635000Y-121431000D01*
X71563000Y-121391000D02*
X65597000Y-121391000D01*
X67540000Y-121351000D02*
X65561000Y-121351000D01*
X71599000Y-121351000D02*
X69620000Y-121351000D01*
X67540000Y-121311000D02*
X65525000Y-121311000D01*
X71635000Y-121311000D02*
X69620000Y-121311000D01*
X67540000Y-121271000D02*
X65490000Y-121271000D01*
X71670000Y-121271000D02*
X69620000Y-121271000D01*
X67540000Y-121231000D02*
X65456000Y-121231000D01*
X71704000Y-121231000D02*
X69620000Y-121231000D01*
X67540000Y-121191000D02*
X65424000Y-121191000D01*
X71736000Y-121191000D02*
X69620000Y-121191000D01*
X67540000Y-121151000D02*
X65391000Y-121151000D01*
X71769000Y-121151000D02*
X69620000Y-121151000D01*
X67540000Y-121111000D02*
X65360000Y-121111000D01*
X71800000Y-121111000D02*
X69620000Y-121111000D01*
X67540000Y-121071000D02*
X65330000Y-121071000D01*
X71830000Y-121071000D02*
X69620000Y-121071000D01*
X67540000Y-121031000D02*
X65300000Y-121031000D01*
X71860000Y-121031000D02*
X69620000Y-121031000D01*
X67540000Y-120991000D02*
X65271000Y-120991000D01*
X71889000Y-120991000D02*
X69620000Y-120991000D01*
X67540000Y-120951000D02*
X65242000Y-120951000D01*
X71918000Y-120951000D02*
X69620000Y-120951000D01*
X67540000Y-120911000D02*
X65215000Y-120911000D01*
X71945000Y-120911000D02*
X69620000Y-120911000D01*
X67540000Y-120871000D02*
X65188000Y-120871000D01*
X71972000Y-120871000D02*
X69620000Y-120871000D01*
X67540000Y-120831000D02*
X65162000Y-120831000D01*
X71998000Y-120831000D02*
X69620000Y-120831000D01*
X67540000Y-120791000D02*
X65136000Y-120791000D01*
X72024000Y-120791000D02*
X69620000Y-120791000D01*
X67540000Y-120751000D02*
X65111000Y-120751000D01*
X72049000Y-120751000D02*
X69620000Y-120751000D01*
X67540000Y-120711000D02*
X65087000Y-120711000D01*
X72073000Y-120711000D02*
X69620000Y-120711000D01*
X67540000Y-120671000D02*
X65063000Y-120671000D01*
X72097000Y-120671000D02*
X69620000Y-120671000D01*
X67540000Y-120631000D02*
X65040000Y-120631000D01*
X72120000Y-120631000D02*
X69620000Y-120631000D01*
X67540000Y-120591000D02*
X65018000Y-120591000D01*
X72142000Y-120591000D02*
X69620000Y-120591000D01*
X67540000Y-120551000D02*
X64996000Y-120551000D01*
X72164000Y-120551000D02*
X69620000Y-120551000D01*
X67540000Y-120511000D02*
X64974000Y-120511000D01*
X72186000Y-120511000D02*
X69620000Y-120511000D01*
X67540000Y-120471000D02*
X64953000Y-120471000D01*
X72207000Y-120471000D02*
X69620000Y-120471000D01*
X67540000Y-120431000D02*
X64933000Y-120431000D01*
X72227000Y-120431000D02*
X69620000Y-120431000D01*
X67540000Y-120391000D02*
X64914000Y-120391000D01*
X72246000Y-120391000D02*
X69620000Y-120391000D01*
X67540000Y-120351000D02*
X64894000Y-120351000D01*
X72266000Y-120351000D02*
X69620000Y-120351000D01*
X67540000Y-120311000D02*
X64876000Y-120311000D01*
X72284000Y-120311000D02*
X69620000Y-120311000D01*
X67540000Y-120271000D02*
X64858000Y-120271000D01*
X72302000Y-120271000D02*
X69620000Y-120271000D01*
X67540000Y-120231000D02*
X64840000Y-120231000D01*
X72320000Y-120231000D02*
X69620000Y-120231000D01*
X67540000Y-120191000D02*
X64823000Y-120191000D01*
X72337000Y-120191000D02*
X69620000Y-120191000D01*
X67540000Y-120151000D02*
X64806000Y-120151000D01*
X72354000Y-120151000D02*
X69620000Y-120151000D01*
X67540000Y-120111000D02*
X64790000Y-120111000D01*
X72370000Y-120111000D02*
X69620000Y-120111000D01*
X67540000Y-120071000D02*
X64775000Y-120071000D01*
X72385000Y-120071000D02*
X69620000Y-120071000D01*
X67540000Y-120031000D02*
X64759000Y-120031000D01*
X72401000Y-120031000D02*
X69620000Y-120031000D01*
X67540000Y-119991000D02*
X64745000Y-119991000D01*
X72415000Y-119991000D02*
X69620000Y-119991000D01*
X67540000Y-119951000D02*
X64730000Y-119951000D01*
X72430000Y-119951000D02*
X69620000Y-119951000D01*
X67540000Y-119911000D02*
X64717000Y-119911000D01*
X72443000Y-119911000D02*
X69620000Y-119911000D01*
X67540000Y-119871000D02*
X64703000Y-119871000D01*
X72457000Y-119871000D02*
X69620000Y-119871000D01*
X67540000Y-119831000D02*
X64691000Y-119831000D01*
X72469000Y-119831000D02*
X69620000Y-119831000D01*
X67540000Y-119791000D02*
X64678000Y-119791000D01*
X72482000Y-119791000D02*
X69620000Y-119791000D01*
X67540000Y-119751000D02*
X64666000Y-119751000D01*
X72494000Y-119751000D02*
X69620000Y-119751000D01*
X67540000Y-119711000D02*
X64655000Y-119711000D01*
X72505000Y-119711000D02*
X69620000Y-119711000D01*
X67540000Y-119671000D02*
X64644000Y-119671000D01*
X72516000Y-119671000D02*
X69620000Y-119671000D01*
X67540000Y-119631000D02*
X64633000Y-119631000D01*
X72527000Y-119631000D02*
X69620000Y-119631000D01*
X67540000Y-119591000D02*
X64623000Y-119591000D01*
X72537000Y-119591000D02*
X69620000Y-119591000D01*
X67540000Y-119551000D02*
X64613000Y-119551000D01*
X72547000Y-119551000D02*
X69620000Y-119551000D01*
X67540000Y-119511000D02*
X64604000Y-119511000D01*
X72556000Y-119511000D02*
X69620000Y-119511000D01*
X67540000Y-119471000D02*
X64595000Y-119471000D01*
X72565000Y-119471000D02*
X69620000Y-119471000D01*
X67540000Y-119431000D02*
X64586000Y-119431000D01*
X72574000Y-119431000D02*
X69620000Y-119431000D01*
X67540000Y-119391000D02*
X64578000Y-119391000D01*
X72582000Y-119391000D02*
X69620000Y-119391000D01*
X67540000Y-119351000D02*
X64570000Y-119351000D01*
X72590000Y-119351000D02*
X69620000Y-119351000D01*
X67540000Y-119311000D02*
X64563000Y-119311000D01*
X72597000Y-119311000D02*
X69620000Y-119311000D01*
X72604000Y-119270000D02*
X64556000Y-119270000D01*
X72610000Y-119230000D02*
X64550000Y-119230000D01*
X72617000Y-119190000D02*
X64543000Y-119190000D01*
X72622000Y-119150000D02*
X64538000Y-119150000D01*
X72628000Y-119110000D02*
X64532000Y-119110000D01*
X72632000Y-119070000D02*
X64528000Y-119070000D01*
X72637000Y-119030000D02*
X64523000Y-119030000D01*
X72641000Y-118990000D02*
X64519000Y-118990000D01*
X72645000Y-118950000D02*
X64515000Y-118950000D01*
X72648000Y-118910000D02*
X64512000Y-118910000D01*
X72651000Y-118870000D02*
X64509000Y-118870000D01*
X72654000Y-118830000D02*
X64506000Y-118830000D01*
X72656000Y-118790000D02*
X64504000Y-118790000D01*
X72657000Y-118750000D02*
X64503000Y-118750000D01*
X72659000Y-118710000D02*
X64501000Y-118710000D01*
X72660000Y-118670000D02*
X64500000Y-118670000D01*
X72660000Y-118630000D02*
X64500000Y-118630000D01*
X72660000Y-118590000D02*
X64500000Y-118590000D01*
X72700000Y-118590000D02*
G75*
G03*
X72700000Y-118590000I-4120000J0D01*
G01*
%TO.C,C2*%
X84784491Y-68855000D02*
X84784491Y-67255000D01*
X85584491Y-68055000D02*
X83984491Y-68055000D01*
X68814000Y-64265000D02*
X68814000Y-62735000D01*
X68854000Y-64598000D02*
X68854000Y-62402000D01*
X68894000Y-64851000D02*
X68894000Y-62149000D01*
X68934000Y-65064000D02*
X68934000Y-61936000D01*
X68974000Y-65252000D02*
X68974000Y-61748000D01*
X69014000Y-65420000D02*
X69014000Y-61580000D01*
X69054000Y-65574000D02*
X69054000Y-61426000D01*
X69094000Y-65718000D02*
X69094000Y-61282000D01*
X69134000Y-65851000D02*
X69134000Y-61149000D01*
X69174000Y-65978000D02*
X69174000Y-61022000D01*
X69214000Y-66097000D02*
X69214000Y-60903000D01*
X69254000Y-66211000D02*
X69254000Y-60789000D01*
X69294000Y-66320000D02*
X69294000Y-60680000D01*
X69334000Y-66424000D02*
X69334000Y-60576000D01*
X69374000Y-66524000D02*
X69374000Y-60476000D01*
X69414000Y-66620000D02*
X69414000Y-60380000D01*
X69454000Y-66713000D02*
X69454000Y-60287000D01*
X69494000Y-66803000D02*
X69494000Y-60197000D01*
X69534000Y-66890000D02*
X69534000Y-60110000D01*
X69574000Y-66975000D02*
X69574000Y-60025000D01*
X69614000Y-67057000D02*
X69614000Y-59943000D01*
X69654000Y-67137000D02*
X69654000Y-59863000D01*
X69694000Y-67215000D02*
X69694000Y-59785000D01*
X69734000Y-67290000D02*
X69734000Y-59710000D01*
X69774000Y-67364000D02*
X69774000Y-59636000D01*
X69814000Y-67436000D02*
X69814000Y-59564000D01*
X69854000Y-67507000D02*
X69854000Y-59493000D01*
X69894000Y-67576000D02*
X69894000Y-59424000D01*
X69934000Y-67643000D02*
X69934000Y-59357000D01*
X69974000Y-67709000D02*
X69974000Y-59291000D01*
X70014000Y-67773000D02*
X70014000Y-59227000D01*
X70054000Y-67836000D02*
X70054000Y-59164000D01*
X70094000Y-67898000D02*
X70094000Y-59102000D01*
X70134000Y-67959000D02*
X70134000Y-59041000D01*
X70174000Y-68019000D02*
X70174000Y-58981000D01*
X70214000Y-68077000D02*
X70214000Y-58923000D01*
X70254000Y-68134000D02*
X70254000Y-58866000D01*
X70294000Y-68191000D02*
X70294000Y-58809000D01*
X70334000Y-68246000D02*
X70334000Y-58754000D01*
X70374000Y-68300000D02*
X70374000Y-58700000D01*
X70414000Y-68354000D02*
X70414000Y-58646000D01*
X70454000Y-68406000D02*
X70454000Y-58594000D01*
X70494000Y-68458000D02*
X70494000Y-58542000D01*
X70534000Y-68509000D02*
X70534000Y-58491000D01*
X70574000Y-68559000D02*
X70574000Y-58441000D01*
X70614000Y-68608000D02*
X70614000Y-58392000D01*
X70654000Y-68656000D02*
X70654000Y-58344000D01*
X70694000Y-68704000D02*
X70694000Y-58296000D01*
X70734000Y-68751000D02*
X70734000Y-58249000D01*
X70774000Y-68797000D02*
X70774000Y-58203000D01*
X70814000Y-68843000D02*
X70814000Y-58157000D01*
X70854000Y-68888000D02*
X70854000Y-58112000D01*
X70894000Y-68932000D02*
X70894000Y-58068000D01*
X70934000Y-68975000D02*
X70934000Y-58025000D01*
X70974000Y-69018000D02*
X70974000Y-57982000D01*
X71014000Y-69060000D02*
X71014000Y-57940000D01*
X71054000Y-69102000D02*
X71054000Y-57898000D01*
X71094000Y-69143000D02*
X71094000Y-57857000D01*
X71134000Y-69184000D02*
X71134000Y-57816000D01*
X71174000Y-69224000D02*
X71174000Y-57776000D01*
X71214000Y-69263000D02*
X71214000Y-57737000D01*
X71254000Y-69302000D02*
X71254000Y-57698000D01*
X71294000Y-69340000D02*
X71294000Y-57660000D01*
X71334000Y-69378000D02*
X71334000Y-57622000D01*
X71374000Y-69416000D02*
X71374000Y-57584000D01*
X71414000Y-69452000D02*
X71414000Y-57548000D01*
X71454000Y-69489000D02*
X71454000Y-57511000D01*
X71494000Y-69525000D02*
X71494000Y-57475000D01*
X71534000Y-69560000D02*
X71534000Y-57440000D01*
X71574000Y-69595000D02*
X71574000Y-57405000D01*
X71614000Y-69629000D02*
X71614000Y-57371000D01*
X71654000Y-69663000D02*
X71654000Y-57337000D01*
X71694000Y-69697000D02*
X71694000Y-57303000D01*
X71734000Y-62060000D02*
X71734000Y-57270000D01*
X71734000Y-69730000D02*
X71734000Y-64940000D01*
X71774000Y-62060000D02*
X71774000Y-57237000D01*
X71774000Y-69763000D02*
X71774000Y-64940000D01*
X71814000Y-62060000D02*
X71814000Y-57205000D01*
X71814000Y-69795000D02*
X71814000Y-64940000D01*
X71854000Y-62060000D02*
X71854000Y-57173000D01*
X71854000Y-69827000D02*
X71854000Y-64940000D01*
X71894000Y-62060000D02*
X71894000Y-57142000D01*
X71894000Y-69858000D02*
X71894000Y-64940000D01*
X71934000Y-62060000D02*
X71934000Y-57110000D01*
X71934000Y-69890000D02*
X71934000Y-64940000D01*
X71974000Y-62060000D02*
X71974000Y-57080000D01*
X71974000Y-69920000D02*
X71974000Y-64940000D01*
X72014000Y-62060000D02*
X72014000Y-57050000D01*
X72014000Y-69950000D02*
X72014000Y-64940000D01*
X72054000Y-62060000D02*
X72054000Y-57020000D01*
X72054000Y-69980000D02*
X72054000Y-64940000D01*
X72094000Y-62060000D02*
X72094000Y-56990000D01*
X72094000Y-70010000D02*
X72094000Y-64940000D01*
X72134000Y-62060000D02*
X72134000Y-56961000D01*
X72134000Y-70039000D02*
X72134000Y-64940000D01*
X72174000Y-62060000D02*
X72174000Y-56932000D01*
X72174000Y-70068000D02*
X72174000Y-64940000D01*
X72214000Y-62060000D02*
X72214000Y-56904000D01*
X72214000Y-70096000D02*
X72214000Y-64940000D01*
X72254000Y-62060000D02*
X72254000Y-56876000D01*
X72254000Y-70124000D02*
X72254000Y-64940000D01*
X72294000Y-62060000D02*
X72294000Y-56848000D01*
X72294000Y-70152000D02*
X72294000Y-64940000D01*
X72334000Y-62060000D02*
X72334000Y-56821000D01*
X72334000Y-70179000D02*
X72334000Y-64940000D01*
X72374000Y-62060000D02*
X72374000Y-56794000D01*
X72374000Y-70206000D02*
X72374000Y-64940000D01*
X72414000Y-62060000D02*
X72414000Y-56767000D01*
X72414000Y-70233000D02*
X72414000Y-64940000D01*
X72454000Y-62060000D02*
X72454000Y-56741000D01*
X72454000Y-70259000D02*
X72454000Y-64940000D01*
X72494000Y-62060000D02*
X72494000Y-56715000D01*
X72494000Y-70285000D02*
X72494000Y-64940000D01*
X72534000Y-62060000D02*
X72534000Y-56689000D01*
X72534000Y-70311000D02*
X72534000Y-64940000D01*
X72574000Y-62060000D02*
X72574000Y-56664000D01*
X72574000Y-70336000D02*
X72574000Y-64940000D01*
X72614000Y-62060000D02*
X72614000Y-56639000D01*
X72614000Y-70361000D02*
X72614000Y-64940000D01*
X72654000Y-62060000D02*
X72654000Y-56614000D01*
X72654000Y-70386000D02*
X72654000Y-64940000D01*
X72694000Y-62060000D02*
X72694000Y-56590000D01*
X72694000Y-70410000D02*
X72694000Y-64940000D01*
X72734000Y-62060000D02*
X72734000Y-56566000D01*
X72734000Y-70434000D02*
X72734000Y-64940000D01*
X72774000Y-62060000D02*
X72774000Y-56542000D01*
X72774000Y-70458000D02*
X72774000Y-64940000D01*
X72814000Y-62060000D02*
X72814000Y-56519000D01*
X72814000Y-70481000D02*
X72814000Y-64940000D01*
X72854000Y-62060000D02*
X72854000Y-56496000D01*
X72854000Y-70504000D02*
X72854000Y-64940000D01*
X72894000Y-62060000D02*
X72894000Y-56473000D01*
X72894000Y-70527000D02*
X72894000Y-64940000D01*
X72934000Y-62060000D02*
X72934000Y-56451000D01*
X72934000Y-70549000D02*
X72934000Y-64940000D01*
X72974000Y-62060000D02*
X72974000Y-56428000D01*
X72974000Y-70572000D02*
X72974000Y-64940000D01*
X73014000Y-62060000D02*
X73014000Y-56406000D01*
X73014000Y-70594000D02*
X73014000Y-64940000D01*
X73054000Y-62060000D02*
X73054000Y-56385000D01*
X73054000Y-70615000D02*
X73054000Y-64940000D01*
X73094000Y-62060000D02*
X73094000Y-56364000D01*
X73094000Y-70636000D02*
X73094000Y-64940000D01*
X73134000Y-62060000D02*
X73134000Y-56343000D01*
X73134000Y-70657000D02*
X73134000Y-64940000D01*
X73174000Y-62060000D02*
X73174000Y-56322000D01*
X73174000Y-70678000D02*
X73174000Y-64940000D01*
X73214000Y-62060000D02*
X73214000Y-56301000D01*
X73214000Y-70699000D02*
X73214000Y-64940000D01*
X73254000Y-62060000D02*
X73254000Y-56281000D01*
X73254000Y-70719000D02*
X73254000Y-64940000D01*
X73294000Y-62060000D02*
X73294000Y-56261000D01*
X73294000Y-70739000D02*
X73294000Y-64940000D01*
X73334000Y-62060000D02*
X73334000Y-56242000D01*
X73334000Y-70758000D02*
X73334000Y-64940000D01*
X73374000Y-62060000D02*
X73374000Y-56222000D01*
X73374000Y-70778000D02*
X73374000Y-64940000D01*
X73414000Y-62060000D02*
X73414000Y-56203000D01*
X73414000Y-70797000D02*
X73414000Y-64940000D01*
X73454000Y-62060000D02*
X73454000Y-56184000D01*
X73454000Y-70816000D02*
X73454000Y-64940000D01*
X73494000Y-62060000D02*
X73494000Y-56166000D01*
X73494000Y-70834000D02*
X73494000Y-64940000D01*
X73534000Y-62060000D02*
X73534000Y-56147000D01*
X73534000Y-70853000D02*
X73534000Y-64940000D01*
X73574000Y-62060000D02*
X73574000Y-56129000D01*
X73574000Y-70871000D02*
X73574000Y-64940000D01*
X73614000Y-62060000D02*
X73614000Y-56111000D01*
X73614000Y-70889000D02*
X73614000Y-64940000D01*
X73654000Y-62060000D02*
X73654000Y-56094000D01*
X73654000Y-70906000D02*
X73654000Y-64940000D01*
X73694000Y-62060000D02*
X73694000Y-56077000D01*
X73694000Y-70923000D02*
X73694000Y-64940000D01*
X73734000Y-62060000D02*
X73734000Y-56060000D01*
X73734000Y-70940000D02*
X73734000Y-64940000D01*
X73774000Y-62060000D02*
X73774000Y-56043000D01*
X73774000Y-70957000D02*
X73774000Y-64940000D01*
X73814000Y-62060000D02*
X73814000Y-56026000D01*
X73814000Y-70974000D02*
X73814000Y-64940000D01*
X73854000Y-62060000D02*
X73854000Y-56010000D01*
X73854000Y-70990000D02*
X73854000Y-64940000D01*
X73894000Y-62060000D02*
X73894000Y-55994000D01*
X73894000Y-71006000D02*
X73894000Y-64940000D01*
X73934000Y-62060000D02*
X73934000Y-55978000D01*
X73934000Y-71022000D02*
X73934000Y-64940000D01*
X73974000Y-62060000D02*
X73974000Y-55963000D01*
X73974000Y-71037000D02*
X73974000Y-64940000D01*
X74014000Y-62060000D02*
X74014000Y-55947000D01*
X74014000Y-71053000D02*
X74014000Y-64940000D01*
X74054000Y-62060000D02*
X74054000Y-55932000D01*
X74054000Y-71068000D02*
X74054000Y-64940000D01*
X74094000Y-62060000D02*
X74094000Y-55918000D01*
X74094000Y-71082000D02*
X74094000Y-64940000D01*
X74134000Y-62060000D02*
X74134000Y-55903000D01*
X74134000Y-71097000D02*
X74134000Y-64940000D01*
X74174000Y-62060000D02*
X74174000Y-55889000D01*
X74174000Y-71111000D02*
X74174000Y-64940000D01*
X74214000Y-62060000D02*
X74214000Y-55875000D01*
X74214000Y-71125000D02*
X74214000Y-64940000D01*
X74254000Y-62060000D02*
X74254000Y-55861000D01*
X74254000Y-71139000D02*
X74254000Y-64940000D01*
X74294000Y-62060000D02*
X74294000Y-55847000D01*
X74294000Y-71153000D02*
X74294000Y-64940000D01*
X74334000Y-62060000D02*
X74334000Y-55834000D01*
X74334000Y-71166000D02*
X74334000Y-64940000D01*
X74374000Y-62060000D02*
X74374000Y-55820000D01*
X74374000Y-71180000D02*
X74374000Y-64940000D01*
X74414000Y-62060000D02*
X74414000Y-55807000D01*
X74414000Y-71193000D02*
X74414000Y-64940000D01*
X74454000Y-62060000D02*
X74454000Y-55795000D01*
X74454000Y-71205000D02*
X74454000Y-64940000D01*
X74494000Y-62060000D02*
X74494000Y-55782000D01*
X74494000Y-71218000D02*
X74494000Y-64940000D01*
X74534000Y-62060000D02*
X74534000Y-55770000D01*
X74534000Y-71230000D02*
X74534000Y-64940000D01*
X74574000Y-62060000D02*
X74574000Y-55758000D01*
X74574000Y-71242000D02*
X74574000Y-64940000D01*
X74614000Y-71254000D02*
X74614000Y-55746000D01*
X74654000Y-71265000D02*
X74654000Y-55735000D01*
X74694000Y-71277000D02*
X74694000Y-55723000D01*
X74734000Y-71288000D02*
X74734000Y-55712000D01*
X74774000Y-71299000D02*
X74774000Y-55701000D01*
X74814000Y-71310000D02*
X74814000Y-55690000D01*
X74854000Y-71320000D02*
X74854000Y-55680000D01*
X74894000Y-71330000D02*
X74894000Y-55670000D01*
X74934000Y-71340000D02*
X74934000Y-55660000D01*
X74974000Y-71350000D02*
X74974000Y-55650000D01*
X75014000Y-71360000D02*
X75014000Y-55640000D01*
X75054000Y-71369000D02*
X75054000Y-55631000D01*
X75094000Y-71378000D02*
X75094000Y-55622000D01*
X75134000Y-71387000D02*
X75134000Y-55613000D01*
X75174000Y-71396000D02*
X75174000Y-55604000D01*
X75214000Y-71405000D02*
X75214000Y-55595000D01*
X75254000Y-71413000D02*
X75254000Y-55587000D01*
X75294000Y-71421000D02*
X75294000Y-55579000D01*
X75334000Y-71429000D02*
X75334000Y-55571000D01*
X75374000Y-71437000D02*
X75374000Y-55563000D01*
X75414000Y-71444000D02*
X75414000Y-55556000D01*
X75454000Y-71452000D02*
X75454000Y-55548000D01*
X75494000Y-71459000D02*
X75494000Y-55541000D01*
X75534000Y-71466000D02*
X75534000Y-55534000D01*
X75574000Y-71472000D02*
X75574000Y-55528000D01*
X75614000Y-71479000D02*
X75614000Y-55521000D01*
X75654000Y-71485000D02*
X75654000Y-55515000D01*
X75694000Y-71491000D02*
X75694000Y-55509000D01*
X75734000Y-71497000D02*
X75734000Y-55503000D01*
X75774000Y-71503000D02*
X75774000Y-55497000D01*
X75814000Y-71508000D02*
X75814000Y-55492000D01*
X75854000Y-71514000D02*
X75854000Y-55486000D01*
X75894000Y-71519000D02*
X75894000Y-55481000D01*
X75934000Y-71524000D02*
X75934000Y-55476000D01*
X75974000Y-71528000D02*
X75974000Y-55472000D01*
X76014000Y-71533000D02*
X76014000Y-55467000D01*
X76054000Y-71537000D02*
X76054000Y-55463000D01*
X76094000Y-71541000D02*
X76094000Y-55459000D01*
X76134000Y-71545000D02*
X76134000Y-55455000D01*
X76174000Y-71549000D02*
X76174000Y-55451000D01*
X76215000Y-71552000D02*
X76215000Y-55448000D01*
X76255000Y-71555000D02*
X76255000Y-55445000D01*
X76295000Y-71558000D02*
X76295000Y-55442000D01*
X76335000Y-71561000D02*
X76335000Y-55439000D01*
X76375000Y-71564000D02*
X76375000Y-55436000D01*
X76415000Y-71566000D02*
X76415000Y-55434000D01*
X76455000Y-71569000D02*
X76455000Y-55431000D01*
X76495000Y-71571000D02*
X76495000Y-55429000D01*
X76535000Y-71573000D02*
X76535000Y-55427000D01*
X76575000Y-71574000D02*
X76575000Y-55426000D01*
X76615000Y-71576000D02*
X76615000Y-55424000D01*
X76655000Y-71577000D02*
X76655000Y-55423000D01*
X76695000Y-71578000D02*
X76695000Y-55422000D01*
X76735000Y-71579000D02*
X76735000Y-55421000D01*
X76775000Y-71580000D02*
X76775000Y-55420000D01*
X76815000Y-71580000D02*
X76815000Y-55420000D01*
X76855000Y-71580000D02*
X76855000Y-55420000D01*
X76895000Y-71581000D02*
X76895000Y-55419000D01*
X85015000Y-63500000D02*
G75*
G03*
X85015000Y-63500000I-8120000J0D01*
G01*
%TO.C,C3*%
X183440000Y-66301252D02*
X183440000Y-65778748D01*
X184860000Y-66301252D02*
X184860000Y-65778748D01*
%TO.C,C4*%
X126983748Y-40080000D02*
X127506252Y-40080000D01*
X126983748Y-38660000D02*
X127506252Y-38660000D01*
%TO.C,C5*%
X216479699Y-133505000D02*
G75*
G03*
X216479699Y-133505000I-4120000J0D01*
G01*
X208279699Y-133505000D02*
X216439699Y-133505000D01*
X208279699Y-133465000D02*
X216439699Y-133465000D01*
X208279699Y-133425000D02*
X216439699Y-133425000D01*
X208280699Y-133385000D02*
X216438699Y-133385000D01*
X208282699Y-133345000D02*
X216436699Y-133345000D01*
X208283699Y-133305000D02*
X216435699Y-133305000D01*
X208285699Y-133265000D02*
X216433699Y-133265000D01*
X208288699Y-133225000D02*
X216430699Y-133225000D01*
X208291699Y-133185000D02*
X216427699Y-133185000D01*
X208294699Y-133145000D02*
X216424699Y-133145000D01*
X208298699Y-133105000D02*
X216420699Y-133105000D01*
X208302699Y-133065000D02*
X216416699Y-133065000D01*
X208307699Y-133025000D02*
X216411699Y-133025000D01*
X208311699Y-132985000D02*
X216407699Y-132985000D01*
X208317699Y-132945000D02*
X216401699Y-132945000D01*
X208322699Y-132905000D02*
X216396699Y-132905000D01*
X208329699Y-132865000D02*
X216389699Y-132865000D01*
X208335699Y-132825000D02*
X216383699Y-132825000D01*
X208342699Y-132784000D02*
X211319699Y-132784000D01*
X213399699Y-132784000D02*
X216376699Y-132784000D01*
X208349699Y-132744000D02*
X211319699Y-132744000D01*
X213399699Y-132744000D02*
X216369699Y-132744000D01*
X208357699Y-132704000D02*
X211319699Y-132704000D01*
X213399699Y-132704000D02*
X216361699Y-132704000D01*
X208365699Y-132664000D02*
X211319699Y-132664000D01*
X213399699Y-132664000D02*
X216353699Y-132664000D01*
X208374699Y-132624000D02*
X211319699Y-132624000D01*
X213399699Y-132624000D02*
X216344699Y-132624000D01*
X208383699Y-132584000D02*
X211319699Y-132584000D01*
X213399699Y-132584000D02*
X216335699Y-132584000D01*
X208392699Y-132544000D02*
X211319699Y-132544000D01*
X213399699Y-132544000D02*
X216326699Y-132544000D01*
X208402699Y-132504000D02*
X211319699Y-132504000D01*
X213399699Y-132504000D02*
X216316699Y-132504000D01*
X208412699Y-132464000D02*
X211319699Y-132464000D01*
X213399699Y-132464000D02*
X216306699Y-132464000D01*
X208423699Y-132424000D02*
X211319699Y-132424000D01*
X213399699Y-132424000D02*
X216295699Y-132424000D01*
X208434699Y-132384000D02*
X211319699Y-132384000D01*
X213399699Y-132384000D02*
X216284699Y-132384000D01*
X208445699Y-132344000D02*
X211319699Y-132344000D01*
X213399699Y-132344000D02*
X216273699Y-132344000D01*
X208457699Y-132304000D02*
X211319699Y-132304000D01*
X213399699Y-132304000D02*
X216261699Y-132304000D01*
X208470699Y-132264000D02*
X211319699Y-132264000D01*
X213399699Y-132264000D02*
X216248699Y-132264000D01*
X208482699Y-132224000D02*
X211319699Y-132224000D01*
X213399699Y-132224000D02*
X216236699Y-132224000D01*
X208496699Y-132184000D02*
X211319699Y-132184000D01*
X213399699Y-132184000D02*
X216222699Y-132184000D01*
X208509699Y-132144000D02*
X211319699Y-132144000D01*
X213399699Y-132144000D02*
X216209699Y-132144000D01*
X208524699Y-132104000D02*
X211319699Y-132104000D01*
X213399699Y-132104000D02*
X216194699Y-132104000D01*
X208538699Y-132064000D02*
X211319699Y-132064000D01*
X213399699Y-132064000D02*
X216180699Y-132064000D01*
X208554699Y-132024000D02*
X211319699Y-132024000D01*
X213399699Y-132024000D02*
X216164699Y-132024000D01*
X208569699Y-131984000D02*
X211319699Y-131984000D01*
X213399699Y-131984000D02*
X216149699Y-131984000D01*
X208585699Y-131944000D02*
X211319699Y-131944000D01*
X213399699Y-131944000D02*
X216133699Y-131944000D01*
X208602699Y-131904000D02*
X211319699Y-131904000D01*
X213399699Y-131904000D02*
X216116699Y-131904000D01*
X208619699Y-131864000D02*
X211319699Y-131864000D01*
X213399699Y-131864000D02*
X216099699Y-131864000D01*
X208637699Y-131824000D02*
X211319699Y-131824000D01*
X213399699Y-131824000D02*
X216081699Y-131824000D01*
X208655699Y-131784000D02*
X211319699Y-131784000D01*
X213399699Y-131784000D02*
X216063699Y-131784000D01*
X208673699Y-131744000D02*
X211319699Y-131744000D01*
X213399699Y-131744000D02*
X216045699Y-131744000D01*
X208693699Y-131704000D02*
X211319699Y-131704000D01*
X213399699Y-131704000D02*
X216025699Y-131704000D01*
X208712699Y-131664000D02*
X211319699Y-131664000D01*
X213399699Y-131664000D02*
X216006699Y-131664000D01*
X208732699Y-131624000D02*
X211319699Y-131624000D01*
X213399699Y-131624000D02*
X215986699Y-131624000D01*
X208753699Y-131584000D02*
X211319699Y-131584000D01*
X213399699Y-131584000D02*
X215965699Y-131584000D01*
X208775699Y-131544000D02*
X211319699Y-131544000D01*
X213399699Y-131544000D02*
X215943699Y-131544000D01*
X208797699Y-131504000D02*
X211319699Y-131504000D01*
X213399699Y-131504000D02*
X215921699Y-131504000D01*
X208819699Y-131464000D02*
X211319699Y-131464000D01*
X213399699Y-131464000D02*
X215899699Y-131464000D01*
X208842699Y-131424000D02*
X211319699Y-131424000D01*
X213399699Y-131424000D02*
X215876699Y-131424000D01*
X208866699Y-131384000D02*
X211319699Y-131384000D01*
X213399699Y-131384000D02*
X215852699Y-131384000D01*
X208890699Y-131344000D02*
X211319699Y-131344000D01*
X213399699Y-131344000D02*
X215828699Y-131344000D01*
X208915699Y-131304000D02*
X211319699Y-131304000D01*
X213399699Y-131304000D02*
X215803699Y-131304000D01*
X208941699Y-131264000D02*
X211319699Y-131264000D01*
X213399699Y-131264000D02*
X215777699Y-131264000D01*
X208967699Y-131224000D02*
X211319699Y-131224000D01*
X213399699Y-131224000D02*
X215751699Y-131224000D01*
X208994699Y-131184000D02*
X211319699Y-131184000D01*
X213399699Y-131184000D02*
X215724699Y-131184000D01*
X209021699Y-131144000D02*
X211319699Y-131144000D01*
X213399699Y-131144000D02*
X215697699Y-131144000D01*
X209050699Y-131104000D02*
X211319699Y-131104000D01*
X213399699Y-131104000D02*
X215668699Y-131104000D01*
X209079699Y-131064000D02*
X211319699Y-131064000D01*
X213399699Y-131064000D02*
X215639699Y-131064000D01*
X209109699Y-131024000D02*
X211319699Y-131024000D01*
X213399699Y-131024000D02*
X215609699Y-131024000D01*
X209139699Y-130984000D02*
X211319699Y-130984000D01*
X213399699Y-130984000D02*
X215579699Y-130984000D01*
X209170699Y-130944000D02*
X211319699Y-130944000D01*
X213399699Y-130944000D02*
X215548699Y-130944000D01*
X209203699Y-130904000D02*
X211319699Y-130904000D01*
X213399699Y-130904000D02*
X215515699Y-130904000D01*
X209235699Y-130864000D02*
X211319699Y-130864000D01*
X213399699Y-130864000D02*
X215483699Y-130864000D01*
X209269699Y-130824000D02*
X211319699Y-130824000D01*
X213399699Y-130824000D02*
X215449699Y-130824000D01*
X209304699Y-130784000D02*
X211319699Y-130784000D01*
X213399699Y-130784000D02*
X215414699Y-130784000D01*
X209340699Y-130744000D02*
X211319699Y-130744000D01*
X213399699Y-130744000D02*
X215378699Y-130744000D01*
X209376699Y-130704000D02*
X215342699Y-130704000D01*
X209414699Y-130664000D02*
X215304699Y-130664000D01*
X209452699Y-130624000D02*
X215266699Y-130624000D01*
X209492699Y-130584000D02*
X215226699Y-130584000D01*
X209533699Y-130544000D02*
X215185699Y-130544000D01*
X209575699Y-130504000D02*
X215143699Y-130504000D01*
X209618699Y-130464000D02*
X215100699Y-130464000D01*
X209662699Y-130424000D02*
X215056699Y-130424000D01*
X209708699Y-130384000D02*
X215010699Y-130384000D01*
X209755699Y-130344000D02*
X214963699Y-130344000D01*
X209803699Y-130304000D02*
X214915699Y-130304000D01*
X209854699Y-130264000D02*
X214864699Y-130264000D01*
X209905699Y-130224000D02*
X214813699Y-130224000D01*
X209959699Y-130184000D02*
X214759699Y-130184000D01*
X210014699Y-130144000D02*
X214704699Y-130144000D01*
X210072699Y-130104000D02*
X214646699Y-130104000D01*
X210131699Y-130064000D02*
X214587699Y-130064000D01*
X210193699Y-130024000D02*
X214525699Y-130024000D01*
X210257699Y-129984000D02*
X214461699Y-129984000D01*
X210325699Y-129944000D02*
X214393699Y-129944000D01*
X210395699Y-129904000D02*
X214323699Y-129904000D01*
X210469699Y-129864000D02*
X214249699Y-129864000D01*
X210546699Y-129824000D02*
X214172699Y-129824000D01*
X210628699Y-129784000D02*
X214090699Y-129784000D01*
X210714699Y-129744000D02*
X214004699Y-129744000D01*
X210807699Y-129704000D02*
X213911699Y-129704000D01*
X210906699Y-129664000D02*
X213812699Y-129664000D01*
X211013699Y-129624000D02*
X213705699Y-129624000D01*
X211130699Y-129584000D02*
X213588699Y-129584000D01*
X211261699Y-129544000D02*
X213457699Y-129544000D01*
X211411699Y-129504000D02*
X213307699Y-129504000D01*
X211591699Y-129464000D02*
X213127699Y-129464000D01*
X211826699Y-129424000D02*
X212892699Y-129424000D01*
X210044699Y-137914698D02*
X210044699Y-137114698D01*
X209644699Y-137514698D02*
X210444699Y-137514698D01*
%TO.C,C6*%
X148216252Y-91365000D02*
X147693748Y-91365000D01*
X148216252Y-92785000D02*
X147693748Y-92785000D01*
%TO.C,D1*%
X94015000Y-90370000D02*
X94015000Y-87430000D01*
X93775000Y-90370000D02*
X93775000Y-87430000D01*
X93895000Y-90370000D02*
X93895000Y-87430000D01*
X88335000Y-88900000D02*
X89355000Y-88900000D01*
X95815000Y-88900000D02*
X94795000Y-88900000D01*
X89355000Y-90370000D02*
X94795000Y-90370000D01*
X89355000Y-87430000D02*
X89355000Y-90370000D01*
X94795000Y-87430000D02*
X89355000Y-87430000D01*
X94795000Y-90370000D02*
X94795000Y-87430000D01*
%TO.C,D2*%
X138610000Y-141170000D02*
X138610000Y-138230000D01*
X138610000Y-138230000D02*
X133170000Y-138230000D01*
X133170000Y-138230000D02*
X133170000Y-141170000D01*
X133170000Y-141170000D02*
X138610000Y-141170000D01*
X139630000Y-139700000D02*
X138610000Y-139700000D01*
X132150000Y-139700000D02*
X133170000Y-139700000D01*
X137710000Y-141170000D02*
X137710000Y-138230000D01*
X137590000Y-141170000D02*
X137590000Y-138230000D01*
X137830000Y-141170000D02*
X137830000Y-138230000D01*
%TO.C,D3*%
X77105000Y-90350000D02*
X77105000Y-84910000D01*
X76865000Y-90350000D02*
X76865000Y-84910000D01*
X76985000Y-90350000D02*
X76985000Y-84910000D01*
X67880000Y-87630000D02*
X68790000Y-87630000D01*
X79440000Y-87630000D02*
X78530000Y-87630000D01*
X68790000Y-90350000D02*
X78530000Y-90350000D01*
X68790000Y-84910000D02*
X68790000Y-90350000D01*
X78530000Y-84910000D02*
X68790000Y-84910000D01*
X78530000Y-90350000D02*
X78530000Y-84910000D01*
%TO.C,F1*%
X176530000Y-147955000D02*
X176530000Y-149225000D01*
X173990000Y-147955000D02*
X176530000Y-147955000D01*
X173990000Y-149225000D02*
X173990000Y-147955000D01*
X176530000Y-149225000D02*
X173990000Y-149225000D01*
X177800000Y-148590000D02*
X172720000Y-148590000D01*
X179070000Y-147320000D02*
X179070000Y-149860000D01*
X171450000Y-147320000D02*
X179070000Y-147320000D01*
X171450000Y-149860000D02*
X171450000Y-147320000D01*
X179070000Y-149860000D02*
X171450000Y-149860000D01*
%TO.C,J2*%
X89035000Y-136110000D02*
X89535000Y-136610000D01*
X90035000Y-136110000D02*
X89035000Y-136110000D01*
X89535000Y-136610000D02*
X90035000Y-136110000D01*
X82125000Y-153550000D02*
X82125000Y-145190000D01*
X94445000Y-153550000D02*
X82125000Y-153550000D01*
X94445000Y-145190000D02*
X94445000Y-153550000D01*
X82125000Y-136830000D02*
X82125000Y-141090000D01*
X94445000Y-136830000D02*
X82125000Y-136830000D01*
X94445000Y-141090000D02*
X94445000Y-136830000D01*
%TO.C,J3*%
X142610000Y-153455000D02*
X140200000Y-153455000D01*
X142610000Y-151045000D02*
X142610000Y-153455000D01*
X126930000Y-153155000D02*
X142310000Y-153155000D01*
X126930000Y-150625000D02*
X126930000Y-153155000D01*
X127060000Y-150625000D02*
X126930000Y-150625000D01*
X127060000Y-148815000D02*
X127060000Y-150625000D01*
X126930000Y-148815000D02*
X127060000Y-148815000D01*
X126930000Y-147835000D02*
X126930000Y-148815000D01*
X130700000Y-147835000D02*
X126930000Y-147835000D01*
X130700000Y-146335000D02*
X130700000Y-147835000D01*
X138540000Y-146335000D02*
X130700000Y-146335000D01*
X138540000Y-147835000D02*
X138540000Y-146335000D01*
X142310000Y-147835000D02*
X138540000Y-147835000D01*
X142310000Y-148815000D02*
X142310000Y-147835000D01*
X142180000Y-148815000D02*
X142310000Y-148815000D01*
X142180000Y-150625000D02*
X142180000Y-148815000D01*
X142310000Y-150625000D02*
X142180000Y-150625000D01*
X142310000Y-153155000D02*
X142310000Y-150625000D01*
%TO.C,J4*%
X206375000Y-145415000D02*
X186055000Y-145415000D01*
X206375000Y-153035000D02*
X186055000Y-153035000D01*
X186055000Y-146685000D02*
X206375000Y-146685000D01*
X186055000Y-145415000D02*
X186055000Y-153035000D01*
X206375000Y-153035000D02*
X206375000Y-145415000D01*
%TO.C,J5*%
X157850000Y-153455000D02*
X155440000Y-153455000D01*
X157850000Y-151045000D02*
X157850000Y-153455000D01*
X144710000Y-153155000D02*
X157550000Y-153155000D01*
X144710000Y-150625000D02*
X144710000Y-153155000D01*
X144840000Y-150625000D02*
X144710000Y-150625000D01*
X144840000Y-148815000D02*
X144840000Y-150625000D01*
X144710000Y-148815000D02*
X144840000Y-148815000D01*
X144710000Y-147835000D02*
X144710000Y-148815000D01*
X147210000Y-147835000D02*
X144710000Y-147835000D01*
X147210000Y-146335000D02*
X147210000Y-147835000D01*
X155050000Y-146335000D02*
X147210000Y-146335000D01*
X155050000Y-147835000D02*
X155050000Y-146335000D01*
X157550000Y-147835000D02*
X155050000Y-147835000D01*
X157550000Y-148815000D02*
X157550000Y-147835000D01*
X157420000Y-148815000D02*
X157550000Y-148815000D01*
X157420000Y-150625000D02*
X157420000Y-148815000D01*
X157550000Y-150625000D02*
X157420000Y-150625000D01*
X157550000Y-153155000D02*
X157550000Y-150625000D01*
%TO.C,L1*%
X67930000Y-78105000D02*
G75*
G03*
X67930000Y-78105000I-4470000J0D01*
G01*
%TO.C,R1*%
X132586252Y-83260000D02*
X132063748Y-83260000D01*
X132586252Y-81840000D02*
X132063748Y-81840000D01*
%TO.C,R2*%
X116823748Y-80720000D02*
X117346252Y-80720000D01*
X116823748Y-79300000D02*
X117346252Y-79300000D01*
%TO.C,R3*%
X132063748Y-79300000D02*
X132586252Y-79300000D01*
X132063748Y-80720000D02*
X132586252Y-80720000D01*
%TO.C,R4*%
X148606252Y-83260000D02*
X148083748Y-83260000D01*
X148606252Y-81840000D02*
X148083748Y-81840000D01*
%TO.C,R5*%
X201220000Y-83803748D02*
X201220000Y-84326252D01*
X202640000Y-83803748D02*
X202640000Y-84326252D01*
%TO.C,R6*%
X148606252Y-86920000D02*
X148083748Y-86920000D01*
X148606252Y-88340000D02*
X148083748Y-88340000D01*
%TO.C,R7*%
X195596252Y-87070000D02*
X195073748Y-87070000D01*
X195596252Y-85650000D02*
X195073748Y-85650000D01*
%TO.C,R8*%
X195596252Y-90730000D02*
X195073748Y-90730000D01*
X195596252Y-92150000D02*
X195073748Y-92150000D01*
D14*
%TO.C,U3*%
G36*
X127000000Y-44450000D02*
G01*
X128270000Y-44450000D01*
X128270000Y-48260000D01*
X127000000Y-48260000D01*
X127000000Y-44450000D01*
G37*
X127000000Y-44450000D02*
X128270000Y-44450000D01*
X128270000Y-48260000D01*
X127000000Y-48260000D01*
X127000000Y-44450000D01*
G36*
X124460000Y-43180000D02*
G01*
X127000000Y-43180000D01*
X127000000Y-49530000D01*
X124460000Y-49530000D01*
X124460000Y-43180000D01*
G37*
X124460000Y-43180000D02*
X127000000Y-43180000D01*
X127000000Y-49530000D01*
X124460000Y-49530000D01*
X124460000Y-43180000D01*
G36*
X158750000Y-38100000D02*
G01*
X170180000Y-38100000D01*
X170180000Y-53340000D01*
X158750000Y-53340000D01*
X158750000Y-38100000D01*
G37*
X158750000Y-38100000D02*
X170180000Y-38100000D01*
X170180000Y-53340000D01*
X158750000Y-53340000D01*
X158750000Y-38100000D01*
D13*
X175260000Y-36830000D02*
X175260000Y-54610000D01*
X157480000Y-36830000D02*
X175260000Y-36830000D01*
X157480000Y-54610000D02*
X157480000Y-36830000D01*
X175260000Y-54610000D02*
X157480000Y-54610000D01*
X172585000Y-41410001D02*
X172585000Y-32790001D01*
X172225000Y-41410001D02*
X172585000Y-41410001D01*
X172225000Y-50030000D02*
X172225000Y-41410001D01*
X172585000Y-50030000D02*
X172225000Y-50030000D01*
X172585000Y-58650000D02*
X172585000Y-50030000D01*
X124595000Y-58649999D02*
X172585000Y-58650000D01*
X124595000Y-32790000D02*
X124595000Y-58649999D01*
X172585000Y-32790001D02*
X124595000Y-32790000D01*
%TO.C,J1*%
X108010000Y-138600000D02*
X106960000Y-138600000D01*
X106960000Y-139650000D02*
X106960000Y-138600000D01*
X116360000Y-144700000D02*
X116360000Y-153500000D01*
X116360000Y-153500000D02*
X107160000Y-153500000D01*
X113660000Y-138800000D02*
X116360000Y-138800000D01*
X116360000Y-138800000D02*
X116360000Y-140700000D01*
X107160000Y-153500000D02*
X107160000Y-138800000D01*
X107160000Y-138800000D02*
X109760000Y-138800000D01*
%TO.C,J6*%
X215840000Y-111700000D02*
X217170000Y-111700000D01*
X215840000Y-113030000D02*
X215840000Y-111700000D01*
X215840000Y-114300000D02*
X218500000Y-114300000D01*
X218500000Y-114300000D02*
X218500000Y-116900000D01*
X215840000Y-114300000D02*
X215840000Y-116900000D01*
X215840000Y-116900000D02*
X218500000Y-116900000D01*
%TO.C,C9*%
X107821252Y-79300000D02*
X107298748Y-79300000D01*
X107821252Y-80720000D02*
X107298748Y-80720000D01*
%TO.C,C10*%
X83067082Y-46745000D02*
X83067082Y-45495000D01*
X83692082Y-46120000D02*
X82442082Y-46120000D01*
X70514000Y-42862000D02*
X70514000Y-42228000D01*
X70554000Y-43302000D02*
X70554000Y-41788000D01*
X70594000Y-43573000D02*
X70594000Y-41517000D01*
X70634000Y-43786000D02*
X70634000Y-41304000D01*
X70674000Y-43967000D02*
X70674000Y-41123000D01*
X70714000Y-44128000D02*
X70714000Y-40962000D01*
X70754000Y-44273000D02*
X70754000Y-40817000D01*
X70794000Y-44406000D02*
X70794000Y-40684000D01*
X70834000Y-44529000D02*
X70834000Y-40561000D01*
X70874000Y-44645000D02*
X70874000Y-40445000D01*
X70914000Y-44754000D02*
X70914000Y-40336000D01*
X70954000Y-44857000D02*
X70954000Y-40233000D01*
X70994000Y-44955000D02*
X70994000Y-40135000D01*
X71034000Y-45049000D02*
X71034000Y-40041000D01*
X71074000Y-45139000D02*
X71074000Y-39951000D01*
X71114000Y-45226000D02*
X71114000Y-39864000D01*
X71154000Y-45309000D02*
X71154000Y-39781000D01*
X71194000Y-45389000D02*
X71194000Y-39701000D01*
X71234000Y-45466000D02*
X71234000Y-39624000D01*
X71274000Y-45541000D02*
X71274000Y-39549000D01*
X71314000Y-45614000D02*
X71314000Y-39476000D01*
X71354000Y-45685000D02*
X71354000Y-39405000D01*
X71394000Y-45753000D02*
X71394000Y-39337000D01*
X71434000Y-45820000D02*
X71434000Y-39270000D01*
X71474000Y-45884000D02*
X71474000Y-39206000D01*
X71514000Y-45947000D02*
X71514000Y-39143000D01*
X71554000Y-46009000D02*
X71554000Y-39081000D01*
X71594000Y-46069000D02*
X71594000Y-39021000D01*
X71634000Y-46128000D02*
X71634000Y-38962000D01*
X71674000Y-46185000D02*
X71674000Y-38905000D01*
X71714000Y-46241000D02*
X71714000Y-38849000D01*
X71754000Y-46295000D02*
X71754000Y-38795000D01*
X71794000Y-46349000D02*
X71794000Y-38741000D01*
X71834000Y-46401000D02*
X71834000Y-38689000D01*
X71874000Y-46452000D02*
X71874000Y-38638000D01*
X71914000Y-46502000D02*
X71914000Y-38588000D01*
X71954000Y-46552000D02*
X71954000Y-38538000D01*
X71994000Y-46600000D02*
X71994000Y-38490000D01*
X72034000Y-46647000D02*
X72034000Y-38443000D01*
X72074000Y-46693000D02*
X72074000Y-38397000D01*
X72114000Y-46739000D02*
X72114000Y-38351000D01*
X72154000Y-46783000D02*
X72154000Y-38307000D01*
X72194000Y-46827000D02*
X72194000Y-38263000D01*
X72234000Y-46870000D02*
X72234000Y-38220000D01*
X72274000Y-46912000D02*
X72274000Y-38178000D01*
X72314000Y-46953000D02*
X72314000Y-38137000D01*
X72354000Y-46994000D02*
X72354000Y-38096000D01*
X72394000Y-47034000D02*
X72394000Y-38056000D01*
X72434000Y-47073000D02*
X72434000Y-38017000D01*
X72474000Y-47112000D02*
X72474000Y-37978000D01*
X72514000Y-47150000D02*
X72514000Y-37940000D01*
X72554000Y-47187000D02*
X72554000Y-37903000D01*
X72594000Y-47223000D02*
X72594000Y-37867000D01*
X72634000Y-47259000D02*
X72634000Y-37831000D01*
X72674000Y-47295000D02*
X72674000Y-37795000D01*
X72714000Y-47330000D02*
X72714000Y-37760000D01*
X72754000Y-47364000D02*
X72754000Y-37726000D01*
X72794000Y-47397000D02*
X72794000Y-37693000D01*
X72834000Y-47430000D02*
X72834000Y-37660000D01*
X72874000Y-47463000D02*
X72874000Y-37627000D01*
X72914000Y-47495000D02*
X72914000Y-37595000D01*
X72954000Y-41105000D02*
X72954000Y-37563000D01*
X72954000Y-47527000D02*
X72954000Y-43985000D01*
X72994000Y-41105000D02*
X72994000Y-37533000D01*
X72994000Y-47557000D02*
X72994000Y-43985000D01*
X73034000Y-41105000D02*
X73034000Y-37502000D01*
X73034000Y-47588000D02*
X73034000Y-43985000D01*
X73074000Y-41105000D02*
X73074000Y-37472000D01*
X73074000Y-47618000D02*
X73074000Y-43985000D01*
X73114000Y-41105000D02*
X73114000Y-37443000D01*
X73114000Y-47647000D02*
X73114000Y-43985000D01*
X73154000Y-41105000D02*
X73154000Y-37414000D01*
X73154000Y-47676000D02*
X73154000Y-43985000D01*
X73194000Y-41105000D02*
X73194000Y-37385000D01*
X73194000Y-47705000D02*
X73194000Y-43985000D01*
X73234000Y-41105000D02*
X73234000Y-37357000D01*
X73234000Y-47733000D02*
X73234000Y-43985000D01*
X73274000Y-41105000D02*
X73274000Y-37329000D01*
X73274000Y-47761000D02*
X73274000Y-43985000D01*
X73314000Y-41105000D02*
X73314000Y-37302000D01*
X73314000Y-47788000D02*
X73314000Y-43985000D01*
X73354000Y-41105000D02*
X73354000Y-37275000D01*
X73354000Y-47815000D02*
X73354000Y-43985000D01*
X73394000Y-41105000D02*
X73394000Y-37249000D01*
X73394000Y-47841000D02*
X73394000Y-43985000D01*
X73434000Y-41105000D02*
X73434000Y-37223000D01*
X73434000Y-47867000D02*
X73434000Y-43985000D01*
X73474000Y-41105000D02*
X73474000Y-37198000D01*
X73474000Y-47892000D02*
X73474000Y-43985000D01*
X73514000Y-41105000D02*
X73514000Y-37173000D01*
X73514000Y-47917000D02*
X73514000Y-43985000D01*
X73554000Y-41105000D02*
X73554000Y-37148000D01*
X73554000Y-47942000D02*
X73554000Y-43985000D01*
X73594000Y-41105000D02*
X73594000Y-37124000D01*
X73594000Y-47966000D02*
X73594000Y-43985000D01*
X73634000Y-41105000D02*
X73634000Y-37100000D01*
X73634000Y-47990000D02*
X73634000Y-43985000D01*
X73674000Y-41105000D02*
X73674000Y-37077000D01*
X73674000Y-48013000D02*
X73674000Y-43985000D01*
X73714000Y-41105000D02*
X73714000Y-37054000D01*
X73714000Y-48036000D02*
X73714000Y-43985000D01*
X73754000Y-41105000D02*
X73754000Y-37031000D01*
X73754000Y-48059000D02*
X73754000Y-43985000D01*
X73794000Y-41105000D02*
X73794000Y-37009000D01*
X73794000Y-48081000D02*
X73794000Y-43985000D01*
X73834000Y-41105000D02*
X73834000Y-36987000D01*
X73834000Y-48103000D02*
X73834000Y-43985000D01*
X73874000Y-41105000D02*
X73874000Y-36965000D01*
X73874000Y-48125000D02*
X73874000Y-43985000D01*
X73914000Y-41105000D02*
X73914000Y-36944000D01*
X73914000Y-48146000D02*
X73914000Y-43985000D01*
X73954000Y-41105000D02*
X73954000Y-36923000D01*
X73954000Y-48167000D02*
X73954000Y-43985000D01*
X73994000Y-41105000D02*
X73994000Y-36903000D01*
X73994000Y-48187000D02*
X73994000Y-43985000D01*
X74034000Y-41105000D02*
X74034000Y-36883000D01*
X74034000Y-48207000D02*
X74034000Y-43985000D01*
X74074000Y-41105000D02*
X74074000Y-36863000D01*
X74074000Y-48227000D02*
X74074000Y-43985000D01*
X74114000Y-41105000D02*
X74114000Y-36843000D01*
X74114000Y-48247000D02*
X74114000Y-43985000D01*
X74154000Y-41105000D02*
X74154000Y-36824000D01*
X74154000Y-48266000D02*
X74154000Y-43985000D01*
X74194000Y-41105000D02*
X74194000Y-36806000D01*
X74194000Y-48284000D02*
X74194000Y-43985000D01*
X74234000Y-41105000D02*
X74234000Y-36787000D01*
X74234000Y-48303000D02*
X74234000Y-43985000D01*
X74274000Y-41105000D02*
X74274000Y-36769000D01*
X74274000Y-48321000D02*
X74274000Y-43985000D01*
X74314000Y-41105000D02*
X74314000Y-36752000D01*
X74314000Y-48338000D02*
X74314000Y-43985000D01*
X74354000Y-41105000D02*
X74354000Y-36734000D01*
X74354000Y-48356000D02*
X74354000Y-43985000D01*
X74394000Y-41105000D02*
X74394000Y-36717000D01*
X74394000Y-48373000D02*
X74394000Y-43985000D01*
X74434000Y-41105000D02*
X74434000Y-36700000D01*
X74434000Y-48390000D02*
X74434000Y-43985000D01*
X74474000Y-41105000D02*
X74474000Y-36684000D01*
X74474000Y-48406000D02*
X74474000Y-43985000D01*
X74514000Y-41105000D02*
X74514000Y-36668000D01*
X74514000Y-48422000D02*
X74514000Y-43985000D01*
X74554000Y-41105000D02*
X74554000Y-36652000D01*
X74554000Y-48438000D02*
X74554000Y-43985000D01*
X74594000Y-41105000D02*
X74594000Y-36637000D01*
X74594000Y-48453000D02*
X74594000Y-43985000D01*
X74634000Y-41105000D02*
X74634000Y-36621000D01*
X74634000Y-48469000D02*
X74634000Y-43985000D01*
X74674000Y-41105000D02*
X74674000Y-36606000D01*
X74674000Y-48484000D02*
X74674000Y-43985000D01*
X74714000Y-41105000D02*
X74714000Y-36592000D01*
X74714000Y-48498000D02*
X74714000Y-43985000D01*
X74754000Y-41105000D02*
X74754000Y-36578000D01*
X74754000Y-48512000D02*
X74754000Y-43985000D01*
X74794000Y-41105000D02*
X74794000Y-36564000D01*
X74794000Y-48526000D02*
X74794000Y-43985000D01*
X74834000Y-41105000D02*
X74834000Y-36550000D01*
X74834000Y-48540000D02*
X74834000Y-43985000D01*
X74874000Y-41105000D02*
X74874000Y-36537000D01*
X74874000Y-48553000D02*
X74874000Y-43985000D01*
X74914000Y-41105000D02*
X74914000Y-36524000D01*
X74914000Y-48566000D02*
X74914000Y-43985000D01*
X74954000Y-41105000D02*
X74954000Y-36511000D01*
X74954000Y-48579000D02*
X74954000Y-43985000D01*
X74994000Y-41105000D02*
X74994000Y-36498000D01*
X74994000Y-48592000D02*
X74994000Y-43985000D01*
X75034000Y-41105000D02*
X75034000Y-36486000D01*
X75034000Y-48604000D02*
X75034000Y-43985000D01*
X75074000Y-41105000D02*
X75074000Y-36474000D01*
X75074000Y-48616000D02*
X75074000Y-43985000D01*
X75114000Y-41105000D02*
X75114000Y-36462000D01*
X75114000Y-48628000D02*
X75114000Y-43985000D01*
X75154000Y-41105000D02*
X75154000Y-36451000D01*
X75154000Y-48639000D02*
X75154000Y-43985000D01*
X75194000Y-41105000D02*
X75194000Y-36440000D01*
X75194000Y-48650000D02*
X75194000Y-43985000D01*
X75234000Y-41105000D02*
X75234000Y-36429000D01*
X75234000Y-48661000D02*
X75234000Y-43985000D01*
X75274000Y-41105000D02*
X75274000Y-36419000D01*
X75274000Y-48671000D02*
X75274000Y-43985000D01*
X75314000Y-41105000D02*
X75314000Y-36408000D01*
X75314000Y-48682000D02*
X75314000Y-43985000D01*
X75354000Y-41105000D02*
X75354000Y-36399000D01*
X75354000Y-48691000D02*
X75354000Y-43985000D01*
X75394000Y-41105000D02*
X75394000Y-36389000D01*
X75394000Y-48701000D02*
X75394000Y-43985000D01*
X75434000Y-41105000D02*
X75434000Y-36379000D01*
X75434000Y-48711000D02*
X75434000Y-43985000D01*
X75474000Y-41105000D02*
X75474000Y-36370000D01*
X75474000Y-48720000D02*
X75474000Y-43985000D01*
X75514000Y-41105000D02*
X75514000Y-36361000D01*
X75514000Y-48729000D02*
X75514000Y-43985000D01*
X75554000Y-41105000D02*
X75554000Y-36353000D01*
X75554000Y-48737000D02*
X75554000Y-43985000D01*
X75594000Y-41105000D02*
X75594000Y-36344000D01*
X75594000Y-48746000D02*
X75594000Y-43985000D01*
X75634000Y-41105000D02*
X75634000Y-36336000D01*
X75634000Y-48754000D02*
X75634000Y-43985000D01*
X75674000Y-41105000D02*
X75674000Y-36329000D01*
X75674000Y-48761000D02*
X75674000Y-43985000D01*
X75714000Y-41105000D02*
X75714000Y-36321000D01*
X75714000Y-48769000D02*
X75714000Y-43985000D01*
X75754000Y-41105000D02*
X75754000Y-36314000D01*
X75754000Y-48776000D02*
X75754000Y-43985000D01*
X75794000Y-41105000D02*
X75794000Y-36307000D01*
X75794000Y-48783000D02*
X75794000Y-43985000D01*
X75834000Y-48790000D02*
X75834000Y-36300000D01*
X75874000Y-48797000D02*
X75874000Y-36293000D01*
X75914000Y-48803000D02*
X75914000Y-36287000D01*
X75954000Y-48809000D02*
X75954000Y-36281000D01*
X75994000Y-48814000D02*
X75994000Y-36276000D01*
X76034000Y-48820000D02*
X76034000Y-36270000D01*
X76074000Y-48825000D02*
X76074000Y-36265000D01*
X76114000Y-48830000D02*
X76114000Y-36260000D01*
X76154000Y-48835000D02*
X76154000Y-36255000D01*
X76195000Y-48839000D02*
X76195000Y-36251000D01*
X76235000Y-48843000D02*
X76235000Y-36247000D01*
X76275000Y-48847000D02*
X76275000Y-36243000D01*
X76315000Y-48851000D02*
X76315000Y-36239000D01*
X76355000Y-48854000D02*
X76355000Y-36236000D01*
X76395000Y-48857000D02*
X76395000Y-36233000D01*
X76435000Y-48860000D02*
X76435000Y-36230000D01*
X76475000Y-48863000D02*
X76475000Y-36227000D01*
X76515000Y-48865000D02*
X76515000Y-36225000D01*
X76555000Y-48867000D02*
X76555000Y-36223000D01*
X76595000Y-48869000D02*
X76595000Y-36221000D01*
X76635000Y-48871000D02*
X76635000Y-36219000D01*
X76675000Y-48872000D02*
X76675000Y-36218000D01*
X76715000Y-48873000D02*
X76715000Y-36217000D01*
X76755000Y-48874000D02*
X76755000Y-36216000D01*
X76795000Y-48875000D02*
X76795000Y-36215000D01*
X76835000Y-48875000D02*
X76835000Y-36215000D01*
X76875000Y-48875000D02*
X76875000Y-36215000D01*
X83245000Y-42545000D02*
G75*
G03*
X83245000Y-42545000I-6370000J0D01*
G01*
%TO.C,C11*%
X110135302Y-49355000D02*
X110135302Y-50155000D01*
X109735302Y-49755000D02*
X110535302Y-49755000D01*
X118226000Y-51537000D02*
X118226000Y-52603000D01*
X118186000Y-51302000D02*
X118186000Y-52838000D01*
X118146000Y-51122000D02*
X118146000Y-53018000D01*
X118106000Y-50972000D02*
X118106000Y-53168000D01*
X118066000Y-50841000D02*
X118066000Y-53299000D01*
X118026000Y-50724000D02*
X118026000Y-53416000D01*
X117986000Y-50617000D02*
X117986000Y-53523000D01*
X117946000Y-50518000D02*
X117946000Y-53622000D01*
X117906000Y-50425000D02*
X117906000Y-53715000D01*
X117866000Y-50339000D02*
X117866000Y-53801000D01*
X117826000Y-50257000D02*
X117826000Y-53883000D01*
X117786000Y-50180000D02*
X117786000Y-53960000D01*
X117746000Y-50106000D02*
X117746000Y-54034000D01*
X117706000Y-50036000D02*
X117706000Y-54104000D01*
X117666000Y-49968000D02*
X117666000Y-54172000D01*
X117626000Y-49904000D02*
X117626000Y-54236000D01*
X117586000Y-49842000D02*
X117586000Y-54298000D01*
X117546000Y-49783000D02*
X117546000Y-54357000D01*
X117506000Y-49725000D02*
X117506000Y-54415000D01*
X117466000Y-49670000D02*
X117466000Y-54470000D01*
X117426000Y-49616000D02*
X117426000Y-54524000D01*
X117386000Y-49565000D02*
X117386000Y-54575000D01*
X117346000Y-49514000D02*
X117346000Y-54626000D01*
X117306000Y-49466000D02*
X117306000Y-54674000D01*
X117266000Y-49419000D02*
X117266000Y-54721000D01*
X117226000Y-49373000D02*
X117226000Y-54767000D01*
X117186000Y-49329000D02*
X117186000Y-54811000D01*
X117146000Y-49286000D02*
X117146000Y-54854000D01*
X117106000Y-49244000D02*
X117106000Y-54896000D01*
X117066000Y-49203000D02*
X117066000Y-54937000D01*
X117026000Y-49163000D02*
X117026000Y-54977000D01*
X116986000Y-49125000D02*
X116986000Y-55015000D01*
X116946000Y-49087000D02*
X116946000Y-55053000D01*
X116906000Y-53110000D02*
X116906000Y-55089000D01*
X116906000Y-49051000D02*
X116906000Y-51030000D01*
X116866000Y-53110000D02*
X116866000Y-55125000D01*
X116866000Y-49015000D02*
X116866000Y-51030000D01*
X116826000Y-53110000D02*
X116826000Y-55160000D01*
X116826000Y-48980000D02*
X116826000Y-51030000D01*
X116786000Y-53110000D02*
X116786000Y-55194000D01*
X116786000Y-48946000D02*
X116786000Y-51030000D01*
X116746000Y-53110000D02*
X116746000Y-55226000D01*
X116746000Y-48914000D02*
X116746000Y-51030000D01*
X116706000Y-53110000D02*
X116706000Y-55259000D01*
X116706000Y-48881000D02*
X116706000Y-51030000D01*
X116666000Y-53110000D02*
X116666000Y-55290000D01*
X116666000Y-48850000D02*
X116666000Y-51030000D01*
X116626000Y-53110000D02*
X116626000Y-55320000D01*
X116626000Y-48820000D02*
X116626000Y-51030000D01*
X116586000Y-53110000D02*
X116586000Y-55350000D01*
X116586000Y-48790000D02*
X116586000Y-51030000D01*
X116546000Y-53110000D02*
X116546000Y-55379000D01*
X116546000Y-48761000D02*
X116546000Y-51030000D01*
X116506000Y-53110000D02*
X116506000Y-55408000D01*
X116506000Y-48732000D02*
X116506000Y-51030000D01*
X116466000Y-53110000D02*
X116466000Y-55435000D01*
X116466000Y-48705000D02*
X116466000Y-51030000D01*
X116426000Y-53110000D02*
X116426000Y-55462000D01*
X116426000Y-48678000D02*
X116426000Y-51030000D01*
X116386000Y-53110000D02*
X116386000Y-55488000D01*
X116386000Y-48652000D02*
X116386000Y-51030000D01*
X116346000Y-53110000D02*
X116346000Y-55514000D01*
X116346000Y-48626000D02*
X116346000Y-51030000D01*
X116306000Y-53110000D02*
X116306000Y-55539000D01*
X116306000Y-48601000D02*
X116306000Y-51030000D01*
X116266000Y-53110000D02*
X116266000Y-55563000D01*
X116266000Y-48577000D02*
X116266000Y-51030000D01*
X116226000Y-53110000D02*
X116226000Y-55587000D01*
X116226000Y-48553000D02*
X116226000Y-51030000D01*
X116186000Y-53110000D02*
X116186000Y-55610000D01*
X116186000Y-48530000D02*
X116186000Y-51030000D01*
X116146000Y-53110000D02*
X116146000Y-55632000D01*
X116146000Y-48508000D02*
X116146000Y-51030000D01*
X116106000Y-53110000D02*
X116106000Y-55654000D01*
X116106000Y-48486000D02*
X116106000Y-51030000D01*
X116066000Y-53110000D02*
X116066000Y-55676000D01*
X116066000Y-48464000D02*
X116066000Y-51030000D01*
X116026000Y-53110000D02*
X116026000Y-55697000D01*
X116026000Y-48443000D02*
X116026000Y-51030000D01*
X115986000Y-53110000D02*
X115986000Y-55717000D01*
X115986000Y-48423000D02*
X115986000Y-51030000D01*
X115946000Y-53110000D02*
X115946000Y-55736000D01*
X115946000Y-48404000D02*
X115946000Y-51030000D01*
X115906000Y-53110000D02*
X115906000Y-55756000D01*
X115906000Y-48384000D02*
X115906000Y-51030000D01*
X115866000Y-53110000D02*
X115866000Y-55774000D01*
X115866000Y-48366000D02*
X115866000Y-51030000D01*
X115826000Y-53110000D02*
X115826000Y-55792000D01*
X115826000Y-48348000D02*
X115826000Y-51030000D01*
X115786000Y-53110000D02*
X115786000Y-55810000D01*
X115786000Y-48330000D02*
X115786000Y-51030000D01*
X115746000Y-53110000D02*
X115746000Y-55827000D01*
X115746000Y-48313000D02*
X115746000Y-51030000D01*
X115706000Y-53110000D02*
X115706000Y-55844000D01*
X115706000Y-48296000D02*
X115706000Y-51030000D01*
X115666000Y-53110000D02*
X115666000Y-55860000D01*
X115666000Y-48280000D02*
X115666000Y-51030000D01*
X115626000Y-53110000D02*
X115626000Y-55875000D01*
X115626000Y-48265000D02*
X115626000Y-51030000D01*
X115586000Y-53110000D02*
X115586000Y-55891000D01*
X115586000Y-48249000D02*
X115586000Y-51030000D01*
X115546000Y-53110000D02*
X115546000Y-55905000D01*
X115546000Y-48235000D02*
X115546000Y-51030000D01*
X115506000Y-53110000D02*
X115506000Y-55920000D01*
X115506000Y-48220000D02*
X115506000Y-51030000D01*
X115466000Y-53110000D02*
X115466000Y-55933000D01*
X115466000Y-48207000D02*
X115466000Y-51030000D01*
X115426000Y-53110000D02*
X115426000Y-55947000D01*
X115426000Y-48193000D02*
X115426000Y-51030000D01*
X115386000Y-53110000D02*
X115386000Y-55959000D01*
X115386000Y-48181000D02*
X115386000Y-51030000D01*
X115346000Y-53110000D02*
X115346000Y-55972000D01*
X115346000Y-48168000D02*
X115346000Y-51030000D01*
X115306000Y-53110000D02*
X115306000Y-55984000D01*
X115306000Y-48156000D02*
X115306000Y-51030000D01*
X115266000Y-53110000D02*
X115266000Y-55995000D01*
X115266000Y-48145000D02*
X115266000Y-51030000D01*
X115226000Y-53110000D02*
X115226000Y-56006000D01*
X115226000Y-48134000D02*
X115226000Y-51030000D01*
X115186000Y-53110000D02*
X115186000Y-56017000D01*
X115186000Y-48123000D02*
X115186000Y-51030000D01*
X115146000Y-53110000D02*
X115146000Y-56027000D01*
X115146000Y-48113000D02*
X115146000Y-51030000D01*
X115106000Y-53110000D02*
X115106000Y-56037000D01*
X115106000Y-48103000D02*
X115106000Y-51030000D01*
X115066000Y-53110000D02*
X115066000Y-56046000D01*
X115066000Y-48094000D02*
X115066000Y-51030000D01*
X115026000Y-53110000D02*
X115026000Y-56055000D01*
X115026000Y-48085000D02*
X115026000Y-51030000D01*
X114986000Y-53110000D02*
X114986000Y-56064000D01*
X114986000Y-48076000D02*
X114986000Y-51030000D01*
X114946000Y-53110000D02*
X114946000Y-56072000D01*
X114946000Y-48068000D02*
X114946000Y-51030000D01*
X114906000Y-53110000D02*
X114906000Y-56080000D01*
X114906000Y-48060000D02*
X114906000Y-51030000D01*
X114866000Y-53110000D02*
X114866000Y-56087000D01*
X114866000Y-48053000D02*
X114866000Y-51030000D01*
X114825000Y-48046000D02*
X114825000Y-56094000D01*
X114785000Y-48040000D02*
X114785000Y-56100000D01*
X114745000Y-48033000D02*
X114745000Y-56107000D01*
X114705000Y-48028000D02*
X114705000Y-56112000D01*
X114665000Y-48022000D02*
X114665000Y-56118000D01*
X114625000Y-48018000D02*
X114625000Y-56122000D01*
X114585000Y-48013000D02*
X114585000Y-56127000D01*
X114545000Y-48009000D02*
X114545000Y-56131000D01*
X114505000Y-48005000D02*
X114505000Y-56135000D01*
X114465000Y-48002000D02*
X114465000Y-56138000D01*
X114425000Y-47999000D02*
X114425000Y-56141000D01*
X114385000Y-47996000D02*
X114385000Y-56144000D01*
X114345000Y-47994000D02*
X114345000Y-56146000D01*
X114305000Y-47993000D02*
X114305000Y-56147000D01*
X114265000Y-47991000D02*
X114265000Y-56149000D01*
X114225000Y-47990000D02*
X114225000Y-56150000D01*
X114185000Y-47990000D02*
X114185000Y-56150000D01*
X114145000Y-47990000D02*
X114145000Y-56150000D01*
X118265000Y-52070000D02*
G75*
G03*
X118265000Y-52070000I-4120000J0D01*
G01*
%TO.C,D5*%
X94795000Y-57515000D02*
X89355000Y-57515000D01*
X94795000Y-57755000D02*
X89355000Y-57755000D01*
X94795000Y-57635000D02*
X89355000Y-57635000D01*
X92075000Y-66740000D02*
X92075000Y-65830000D01*
X92075000Y-55180000D02*
X92075000Y-56090000D01*
X94795000Y-65830000D02*
X94795000Y-56090000D01*
X89355000Y-65830000D02*
X94795000Y-65830000D01*
X89355000Y-56090000D02*
X89355000Y-65830000D01*
X94795000Y-56090000D02*
X89355000Y-56090000D01*
%TO.C,L2*%
X105475000Y-52070000D02*
G75*
G03*
X105475000Y-52070000I-4470000J0D01*
G01*
%TO.C,U2*%
X104580000Y-40415000D02*
X104580000Y-41515000D01*
X105530000Y-40415000D02*
X104580000Y-40415000D01*
X105530000Y-38915000D02*
X105530000Y-40415000D01*
X96080000Y-40415000D02*
X96080000Y-45540000D01*
X95130000Y-40415000D02*
X96080000Y-40415000D01*
X95130000Y-38915000D02*
X95130000Y-40415000D01*
%TO.C,OSHW_Mono_0.5_Scale*%
D15*
X196679285Y-53239285D02*
X197662619Y-53239285D01*
X198084047Y-54784523D02*
X196679285Y-54784523D01*
X196679285Y-51834523D01*
X198084047Y-51834523D01*
X199207857Y-54644047D02*
X199629285Y-54784523D01*
X200331666Y-54784523D01*
X200612619Y-54644047D01*
X200753095Y-54503571D01*
X200893571Y-54222619D01*
X200893571Y-53941666D01*
X200753095Y-53660714D01*
X200612619Y-53520238D01*
X200331666Y-53379761D01*
X199769761Y-53239285D01*
X199488809Y-53098809D01*
X199348333Y-52958333D01*
X199207857Y-52677380D01*
X199207857Y-52396428D01*
X199348333Y-52115476D01*
X199488809Y-51975000D01*
X199769761Y-51834523D01*
X200472142Y-51834523D01*
X200893571Y-51975000D01*
X202719761Y-51834523D02*
X203000714Y-51834523D01*
X203281666Y-51975000D01*
X203422142Y-52115476D01*
X203562619Y-52396428D01*
X203703095Y-52958333D01*
X203703095Y-53660714D01*
X203562619Y-54222619D01*
X203422142Y-54503571D01*
X203281666Y-54644047D01*
X203000714Y-54784523D01*
X202719761Y-54784523D01*
X202438809Y-54644047D01*
X202298333Y-54503571D01*
X202157857Y-54222619D01*
X202017380Y-53660714D01*
X202017380Y-52958333D01*
X202157857Y-52396428D01*
X202298333Y-52115476D01*
X202438809Y-51975000D01*
X202719761Y-51834523D01*
X205529285Y-51834523D02*
X205810238Y-51834523D01*
X206091190Y-51975000D01*
X206231666Y-52115476D01*
X206372142Y-52396428D01*
X206512619Y-52958333D01*
X206512619Y-53660714D01*
X206372142Y-54222619D01*
X206231666Y-54503571D01*
X206091190Y-54644047D01*
X205810238Y-54784523D01*
X205529285Y-54784523D01*
X205248333Y-54644047D01*
X205107857Y-54503571D01*
X204967380Y-54222619D01*
X204826904Y-53660714D01*
X204826904Y-52958333D01*
X204967380Y-52396428D01*
X205107857Y-52115476D01*
X205248333Y-51975000D01*
X205529285Y-51834523D01*
X208338809Y-51834523D02*
X208619761Y-51834523D01*
X208900714Y-51975000D01*
X209041190Y-52115476D01*
X209181666Y-52396428D01*
X209322142Y-52958333D01*
X209322142Y-53660714D01*
X209181666Y-54222619D01*
X209041190Y-54503571D01*
X208900714Y-54644047D01*
X208619761Y-54784523D01*
X208338809Y-54784523D01*
X208057857Y-54644047D01*
X207917380Y-54503571D01*
X207776904Y-54222619D01*
X207636428Y-53660714D01*
X207636428Y-52958333D01*
X207776904Y-52396428D01*
X207917380Y-52115476D01*
X208057857Y-51975000D01*
X208338809Y-51834523D01*
X210305476Y-51834523D02*
X212272142Y-54784523D01*
X212272142Y-51834523D02*
X210305476Y-54784523D01*
X213115000Y-51834523D02*
X215081666Y-54784523D01*
X215081666Y-51834523D02*
X213115000Y-54784523D01*
%TO.C,U1*%
D16*
X74066380Y-102046904D02*
X74875904Y-102046904D01*
X74971142Y-101999285D01*
X75018761Y-101951666D01*
X75066380Y-101856428D01*
X75066380Y-101665952D01*
X75018761Y-101570714D01*
X74971142Y-101523095D01*
X74875904Y-101475476D01*
X74066380Y-101475476D01*
X75066380Y-100475476D02*
X75066380Y-101046904D01*
X75066380Y-100761190D02*
X74066380Y-100761190D01*
X74209238Y-100856428D01*
X74304476Y-100951666D01*
X74352095Y-101046904D01*
%TO.C,R23*%
X165727142Y-72842380D02*
X165393809Y-72366190D01*
X165155714Y-72842380D02*
X165155714Y-71842380D01*
X165536666Y-71842380D01*
X165631904Y-71890000D01*
X165679523Y-71937619D01*
X165727142Y-72032857D01*
X165727142Y-72175714D01*
X165679523Y-72270952D01*
X165631904Y-72318571D01*
X165536666Y-72366190D01*
X165155714Y-72366190D01*
X166108095Y-71937619D02*
X166155714Y-71890000D01*
X166250952Y-71842380D01*
X166489047Y-71842380D01*
X166584285Y-71890000D01*
X166631904Y-71937619D01*
X166679523Y-72032857D01*
X166679523Y-72128095D01*
X166631904Y-72270952D01*
X166060476Y-72842380D01*
X166679523Y-72842380D01*
X167012857Y-71842380D02*
X167631904Y-71842380D01*
X167298571Y-72223333D01*
X167441428Y-72223333D01*
X167536666Y-72270952D01*
X167584285Y-72318571D01*
X167631904Y-72413809D01*
X167631904Y-72651904D01*
X167584285Y-72747142D01*
X167536666Y-72794761D01*
X167441428Y-72842380D01*
X167155714Y-72842380D01*
X167060476Y-72794761D01*
X167012857Y-72747142D01*
%TO.C,R22*%
X165727142Y-70302380D02*
X165393809Y-69826190D01*
X165155714Y-70302380D02*
X165155714Y-69302380D01*
X165536666Y-69302380D01*
X165631904Y-69350000D01*
X165679523Y-69397619D01*
X165727142Y-69492857D01*
X165727142Y-69635714D01*
X165679523Y-69730952D01*
X165631904Y-69778571D01*
X165536666Y-69826190D01*
X165155714Y-69826190D01*
X166108095Y-69397619D02*
X166155714Y-69350000D01*
X166250952Y-69302380D01*
X166489047Y-69302380D01*
X166584285Y-69350000D01*
X166631904Y-69397619D01*
X166679523Y-69492857D01*
X166679523Y-69588095D01*
X166631904Y-69730952D01*
X166060476Y-70302380D01*
X166679523Y-70302380D01*
X167060476Y-69397619D02*
X167108095Y-69350000D01*
X167203333Y-69302380D01*
X167441428Y-69302380D01*
X167536666Y-69350000D01*
X167584285Y-69397619D01*
X167631904Y-69492857D01*
X167631904Y-69588095D01*
X167584285Y-69730952D01*
X167012857Y-70302380D01*
X167631904Y-70302380D01*
%TO.C,R21*%
X158497142Y-71192380D02*
X158163809Y-70716190D01*
X157925714Y-71192380D02*
X157925714Y-70192380D01*
X158306666Y-70192380D01*
X158401904Y-70240000D01*
X158449523Y-70287619D01*
X158497142Y-70382857D01*
X158497142Y-70525714D01*
X158449523Y-70620952D01*
X158401904Y-70668571D01*
X158306666Y-70716190D01*
X157925714Y-70716190D01*
X158878095Y-70287619D02*
X158925714Y-70240000D01*
X159020952Y-70192380D01*
X159259047Y-70192380D01*
X159354285Y-70240000D01*
X159401904Y-70287619D01*
X159449523Y-70382857D01*
X159449523Y-70478095D01*
X159401904Y-70620952D01*
X158830476Y-71192380D01*
X159449523Y-71192380D01*
X160401904Y-71192380D02*
X159830476Y-71192380D01*
X160116190Y-71192380D02*
X160116190Y-70192380D01*
X160020952Y-70335238D01*
X159925714Y-70430476D01*
X159830476Y-70478095D01*
%TO.C,R20*%
X134222142Y-51507380D02*
X133888809Y-51031190D01*
X133650714Y-51507380D02*
X133650714Y-50507380D01*
X134031666Y-50507380D01*
X134126904Y-50555000D01*
X134174523Y-50602619D01*
X134222142Y-50697857D01*
X134222142Y-50840714D01*
X134174523Y-50935952D01*
X134126904Y-50983571D01*
X134031666Y-51031190D01*
X133650714Y-51031190D01*
X134603095Y-50602619D02*
X134650714Y-50555000D01*
X134745952Y-50507380D01*
X134984047Y-50507380D01*
X135079285Y-50555000D01*
X135126904Y-50602619D01*
X135174523Y-50697857D01*
X135174523Y-50793095D01*
X135126904Y-50935952D01*
X134555476Y-51507380D01*
X135174523Y-51507380D01*
X135793571Y-50507380D02*
X135888809Y-50507380D01*
X135984047Y-50555000D01*
X136031666Y-50602619D01*
X136079285Y-50697857D01*
X136126904Y-50888333D01*
X136126904Y-51126428D01*
X136079285Y-51316904D01*
X136031666Y-51412142D01*
X135984047Y-51459761D01*
X135888809Y-51507380D01*
X135793571Y-51507380D01*
X135698333Y-51459761D01*
X135650714Y-51412142D01*
X135603095Y-51316904D01*
X135555476Y-51126428D01*
X135555476Y-50888333D01*
X135603095Y-50697857D01*
X135650714Y-50602619D01*
X135698333Y-50555000D01*
X135793571Y-50507380D01*
%TO.C,R19*%
X181047380Y-106297857D02*
X180571190Y-106631190D01*
X181047380Y-106869285D02*
X180047380Y-106869285D01*
X180047380Y-106488333D01*
X180095000Y-106393095D01*
X180142619Y-106345476D01*
X180237857Y-106297857D01*
X180380714Y-106297857D01*
X180475952Y-106345476D01*
X180523571Y-106393095D01*
X180571190Y-106488333D01*
X180571190Y-106869285D01*
X181047380Y-105345476D02*
X181047380Y-105916904D01*
X181047380Y-105631190D02*
X180047380Y-105631190D01*
X180190238Y-105726428D01*
X180285476Y-105821666D01*
X180333095Y-105916904D01*
X181047380Y-104869285D02*
X181047380Y-104678809D01*
X180999761Y-104583571D01*
X180952142Y-104535952D01*
X180809285Y-104440714D01*
X180618809Y-104393095D01*
X180237857Y-104393095D01*
X180142619Y-104440714D01*
X180095000Y-104488333D01*
X180047380Y-104583571D01*
X180047380Y-104774047D01*
X180095000Y-104869285D01*
X180142619Y-104916904D01*
X180237857Y-104964523D01*
X180475952Y-104964523D01*
X180571190Y-104916904D01*
X180618809Y-104869285D01*
X180666428Y-104774047D01*
X180666428Y-104583571D01*
X180618809Y-104488333D01*
X180571190Y-104440714D01*
X180475952Y-104393095D01*
%TO.C,R18*%
X180332142Y-72842380D02*
X179998809Y-72366190D01*
X179760714Y-72842380D02*
X179760714Y-71842380D01*
X180141666Y-71842380D01*
X180236904Y-71890000D01*
X180284523Y-71937619D01*
X180332142Y-72032857D01*
X180332142Y-72175714D01*
X180284523Y-72270952D01*
X180236904Y-72318571D01*
X180141666Y-72366190D01*
X179760714Y-72366190D01*
X181284523Y-72842380D02*
X180713095Y-72842380D01*
X180998809Y-72842380D02*
X180998809Y-71842380D01*
X180903571Y-71985238D01*
X180808333Y-72080476D01*
X180713095Y-72128095D01*
X181855952Y-72270952D02*
X181760714Y-72223333D01*
X181713095Y-72175714D01*
X181665476Y-72080476D01*
X181665476Y-72032857D01*
X181713095Y-71937619D01*
X181760714Y-71890000D01*
X181855952Y-71842380D01*
X182046428Y-71842380D01*
X182141666Y-71890000D01*
X182189285Y-71937619D01*
X182236904Y-72032857D01*
X182236904Y-72080476D01*
X182189285Y-72175714D01*
X182141666Y-72223333D01*
X182046428Y-72270952D01*
X181855952Y-72270952D01*
X181760714Y-72318571D01*
X181713095Y-72366190D01*
X181665476Y-72461428D01*
X181665476Y-72651904D01*
X181713095Y-72747142D01*
X181760714Y-72794761D01*
X181855952Y-72842380D01*
X182046428Y-72842380D01*
X182141666Y-72794761D01*
X182189285Y-72747142D01*
X182236904Y-72651904D01*
X182236904Y-72461428D01*
X182189285Y-72366190D01*
X182141666Y-72318571D01*
X182046428Y-72270952D01*
%TO.C,R17*%
X180332142Y-75382380D02*
X179998809Y-74906190D01*
X179760714Y-75382380D02*
X179760714Y-74382380D01*
X180141666Y-74382380D01*
X180236904Y-74430000D01*
X180284523Y-74477619D01*
X180332142Y-74572857D01*
X180332142Y-74715714D01*
X180284523Y-74810952D01*
X180236904Y-74858571D01*
X180141666Y-74906190D01*
X179760714Y-74906190D01*
X181284523Y-75382380D02*
X180713095Y-75382380D01*
X180998809Y-75382380D02*
X180998809Y-74382380D01*
X180903571Y-74525238D01*
X180808333Y-74620476D01*
X180713095Y-74668095D01*
X181617857Y-74382380D02*
X182284523Y-74382380D01*
X181855952Y-75382380D01*
%TO.C,R16*%
X180332142Y-70302380D02*
X179998809Y-69826190D01*
X179760714Y-70302380D02*
X179760714Y-69302380D01*
X180141666Y-69302380D01*
X180236904Y-69350000D01*
X180284523Y-69397619D01*
X180332142Y-69492857D01*
X180332142Y-69635714D01*
X180284523Y-69730952D01*
X180236904Y-69778571D01*
X180141666Y-69826190D01*
X179760714Y-69826190D01*
X181284523Y-70302380D02*
X180713095Y-70302380D01*
X180998809Y-70302380D02*
X180998809Y-69302380D01*
X180903571Y-69445238D01*
X180808333Y-69540476D01*
X180713095Y-69588095D01*
X182141666Y-69302380D02*
X181951190Y-69302380D01*
X181855952Y-69350000D01*
X181808333Y-69397619D01*
X181713095Y-69540476D01*
X181665476Y-69730952D01*
X181665476Y-70111904D01*
X181713095Y-70207142D01*
X181760714Y-70254761D01*
X181855952Y-70302380D01*
X182046428Y-70302380D01*
X182141666Y-70254761D01*
X182189285Y-70207142D01*
X182236904Y-70111904D01*
X182236904Y-69873809D01*
X182189285Y-69778571D01*
X182141666Y-69730952D01*
X182046428Y-69683333D01*
X181855952Y-69683333D01*
X181760714Y-69730952D01*
X181713095Y-69778571D01*
X181665476Y-69873809D01*
%TO.C,R15*%
X73477380Y-76842857D02*
X73001190Y-77176190D01*
X73477380Y-77414285D02*
X72477380Y-77414285D01*
X72477380Y-77033333D01*
X72525000Y-76938095D01*
X72572619Y-76890476D01*
X72667857Y-76842857D01*
X72810714Y-76842857D01*
X72905952Y-76890476D01*
X72953571Y-76938095D01*
X73001190Y-77033333D01*
X73001190Y-77414285D01*
X73477380Y-75890476D02*
X73477380Y-76461904D01*
X73477380Y-76176190D02*
X72477380Y-76176190D01*
X72620238Y-76271428D01*
X72715476Y-76366666D01*
X72763095Y-76461904D01*
X72477380Y-74985714D02*
X72477380Y-75461904D01*
X72953571Y-75509523D01*
X72905952Y-75461904D01*
X72858333Y-75366666D01*
X72858333Y-75128571D01*
X72905952Y-75033333D01*
X72953571Y-74985714D01*
X73048809Y-74938095D01*
X73286904Y-74938095D01*
X73382142Y-74985714D01*
X73429761Y-75033333D01*
X73477380Y-75128571D01*
X73477380Y-75366666D01*
X73429761Y-75461904D01*
X73382142Y-75509523D01*
%TO.C,R14*%
X78557380Y-76842857D02*
X78081190Y-77176190D01*
X78557380Y-77414285D02*
X77557380Y-77414285D01*
X77557380Y-77033333D01*
X77605000Y-76938095D01*
X77652619Y-76890476D01*
X77747857Y-76842857D01*
X77890714Y-76842857D01*
X77985952Y-76890476D01*
X78033571Y-76938095D01*
X78081190Y-77033333D01*
X78081190Y-77414285D01*
X78557380Y-75890476D02*
X78557380Y-76461904D01*
X78557380Y-76176190D02*
X77557380Y-76176190D01*
X77700238Y-76271428D01*
X77795476Y-76366666D01*
X77843095Y-76461904D01*
X77890714Y-75033333D02*
X78557380Y-75033333D01*
X77509761Y-75271428D02*
X78224047Y-75509523D01*
X78224047Y-74890476D01*
%TO.C,R13*%
X180332142Y-80462380D02*
X179998809Y-79986190D01*
X179760714Y-80462380D02*
X179760714Y-79462380D01*
X180141666Y-79462380D01*
X180236904Y-79510000D01*
X180284523Y-79557619D01*
X180332142Y-79652857D01*
X180332142Y-79795714D01*
X180284523Y-79890952D01*
X180236904Y-79938571D01*
X180141666Y-79986190D01*
X179760714Y-79986190D01*
X181284523Y-80462380D02*
X180713095Y-80462380D01*
X180998809Y-80462380D02*
X180998809Y-79462380D01*
X180903571Y-79605238D01*
X180808333Y-79700476D01*
X180713095Y-79748095D01*
X181617857Y-79462380D02*
X182236904Y-79462380D01*
X181903571Y-79843333D01*
X182046428Y-79843333D01*
X182141666Y-79890952D01*
X182189285Y-79938571D01*
X182236904Y-80033809D01*
X182236904Y-80271904D01*
X182189285Y-80367142D01*
X182141666Y-80414761D01*
X182046428Y-80462380D01*
X181760714Y-80462380D01*
X181665476Y-80414761D01*
X181617857Y-80367142D01*
%TO.C,R12*%
X180332142Y-77922380D02*
X179998809Y-77446190D01*
X179760714Y-77922380D02*
X179760714Y-76922380D01*
X180141666Y-76922380D01*
X180236904Y-76970000D01*
X180284523Y-77017619D01*
X180332142Y-77112857D01*
X180332142Y-77255714D01*
X180284523Y-77350952D01*
X180236904Y-77398571D01*
X180141666Y-77446190D01*
X179760714Y-77446190D01*
X181284523Y-77922380D02*
X180713095Y-77922380D01*
X180998809Y-77922380D02*
X180998809Y-76922380D01*
X180903571Y-77065238D01*
X180808333Y-77160476D01*
X180713095Y-77208095D01*
X181665476Y-77017619D02*
X181713095Y-76970000D01*
X181808333Y-76922380D01*
X182046428Y-76922380D01*
X182141666Y-76970000D01*
X182189285Y-77017619D01*
X182236904Y-77112857D01*
X182236904Y-77208095D01*
X182189285Y-77350952D01*
X181617857Y-77922380D01*
X182236904Y-77922380D01*
%TO.C,R11*%
X76017380Y-76842857D02*
X75541190Y-77176190D01*
X76017380Y-77414285D02*
X75017380Y-77414285D01*
X75017380Y-77033333D01*
X75065000Y-76938095D01*
X75112619Y-76890476D01*
X75207857Y-76842857D01*
X75350714Y-76842857D01*
X75445952Y-76890476D01*
X75493571Y-76938095D01*
X75541190Y-77033333D01*
X75541190Y-77414285D01*
X76017380Y-75890476D02*
X76017380Y-76461904D01*
X76017380Y-76176190D02*
X75017380Y-76176190D01*
X75160238Y-76271428D01*
X75255476Y-76366666D01*
X75303095Y-76461904D01*
X76017380Y-74938095D02*
X76017380Y-75509523D01*
X76017380Y-75223809D02*
X75017380Y-75223809D01*
X75160238Y-75319047D01*
X75255476Y-75414285D01*
X75303095Y-75509523D01*
%TO.C,R10*%
X180332142Y-83002380D02*
X179998809Y-82526190D01*
X179760714Y-83002380D02*
X179760714Y-82002380D01*
X180141666Y-82002380D01*
X180236904Y-82050000D01*
X180284523Y-82097619D01*
X180332142Y-82192857D01*
X180332142Y-82335714D01*
X180284523Y-82430952D01*
X180236904Y-82478571D01*
X180141666Y-82526190D01*
X179760714Y-82526190D01*
X181284523Y-83002380D02*
X180713095Y-83002380D01*
X180998809Y-83002380D02*
X180998809Y-82002380D01*
X180903571Y-82145238D01*
X180808333Y-82240476D01*
X180713095Y-82288095D01*
X181903571Y-82002380D02*
X181998809Y-82002380D01*
X182094047Y-82050000D01*
X182141666Y-82097619D01*
X182189285Y-82192857D01*
X182236904Y-82383333D01*
X182236904Y-82621428D01*
X182189285Y-82811904D01*
X182141666Y-82907142D01*
X182094047Y-82954761D01*
X181998809Y-83002380D01*
X181903571Y-83002380D01*
X181808333Y-82954761D01*
X181760714Y-82907142D01*
X181713095Y-82811904D01*
X181665476Y-82621428D01*
X181665476Y-82383333D01*
X181713095Y-82192857D01*
X181760714Y-82097619D01*
X181808333Y-82050000D01*
X181903571Y-82002380D01*
%TO.C,R9*%
X78302380Y-95171666D02*
X77826190Y-95505000D01*
X78302380Y-95743095D02*
X77302380Y-95743095D01*
X77302380Y-95362142D01*
X77350000Y-95266904D01*
X77397619Y-95219285D01*
X77492857Y-95171666D01*
X77635714Y-95171666D01*
X77730952Y-95219285D01*
X77778571Y-95266904D01*
X77826190Y-95362142D01*
X77826190Y-95743095D01*
X78302380Y-94695476D02*
X78302380Y-94505000D01*
X78254761Y-94409761D01*
X78207142Y-94362142D01*
X78064285Y-94266904D01*
X77873809Y-94219285D01*
X77492857Y-94219285D01*
X77397619Y-94266904D01*
X77350000Y-94314523D01*
X77302380Y-94409761D01*
X77302380Y-94600238D01*
X77350000Y-94695476D01*
X77397619Y-94743095D01*
X77492857Y-94790714D01*
X77730952Y-94790714D01*
X77826190Y-94743095D01*
X77873809Y-94695476D01*
X77921428Y-94600238D01*
X77921428Y-94409761D01*
X77873809Y-94314523D01*
X77826190Y-94266904D01*
X77730952Y-94219285D01*
%TO.C,Q1*%
X188134761Y-103457619D02*
X188039523Y-103410000D01*
X187944285Y-103314761D01*
X187801428Y-103171904D01*
X187706190Y-103124285D01*
X187610952Y-103124285D01*
X187658571Y-103362380D02*
X187563333Y-103314761D01*
X187468095Y-103219523D01*
X187420476Y-103029047D01*
X187420476Y-102695714D01*
X187468095Y-102505238D01*
X187563333Y-102410000D01*
X187658571Y-102362380D01*
X187849047Y-102362380D01*
X187944285Y-102410000D01*
X188039523Y-102505238D01*
X188087142Y-102695714D01*
X188087142Y-103029047D01*
X188039523Y-103219523D01*
X187944285Y-103314761D01*
X187849047Y-103362380D01*
X187658571Y-103362380D01*
X189039523Y-103362380D02*
X188468095Y-103362380D01*
X188753809Y-103362380D02*
X188753809Y-102362380D01*
X188658571Y-102505238D01*
X188563333Y-102600476D01*
X188468095Y-102648095D01*
%TO.C,C8*%
X78207142Y-102401666D02*
X78254761Y-102449285D01*
X78302380Y-102592142D01*
X78302380Y-102687380D01*
X78254761Y-102830238D01*
X78159523Y-102925476D01*
X78064285Y-102973095D01*
X77873809Y-103020714D01*
X77730952Y-103020714D01*
X77540476Y-102973095D01*
X77445238Y-102925476D01*
X77350000Y-102830238D01*
X77302380Y-102687380D01*
X77302380Y-102592142D01*
X77350000Y-102449285D01*
X77397619Y-102401666D01*
X77730952Y-101830238D02*
X77683333Y-101925476D01*
X77635714Y-101973095D01*
X77540476Y-102020714D01*
X77492857Y-102020714D01*
X77397619Y-101973095D01*
X77350000Y-101925476D01*
X77302380Y-101830238D01*
X77302380Y-101639761D01*
X77350000Y-101544523D01*
X77397619Y-101496904D01*
X77492857Y-101449285D01*
X77540476Y-101449285D01*
X77635714Y-101496904D01*
X77683333Y-101544523D01*
X77730952Y-101639761D01*
X77730952Y-101830238D01*
X77778571Y-101925476D01*
X77826190Y-101973095D01*
X77921428Y-102020714D01*
X78111904Y-102020714D01*
X78207142Y-101973095D01*
X78254761Y-101925476D01*
X78302380Y-101830238D01*
X78302380Y-101639761D01*
X78254761Y-101544523D01*
X78207142Y-101496904D01*
X78111904Y-101449285D01*
X77921428Y-101449285D01*
X77826190Y-101496904D01*
X77778571Y-101544523D01*
X77730952Y-101639761D01*
%TO.C,C7*%
X62308333Y-67287142D02*
X62260714Y-67334761D01*
X62117857Y-67382380D01*
X62022619Y-67382380D01*
X61879761Y-67334761D01*
X61784523Y-67239523D01*
X61736904Y-67144285D01*
X61689285Y-66953809D01*
X61689285Y-66810952D01*
X61736904Y-66620476D01*
X61784523Y-66525238D01*
X61879761Y-66430000D01*
X62022619Y-66382380D01*
X62117857Y-66382380D01*
X62260714Y-66430000D01*
X62308333Y-66477619D01*
X62641666Y-66382380D02*
X63308333Y-66382380D01*
X62879761Y-67382380D01*
%TO.C,A1*%
X122086666Y-104854285D02*
X122086666Y-104378095D01*
X122372380Y-104949523D02*
X121372380Y-104616190D01*
X122372380Y-104282857D01*
X122372380Y-103425714D02*
X122372380Y-103997142D01*
X122372380Y-103711428D02*
X121372380Y-103711428D01*
X121515238Y-103806666D01*
X121610476Y-103901904D01*
X121658095Y-103997142D01*
%TO.C,A2*%
X185586666Y-134064285D02*
X185586666Y-133588095D01*
X185872380Y-134159523D02*
X184872380Y-133826190D01*
X185872380Y-133492857D01*
X184967619Y-133207142D02*
X184920000Y-133159523D01*
X184872380Y-133064285D01*
X184872380Y-132826190D01*
X184920000Y-132730952D01*
X184967619Y-132683333D01*
X185062857Y-132635714D01*
X185158095Y-132635714D01*
X185300952Y-132683333D01*
X185872380Y-133254761D01*
X185872380Y-132635714D01*
%TO.C,C1*%
X74187142Y-118756666D02*
X74234761Y-118804285D01*
X74282380Y-118947142D01*
X74282380Y-119042380D01*
X74234761Y-119185238D01*
X74139523Y-119280476D01*
X74044285Y-119328095D01*
X73853809Y-119375714D01*
X73710952Y-119375714D01*
X73520476Y-119328095D01*
X73425238Y-119280476D01*
X73330000Y-119185238D01*
X73282380Y-119042380D01*
X73282380Y-118947142D01*
X73330000Y-118804285D01*
X73377619Y-118756666D01*
X74282380Y-117804285D02*
X74282380Y-118375714D01*
X74282380Y-118090000D02*
X73282380Y-118090000D01*
X73425238Y-118185238D01*
X73520476Y-118280476D01*
X73568095Y-118375714D01*
%TO.C,C2*%
X76728333Y-73107142D02*
X76680714Y-73154761D01*
X76537857Y-73202380D01*
X76442619Y-73202380D01*
X76299761Y-73154761D01*
X76204523Y-73059523D01*
X76156904Y-72964285D01*
X76109285Y-72773809D01*
X76109285Y-72630952D01*
X76156904Y-72440476D01*
X76204523Y-72345238D01*
X76299761Y-72250000D01*
X76442619Y-72202380D01*
X76537857Y-72202380D01*
X76680714Y-72250000D01*
X76728333Y-72297619D01*
X77109285Y-72297619D02*
X77156904Y-72250000D01*
X77252142Y-72202380D01*
X77490238Y-72202380D01*
X77585476Y-72250000D01*
X77633095Y-72297619D01*
X77680714Y-72392857D01*
X77680714Y-72488095D01*
X77633095Y-72630952D01*
X77061666Y-73202380D01*
X77680714Y-73202380D01*
%TO.C,C3*%
X182857142Y-66206666D02*
X182904761Y-66254285D01*
X182952380Y-66397142D01*
X182952380Y-66492380D01*
X182904761Y-66635238D01*
X182809523Y-66730476D01*
X182714285Y-66778095D01*
X182523809Y-66825714D01*
X182380952Y-66825714D01*
X182190476Y-66778095D01*
X182095238Y-66730476D01*
X182000000Y-66635238D01*
X181952380Y-66492380D01*
X181952380Y-66397142D01*
X182000000Y-66254285D01*
X182047619Y-66206666D01*
X181952380Y-65873333D02*
X181952380Y-65254285D01*
X182333333Y-65587619D01*
X182333333Y-65444761D01*
X182380952Y-65349523D01*
X182428571Y-65301904D01*
X182523809Y-65254285D01*
X182761904Y-65254285D01*
X182857142Y-65301904D01*
X182904761Y-65349523D01*
X182952380Y-65444761D01*
X182952380Y-65730476D01*
X182904761Y-65825714D01*
X182857142Y-65873333D01*
%TO.C,C4*%
X127078333Y-38077142D02*
X127030714Y-38124761D01*
X126887857Y-38172380D01*
X126792619Y-38172380D01*
X126649761Y-38124761D01*
X126554523Y-38029523D01*
X126506904Y-37934285D01*
X126459285Y-37743809D01*
X126459285Y-37600952D01*
X126506904Y-37410476D01*
X126554523Y-37315238D01*
X126649761Y-37220000D01*
X126792619Y-37172380D01*
X126887857Y-37172380D01*
X127030714Y-37220000D01*
X127078333Y-37267619D01*
X127935476Y-37505714D02*
X127935476Y-38172380D01*
X127697380Y-37124761D02*
X127459285Y-37839047D01*
X128078333Y-37839047D01*
%TO.C,C5*%
X207466841Y-133671666D02*
X207514460Y-133719285D01*
X207562079Y-133862142D01*
X207562079Y-133957380D01*
X207514460Y-134100238D01*
X207419222Y-134195476D01*
X207323984Y-134243095D01*
X207133508Y-134290714D01*
X206990651Y-134290714D01*
X206800175Y-134243095D01*
X206704937Y-134195476D01*
X206609699Y-134100238D01*
X206562079Y-133957380D01*
X206562079Y-133862142D01*
X206609699Y-133719285D01*
X206657318Y-133671666D01*
X206562079Y-132766904D02*
X206562079Y-133243095D01*
X207038270Y-133290714D01*
X206990651Y-133243095D01*
X206943032Y-133147857D01*
X206943032Y-132909761D01*
X206990651Y-132814523D01*
X207038270Y-132766904D01*
X207133508Y-132719285D01*
X207371603Y-132719285D01*
X207466841Y-132766904D01*
X207514460Y-132814523D01*
X207562079Y-132909761D01*
X207562079Y-133147857D01*
X207514460Y-133243095D01*
X207466841Y-133290714D01*
%TO.C,C6*%
X147788333Y-94082142D02*
X147740714Y-94129761D01*
X147597857Y-94177380D01*
X147502619Y-94177380D01*
X147359761Y-94129761D01*
X147264523Y-94034523D01*
X147216904Y-93939285D01*
X147169285Y-93748809D01*
X147169285Y-93605952D01*
X147216904Y-93415476D01*
X147264523Y-93320238D01*
X147359761Y-93225000D01*
X147502619Y-93177380D01*
X147597857Y-93177380D01*
X147740714Y-93225000D01*
X147788333Y-93272619D01*
X148645476Y-93177380D02*
X148455000Y-93177380D01*
X148359761Y-93225000D01*
X148312142Y-93272619D01*
X148216904Y-93415476D01*
X148169285Y-93605952D01*
X148169285Y-93986904D01*
X148216904Y-94082142D01*
X148264523Y-94129761D01*
X148359761Y-94177380D01*
X148550238Y-94177380D01*
X148645476Y-94129761D01*
X148693095Y-94082142D01*
X148740714Y-93986904D01*
X148740714Y-93748809D01*
X148693095Y-93653571D01*
X148645476Y-93605952D01*
X148550238Y-93558333D01*
X148359761Y-93558333D01*
X148264523Y-93605952D01*
X148216904Y-93653571D01*
X148169285Y-93748809D01*
%TO.C,D1*%
X91336904Y-91822380D02*
X91336904Y-90822380D01*
X91575000Y-90822380D01*
X91717857Y-90870000D01*
X91813095Y-90965238D01*
X91860714Y-91060476D01*
X91908333Y-91250952D01*
X91908333Y-91393809D01*
X91860714Y-91584285D01*
X91813095Y-91679523D01*
X91717857Y-91774761D01*
X91575000Y-91822380D01*
X91336904Y-91822380D01*
X92860714Y-91822380D02*
X92289285Y-91822380D01*
X92575000Y-91822380D02*
X92575000Y-90822380D01*
X92479761Y-90965238D01*
X92384523Y-91060476D01*
X92289285Y-91108095D01*
X96893095Y-91452380D02*
X96893095Y-90452380D01*
X97464523Y-91452380D02*
X97035952Y-90880952D01*
X97464523Y-90452380D02*
X96893095Y-91023809D01*
%TO.C,D2*%
X135151904Y-142622380D02*
X135151904Y-141622380D01*
X135390000Y-141622380D01*
X135532857Y-141670000D01*
X135628095Y-141765238D01*
X135675714Y-141860476D01*
X135723333Y-142050952D01*
X135723333Y-142193809D01*
X135675714Y-142384285D01*
X135628095Y-142479523D01*
X135532857Y-142574761D01*
X135390000Y-142622380D01*
X135151904Y-142622380D01*
X136104285Y-141717619D02*
X136151904Y-141670000D01*
X136247142Y-141622380D01*
X136485238Y-141622380D01*
X136580476Y-141670000D01*
X136628095Y-141717619D01*
X136675714Y-141812857D01*
X136675714Y-141908095D01*
X136628095Y-142050952D01*
X136056666Y-142622380D01*
X136675714Y-142622380D01*
X140708095Y-142252380D02*
X140708095Y-141252380D01*
X141279523Y-142252380D02*
X140850952Y-141680952D01*
X141279523Y-141252380D02*
X140708095Y-141823809D01*
%TO.C,D3*%
X72921904Y-91802380D02*
X72921904Y-90802380D01*
X73160000Y-90802380D01*
X73302857Y-90850000D01*
X73398095Y-90945238D01*
X73445714Y-91040476D01*
X73493333Y-91230952D01*
X73493333Y-91373809D01*
X73445714Y-91564285D01*
X73398095Y-91659523D01*
X73302857Y-91754761D01*
X73160000Y-91802380D01*
X72921904Y-91802380D01*
X73826666Y-90802380D02*
X74445714Y-90802380D01*
X74112380Y-91183333D01*
X74255238Y-91183333D01*
X74350476Y-91230952D01*
X74398095Y-91278571D01*
X74445714Y-91373809D01*
X74445714Y-91611904D01*
X74398095Y-91707142D01*
X74350476Y-91754761D01*
X74255238Y-91802380D01*
X73969523Y-91802380D01*
X73874285Y-91754761D01*
X73826666Y-91707142D01*
X81018095Y-90682380D02*
X81018095Y-89682380D01*
X81589523Y-90682380D02*
X81160952Y-90110952D01*
X81589523Y-89682380D02*
X81018095Y-90253809D01*
%TO.C,F1*%
X174926666Y-150558571D02*
X174593333Y-150558571D01*
X174593333Y-151082380D02*
X174593333Y-150082380D01*
X175069523Y-150082380D01*
X175974285Y-151082380D02*
X175402857Y-151082380D01*
X175688571Y-151082380D02*
X175688571Y-150082380D01*
X175593333Y-150225238D01*
X175498095Y-150320476D01*
X175402857Y-150368095D01*
X174117142Y-152328571D02*
X173783809Y-152328571D01*
X173783809Y-152852380D02*
X173783809Y-151852380D01*
X174260000Y-151852380D01*
X175069523Y-152185714D02*
X175069523Y-152852380D01*
X174640952Y-152185714D02*
X174640952Y-152709523D01*
X174688571Y-152804761D01*
X174783809Y-152852380D01*
X174926666Y-152852380D01*
X175021904Y-152804761D01*
X175069523Y-152757142D01*
X175498095Y-152804761D02*
X175593333Y-152852380D01*
X175783809Y-152852380D01*
X175879047Y-152804761D01*
X175926666Y-152709523D01*
X175926666Y-152661904D01*
X175879047Y-152566666D01*
X175783809Y-152519047D01*
X175640952Y-152519047D01*
X175545714Y-152471428D01*
X175498095Y-152376190D01*
X175498095Y-152328571D01*
X175545714Y-152233333D01*
X175640952Y-152185714D01*
X175783809Y-152185714D01*
X175879047Y-152233333D01*
X176736190Y-152804761D02*
X176640952Y-152852380D01*
X176450476Y-152852380D01*
X176355238Y-152804761D01*
X176307619Y-152709523D01*
X176307619Y-152328571D01*
X176355238Y-152233333D01*
X176450476Y-152185714D01*
X176640952Y-152185714D01*
X176736190Y-152233333D01*
X176783809Y-152328571D01*
X176783809Y-152423809D01*
X176307619Y-152519047D01*
%TO.C,J2*%
X98091666Y-149947380D02*
X98091666Y-150661666D01*
X98044047Y-150804523D01*
X97948809Y-150899761D01*
X97805952Y-150947380D01*
X97710714Y-150947380D01*
X98520238Y-150042619D02*
X98567857Y-149995000D01*
X98663095Y-149947380D01*
X98901190Y-149947380D01*
X98996428Y-149995000D01*
X99044047Y-150042619D01*
X99091666Y-150137857D01*
X99091666Y-150233095D01*
X99044047Y-150375952D01*
X98472619Y-150947380D01*
X99091666Y-150947380D01*
X86122142Y-134072380D02*
X86122142Y-134881904D01*
X86169761Y-134977142D01*
X86217380Y-135024761D01*
X86312619Y-135072380D01*
X86503095Y-135072380D01*
X86598333Y-135024761D01*
X86645952Y-134977142D01*
X86693571Y-134881904D01*
X86693571Y-134072380D01*
X87122142Y-135024761D02*
X87265000Y-135072380D01*
X87503095Y-135072380D01*
X87598333Y-135024761D01*
X87645952Y-134977142D01*
X87693571Y-134881904D01*
X87693571Y-134786666D01*
X87645952Y-134691428D01*
X87598333Y-134643809D01*
X87503095Y-134596190D01*
X87312619Y-134548571D01*
X87217380Y-134500952D01*
X87169761Y-134453333D01*
X87122142Y-134358095D01*
X87122142Y-134262857D01*
X87169761Y-134167619D01*
X87217380Y-134120000D01*
X87312619Y-134072380D01*
X87550714Y-134072380D01*
X87693571Y-134120000D01*
X88455476Y-134548571D02*
X88598333Y-134596190D01*
X88645952Y-134643809D01*
X88693571Y-134739047D01*
X88693571Y-134881904D01*
X88645952Y-134977142D01*
X88598333Y-135024761D01*
X88503095Y-135072380D01*
X88122142Y-135072380D01*
X88122142Y-134072380D01*
X88455476Y-134072380D01*
X88550714Y-134120000D01*
X88598333Y-134167619D01*
X88645952Y-134262857D01*
X88645952Y-134358095D01*
X88598333Y-134453333D01*
X88550714Y-134500952D01*
X88455476Y-134548571D01*
X88122142Y-134548571D01*
X88884047Y-135167619D02*
X89645952Y-135167619D01*
X90217380Y-134548571D02*
X90360238Y-134596190D01*
X90407857Y-134643809D01*
X90455476Y-134739047D01*
X90455476Y-134881904D01*
X90407857Y-134977142D01*
X90360238Y-135024761D01*
X90265000Y-135072380D01*
X89884047Y-135072380D01*
X89884047Y-134072380D01*
X90217380Y-134072380D01*
X90312619Y-134120000D01*
X90360238Y-134167619D01*
X90407857Y-134262857D01*
X90407857Y-134358095D01*
X90360238Y-134453333D01*
X90312619Y-134500952D01*
X90217380Y-134548571D01*
X89884047Y-134548571D01*
%TO.C,J3*%
X124126666Y-149947380D02*
X124126666Y-150661666D01*
X124079047Y-150804523D01*
X123983809Y-150899761D01*
X123840952Y-150947380D01*
X123745714Y-150947380D01*
X124507619Y-149947380D02*
X125126666Y-149947380D01*
X124793333Y-150328333D01*
X124936190Y-150328333D01*
X125031428Y-150375952D01*
X125079047Y-150423571D01*
X125126666Y-150518809D01*
X125126666Y-150756904D01*
X125079047Y-150852142D01*
X125031428Y-150899761D01*
X124936190Y-150947380D01*
X124650476Y-150947380D01*
X124555238Y-150899761D01*
X124507619Y-150852142D01*
X131620000Y-145697380D02*
X131620000Y-144697380D01*
X132000952Y-144697380D01*
X132096190Y-144745000D01*
X132143809Y-144792619D01*
X132191428Y-144887857D01*
X132191428Y-145030714D01*
X132143809Y-145125952D01*
X132096190Y-145173571D01*
X132000952Y-145221190D01*
X131620000Y-145221190D01*
X132620000Y-145697380D02*
X132620000Y-145030714D01*
X132620000Y-145221190D02*
X132667619Y-145125952D01*
X132715238Y-145078333D01*
X132810476Y-145030714D01*
X132905714Y-145030714D01*
X133620000Y-145649761D02*
X133524761Y-145697380D01*
X133334285Y-145697380D01*
X133239047Y-145649761D01*
X133191428Y-145554523D01*
X133191428Y-145173571D01*
X133239047Y-145078333D01*
X133334285Y-145030714D01*
X133524761Y-145030714D01*
X133620000Y-145078333D01*
X133667619Y-145173571D01*
X133667619Y-145268809D01*
X133191428Y-145364047D01*
X134048571Y-145649761D02*
X134143809Y-145697380D01*
X134334285Y-145697380D01*
X134429523Y-145649761D01*
X134477142Y-145554523D01*
X134477142Y-145506904D01*
X134429523Y-145411666D01*
X134334285Y-145364047D01*
X134191428Y-145364047D01*
X134096190Y-145316428D01*
X134048571Y-145221190D01*
X134048571Y-145173571D01*
X134096190Y-145078333D01*
X134191428Y-145030714D01*
X134334285Y-145030714D01*
X134429523Y-145078333D01*
X134858095Y-145649761D02*
X134953333Y-145697380D01*
X135143809Y-145697380D01*
X135239047Y-145649761D01*
X135286666Y-145554523D01*
X135286666Y-145506904D01*
X135239047Y-145411666D01*
X135143809Y-145364047D01*
X135000952Y-145364047D01*
X134905714Y-145316428D01*
X134858095Y-145221190D01*
X134858095Y-145173571D01*
X134905714Y-145078333D01*
X135000952Y-145030714D01*
X135143809Y-145030714D01*
X135239047Y-145078333D01*
X136143809Y-145030714D02*
X136143809Y-145697380D01*
X135715238Y-145030714D02*
X135715238Y-145554523D01*
X135762857Y-145649761D01*
X135858095Y-145697380D01*
X136000952Y-145697380D01*
X136096190Y-145649761D01*
X136143809Y-145602142D01*
X136620000Y-145697380D02*
X136620000Y-145030714D01*
X136620000Y-145221190D02*
X136667619Y-145125952D01*
X136715238Y-145078333D01*
X136810476Y-145030714D01*
X136905714Y-145030714D01*
X137620000Y-145649761D02*
X137524761Y-145697380D01*
X137334285Y-145697380D01*
X137239047Y-145649761D01*
X137191428Y-145554523D01*
X137191428Y-145173571D01*
X137239047Y-145078333D01*
X137334285Y-145030714D01*
X137524761Y-145030714D01*
X137620000Y-145078333D01*
X137667619Y-145173571D01*
X137667619Y-145268809D01*
X137191428Y-145364047D01*
%TO.C,J4*%
X183816666Y-149312380D02*
X183816666Y-150026666D01*
X183769047Y-150169523D01*
X183673809Y-150264761D01*
X183530952Y-150312380D01*
X183435714Y-150312380D01*
X184721428Y-149645714D02*
X184721428Y-150312380D01*
X184483333Y-149264761D02*
X184245238Y-149979047D01*
X184864285Y-149979047D01*
X193520714Y-144927380D02*
X193520714Y-143927380D01*
X193854047Y-144641666D01*
X194187380Y-143927380D01*
X194187380Y-144927380D01*
X194806428Y-144927380D02*
X194711190Y-144879761D01*
X194663571Y-144832142D01*
X194615952Y-144736904D01*
X194615952Y-144451190D01*
X194663571Y-144355952D01*
X194711190Y-144308333D01*
X194806428Y-144260714D01*
X194949285Y-144260714D01*
X195044523Y-144308333D01*
X195092142Y-144355952D01*
X195139761Y-144451190D01*
X195139761Y-144736904D01*
X195092142Y-144832142D01*
X195044523Y-144879761D01*
X194949285Y-144927380D01*
X194806428Y-144927380D01*
X195425476Y-144260714D02*
X195806428Y-144260714D01*
X195568333Y-143927380D02*
X195568333Y-144784523D01*
X195615952Y-144879761D01*
X195711190Y-144927380D01*
X195806428Y-144927380D01*
X196282619Y-144927380D02*
X196187380Y-144879761D01*
X196139761Y-144832142D01*
X196092142Y-144736904D01*
X196092142Y-144451190D01*
X196139761Y-144355952D01*
X196187380Y-144308333D01*
X196282619Y-144260714D01*
X196425476Y-144260714D01*
X196520714Y-144308333D01*
X196568333Y-144355952D01*
X196615952Y-144451190D01*
X196615952Y-144736904D01*
X196568333Y-144832142D01*
X196520714Y-144879761D01*
X196425476Y-144927380D01*
X196282619Y-144927380D01*
X197044523Y-144927380D02*
X197044523Y-144260714D01*
X197044523Y-144451190D02*
X197092142Y-144355952D01*
X197139761Y-144308333D01*
X197235000Y-144260714D01*
X197330238Y-144260714D01*
X198758809Y-144403571D02*
X198901666Y-144451190D01*
X198949285Y-144498809D01*
X198996904Y-144594047D01*
X198996904Y-144736904D01*
X198949285Y-144832142D01*
X198901666Y-144879761D01*
X198806428Y-144927380D01*
X198425476Y-144927380D01*
X198425476Y-143927380D01*
X198758809Y-143927380D01*
X198854047Y-143975000D01*
X198901666Y-144022619D01*
X198949285Y-144117857D01*
X198949285Y-144213095D01*
X198901666Y-144308333D01*
X198854047Y-144355952D01*
X198758809Y-144403571D01*
X198425476Y-144403571D01*
%TO.C,J5*%
X159686666Y-149947380D02*
X159686666Y-150661666D01*
X159639047Y-150804523D01*
X159543809Y-150899761D01*
X159400952Y-150947380D01*
X159305714Y-150947380D01*
X160639047Y-149947380D02*
X160162857Y-149947380D01*
X160115238Y-150423571D01*
X160162857Y-150375952D01*
X160258095Y-150328333D01*
X160496190Y-150328333D01*
X160591428Y-150375952D01*
X160639047Y-150423571D01*
X160686666Y-150518809D01*
X160686666Y-150756904D01*
X160639047Y-150852142D01*
X160591428Y-150899761D01*
X160496190Y-150947380D01*
X160258095Y-150947380D01*
X160162857Y-150899761D01*
X160115238Y-150852142D01*
X149296666Y-145697380D02*
X149296666Y-144697380D01*
X149296666Y-145173571D02*
X149868095Y-145173571D01*
X149868095Y-145697380D02*
X149868095Y-144697380D01*
X150534761Y-144697380D02*
X150725238Y-144697380D01*
X150820476Y-144745000D01*
X150915714Y-144840238D01*
X150963333Y-145030714D01*
X150963333Y-145364047D01*
X150915714Y-145554523D01*
X150820476Y-145649761D01*
X150725238Y-145697380D01*
X150534761Y-145697380D01*
X150439523Y-145649761D01*
X150344285Y-145554523D01*
X150296666Y-145364047D01*
X150296666Y-145030714D01*
X150344285Y-144840238D01*
X150439523Y-144745000D01*
X150534761Y-144697380D01*
X151391904Y-145697380D02*
X151391904Y-144697380D01*
X151725238Y-145411666D01*
X152058571Y-144697380D01*
X152058571Y-145697380D01*
X152534761Y-145173571D02*
X152868095Y-145173571D01*
X153010952Y-145697380D02*
X152534761Y-145697380D01*
X152534761Y-144697380D01*
X153010952Y-144697380D01*
%TO.C,L1*%
X63293333Y-72957380D02*
X62817142Y-72957380D01*
X62817142Y-71957380D01*
X64150476Y-72957380D02*
X63579047Y-72957380D01*
X63864761Y-72957380D02*
X63864761Y-71957380D01*
X63769523Y-72100238D01*
X63674285Y-72195476D01*
X63579047Y-72243095D01*
%TO.C,R1*%
X132158333Y-84652380D02*
X131825000Y-84176190D01*
X131586904Y-84652380D02*
X131586904Y-83652380D01*
X131967857Y-83652380D01*
X132063095Y-83700000D01*
X132110714Y-83747619D01*
X132158333Y-83842857D01*
X132158333Y-83985714D01*
X132110714Y-84080952D01*
X132063095Y-84128571D01*
X131967857Y-84176190D01*
X131586904Y-84176190D01*
X133110714Y-84652380D02*
X132539285Y-84652380D01*
X132825000Y-84652380D02*
X132825000Y-83652380D01*
X132729761Y-83795238D01*
X132634523Y-83890476D01*
X132539285Y-83938095D01*
%TO.C,R2*%
X116918333Y-78557380D02*
X116585000Y-78081190D01*
X116346904Y-78557380D02*
X116346904Y-77557380D01*
X116727857Y-77557380D01*
X116823095Y-77605000D01*
X116870714Y-77652619D01*
X116918333Y-77747857D01*
X116918333Y-77890714D01*
X116870714Y-77985952D01*
X116823095Y-78033571D01*
X116727857Y-78081190D01*
X116346904Y-78081190D01*
X117299285Y-77652619D02*
X117346904Y-77605000D01*
X117442142Y-77557380D01*
X117680238Y-77557380D01*
X117775476Y-77605000D01*
X117823095Y-77652619D01*
X117870714Y-77747857D01*
X117870714Y-77843095D01*
X117823095Y-77985952D01*
X117251666Y-78557380D01*
X117870714Y-78557380D01*
%TO.C,R3*%
X132158333Y-78812380D02*
X131825000Y-78336190D01*
X131586904Y-78812380D02*
X131586904Y-77812380D01*
X131967857Y-77812380D01*
X132063095Y-77860000D01*
X132110714Y-77907619D01*
X132158333Y-78002857D01*
X132158333Y-78145714D01*
X132110714Y-78240952D01*
X132063095Y-78288571D01*
X131967857Y-78336190D01*
X131586904Y-78336190D01*
X132491666Y-77812380D02*
X133110714Y-77812380D01*
X132777380Y-78193333D01*
X132920238Y-78193333D01*
X133015476Y-78240952D01*
X133063095Y-78288571D01*
X133110714Y-78383809D01*
X133110714Y-78621904D01*
X133063095Y-78717142D01*
X133015476Y-78764761D01*
X132920238Y-78812380D01*
X132634523Y-78812380D01*
X132539285Y-78764761D01*
X132491666Y-78717142D01*
%TO.C,R4*%
X148178333Y-84652380D02*
X147845000Y-84176190D01*
X147606904Y-84652380D02*
X147606904Y-83652380D01*
X147987857Y-83652380D01*
X148083095Y-83700000D01*
X148130714Y-83747619D01*
X148178333Y-83842857D01*
X148178333Y-83985714D01*
X148130714Y-84080952D01*
X148083095Y-84128571D01*
X147987857Y-84176190D01*
X147606904Y-84176190D01*
X149035476Y-83985714D02*
X149035476Y-84652380D01*
X148797380Y-83604761D02*
X148559285Y-84319047D01*
X149178333Y-84319047D01*
%TO.C,R5*%
X204032380Y-84231666D02*
X203556190Y-84565000D01*
X204032380Y-84803095D02*
X203032380Y-84803095D01*
X203032380Y-84422142D01*
X203080000Y-84326904D01*
X203127619Y-84279285D01*
X203222857Y-84231666D01*
X203365714Y-84231666D01*
X203460952Y-84279285D01*
X203508571Y-84326904D01*
X203556190Y-84422142D01*
X203556190Y-84803095D01*
X203032380Y-83326904D02*
X203032380Y-83803095D01*
X203508571Y-83850714D01*
X203460952Y-83803095D01*
X203413333Y-83707857D01*
X203413333Y-83469761D01*
X203460952Y-83374523D01*
X203508571Y-83326904D01*
X203603809Y-83279285D01*
X203841904Y-83279285D01*
X203937142Y-83326904D01*
X203984761Y-83374523D01*
X204032380Y-83469761D01*
X204032380Y-83707857D01*
X203984761Y-83803095D01*
X203937142Y-83850714D01*
%TO.C,R6*%
X148178333Y-89732380D02*
X147845000Y-89256190D01*
X147606904Y-89732380D02*
X147606904Y-88732380D01*
X147987857Y-88732380D01*
X148083095Y-88780000D01*
X148130714Y-88827619D01*
X148178333Y-88922857D01*
X148178333Y-89065714D01*
X148130714Y-89160952D01*
X148083095Y-89208571D01*
X147987857Y-89256190D01*
X147606904Y-89256190D01*
X149035476Y-88732380D02*
X148845000Y-88732380D01*
X148749761Y-88780000D01*
X148702142Y-88827619D01*
X148606904Y-88970476D01*
X148559285Y-89160952D01*
X148559285Y-89541904D01*
X148606904Y-89637142D01*
X148654523Y-89684761D01*
X148749761Y-89732380D01*
X148940238Y-89732380D01*
X149035476Y-89684761D01*
X149083095Y-89637142D01*
X149130714Y-89541904D01*
X149130714Y-89303809D01*
X149083095Y-89208571D01*
X149035476Y-89160952D01*
X148940238Y-89113333D01*
X148749761Y-89113333D01*
X148654523Y-89160952D01*
X148606904Y-89208571D01*
X148559285Y-89303809D01*
%TO.C,R7*%
X195168333Y-88462380D02*
X194835000Y-87986190D01*
X194596904Y-88462380D02*
X194596904Y-87462380D01*
X194977857Y-87462380D01*
X195073095Y-87510000D01*
X195120714Y-87557619D01*
X195168333Y-87652857D01*
X195168333Y-87795714D01*
X195120714Y-87890952D01*
X195073095Y-87938571D01*
X194977857Y-87986190D01*
X194596904Y-87986190D01*
X195501666Y-87462380D02*
X196168333Y-87462380D01*
X195739761Y-88462380D01*
%TO.C,R8*%
X195168333Y-93542380D02*
X194835000Y-93066190D01*
X194596904Y-93542380D02*
X194596904Y-92542380D01*
X194977857Y-92542380D01*
X195073095Y-92590000D01*
X195120714Y-92637619D01*
X195168333Y-92732857D01*
X195168333Y-92875714D01*
X195120714Y-92970952D01*
X195073095Y-93018571D01*
X194977857Y-93066190D01*
X194596904Y-93066190D01*
X195739761Y-92970952D02*
X195644523Y-92923333D01*
X195596904Y-92875714D01*
X195549285Y-92780476D01*
X195549285Y-92732857D01*
X195596904Y-92637619D01*
X195644523Y-92590000D01*
X195739761Y-92542380D01*
X195930238Y-92542380D01*
X196025476Y-92590000D01*
X196073095Y-92637619D01*
X196120714Y-92732857D01*
X196120714Y-92780476D01*
X196073095Y-92875714D01*
X196025476Y-92923333D01*
X195930238Y-92970952D01*
X195739761Y-92970952D01*
X195644523Y-93018571D01*
X195596904Y-93066190D01*
X195549285Y-93161428D01*
X195549285Y-93351904D01*
X195596904Y-93447142D01*
X195644523Y-93494761D01*
X195739761Y-93542380D01*
X195930238Y-93542380D01*
X196025476Y-93494761D01*
X196073095Y-93447142D01*
X196120714Y-93351904D01*
X196120714Y-93161428D01*
X196073095Y-93066190D01*
X196025476Y-93018571D01*
X195930238Y-92970952D01*
%TO.C,U3*%
X173037380Y-46481904D02*
X173846904Y-46481904D01*
X173942142Y-46434285D01*
X173989761Y-46386666D01*
X174037380Y-46291428D01*
X174037380Y-46100952D01*
X173989761Y-46005714D01*
X173942142Y-45958095D01*
X173846904Y-45910476D01*
X173037380Y-45910476D01*
X173037380Y-45529523D02*
X173037380Y-44910476D01*
X173418333Y-45243809D01*
X173418333Y-45100952D01*
X173465952Y-45005714D01*
X173513571Y-44958095D01*
X173608809Y-44910476D01*
X173846904Y-44910476D01*
X173942142Y-44958095D01*
X173989761Y-45005714D01*
X174037380Y-45100952D01*
X174037380Y-45386666D01*
X173989761Y-45481904D01*
X173942142Y-45529523D01*
%TO.C,J1*%
X117776666Y-150582380D02*
X117776666Y-151296666D01*
X117729047Y-151439523D01*
X117633809Y-151534761D01*
X117490952Y-151582380D01*
X117395714Y-151582380D01*
X118776666Y-151582380D02*
X118205238Y-151582380D01*
X118490952Y-151582380D02*
X118490952Y-150582380D01*
X118395714Y-150725238D01*
X118300476Y-150820476D01*
X118205238Y-150868095D01*
X109942619Y-135818571D02*
X110275952Y-135818571D01*
X110418809Y-136342380D02*
X109942619Y-136342380D01*
X109942619Y-135342380D01*
X110418809Y-135342380D01*
X110752142Y-135342380D02*
X111418809Y-136342380D01*
X111418809Y-135342380D02*
X110752142Y-136342380D01*
X111656904Y-135342380D02*
X112228333Y-135342380D01*
X111942619Y-136342380D02*
X111942619Y-135342380D01*
X112323571Y-136437619D02*
X113085476Y-136437619D01*
X113323571Y-136342380D02*
X113323571Y-135342380D01*
X113561666Y-135342380D01*
X113704523Y-135390000D01*
X113799761Y-135485238D01*
X113847380Y-135580476D01*
X113895000Y-135770952D01*
X113895000Y-135913809D01*
X113847380Y-136104285D01*
X113799761Y-136199523D01*
X113704523Y-136294761D01*
X113561666Y-136342380D01*
X113323571Y-136342380D01*
X114895000Y-136247142D02*
X114847380Y-136294761D01*
X114704523Y-136342380D01*
X114609285Y-136342380D01*
X114466428Y-136294761D01*
X114371190Y-136199523D01*
X114323571Y-136104285D01*
X114275952Y-135913809D01*
X114275952Y-135770952D01*
X114323571Y-135580476D01*
X114371190Y-135485238D01*
X114466428Y-135390000D01*
X114609285Y-135342380D01*
X114704523Y-135342380D01*
X114847380Y-135390000D01*
X114895000Y-135437619D01*
%TO.C,J6*%
X216836666Y-110152380D02*
X216836666Y-110866666D01*
X216789047Y-111009523D01*
X216693809Y-111104761D01*
X216550952Y-111152380D01*
X216455714Y-111152380D01*
X217741428Y-110152380D02*
X217550952Y-110152380D01*
X217455714Y-110200000D01*
X217408095Y-110247619D01*
X217312857Y-110390476D01*
X217265238Y-110580952D01*
X217265238Y-110961904D01*
X217312857Y-111057142D01*
X217360476Y-111104761D01*
X217455714Y-111152380D01*
X217646190Y-111152380D01*
X217741428Y-111104761D01*
X217789047Y-111057142D01*
X217836666Y-110961904D01*
X217836666Y-110723809D01*
X217789047Y-110628571D01*
X217741428Y-110580952D01*
X217646190Y-110533333D01*
X217455714Y-110533333D01*
X217360476Y-110580952D01*
X217312857Y-110628571D01*
X217265238Y-110723809D01*
X209756904Y-118673571D02*
X210090238Y-118673571D01*
X210233095Y-119197380D02*
X209756904Y-119197380D01*
X209756904Y-118197380D01*
X210233095Y-118197380D01*
X210566428Y-118197380D02*
X211233095Y-119197380D01*
X211233095Y-118197380D02*
X210566428Y-119197380D01*
X211471190Y-118197380D02*
X212042619Y-118197380D01*
X211756904Y-119197380D02*
X211756904Y-118197380D01*
X212375952Y-119102142D02*
X212423571Y-119149761D01*
X212375952Y-119197380D01*
X212328333Y-119149761D01*
X212375952Y-119102142D01*
X212375952Y-119197380D01*
X212756904Y-118197380D02*
X212995000Y-119197380D01*
X213185476Y-118483095D01*
X213375952Y-119197380D01*
X213614047Y-118197380D01*
X214423571Y-119197380D02*
X214423571Y-118673571D01*
X214375952Y-118578333D01*
X214280714Y-118530714D01*
X214090238Y-118530714D01*
X213995000Y-118578333D01*
X214423571Y-119149761D02*
X214328333Y-119197380D01*
X214090238Y-119197380D01*
X213995000Y-119149761D01*
X213947380Y-119054523D01*
X213947380Y-118959285D01*
X213995000Y-118864047D01*
X214090238Y-118816428D01*
X214328333Y-118816428D01*
X214423571Y-118768809D01*
X214899761Y-119197380D02*
X214899761Y-118530714D01*
X214899761Y-118721190D02*
X214947380Y-118625952D01*
X214995000Y-118578333D01*
X215090238Y-118530714D01*
X215185476Y-118530714D01*
X215518809Y-118530714D02*
X215518809Y-119197380D01*
X215518809Y-118625952D02*
X215566428Y-118578333D01*
X215661666Y-118530714D01*
X215804523Y-118530714D01*
X215899761Y-118578333D01*
X215947380Y-118673571D01*
X215947380Y-119197380D01*
X216423571Y-119197380D02*
X216423571Y-118530714D01*
X216423571Y-118197380D02*
X216375952Y-118245000D01*
X216423571Y-118292619D01*
X216471190Y-118245000D01*
X216423571Y-118197380D01*
X216423571Y-118292619D01*
X216899761Y-118530714D02*
X216899761Y-119197380D01*
X216899761Y-118625952D02*
X216947380Y-118578333D01*
X217042619Y-118530714D01*
X217185476Y-118530714D01*
X217280714Y-118578333D01*
X217328333Y-118673571D01*
X217328333Y-119197380D01*
X218233095Y-118530714D02*
X218233095Y-119340238D01*
X218185476Y-119435476D01*
X218137857Y-119483095D01*
X218042619Y-119530714D01*
X217899761Y-119530714D01*
X217804523Y-119483095D01*
X218233095Y-119149761D02*
X218137857Y-119197380D01*
X217947380Y-119197380D01*
X217852142Y-119149761D01*
X217804523Y-119102142D01*
X217756904Y-119006904D01*
X217756904Y-118721190D01*
X217804523Y-118625952D01*
X217852142Y-118578333D01*
X217947380Y-118530714D01*
X218137857Y-118530714D01*
X218233095Y-118578333D01*
%TO.C,C9*%
X107393333Y-78462142D02*
X107345714Y-78509761D01*
X107202857Y-78557380D01*
X107107619Y-78557380D01*
X106964761Y-78509761D01*
X106869523Y-78414523D01*
X106821904Y-78319285D01*
X106774285Y-78128809D01*
X106774285Y-77985952D01*
X106821904Y-77795476D01*
X106869523Y-77700238D01*
X106964761Y-77605000D01*
X107107619Y-77557380D01*
X107202857Y-77557380D01*
X107345714Y-77605000D01*
X107393333Y-77652619D01*
X107869523Y-78557380D02*
X108060000Y-78557380D01*
X108155238Y-78509761D01*
X108202857Y-78462142D01*
X108298095Y-78319285D01*
X108345714Y-78128809D01*
X108345714Y-77747857D01*
X108298095Y-77652619D01*
X108250476Y-77605000D01*
X108155238Y-77557380D01*
X107964761Y-77557380D01*
X107869523Y-77605000D01*
X107821904Y-77652619D01*
X107774285Y-77747857D01*
X107774285Y-77985952D01*
X107821904Y-78081190D01*
X107869523Y-78128809D01*
X107964761Y-78176428D01*
X108155238Y-78176428D01*
X108250476Y-78128809D01*
X108298095Y-78081190D01*
X108345714Y-77985952D01*
%TO.C,C10*%
X76232142Y-50402142D02*
X76184523Y-50449761D01*
X76041666Y-50497380D01*
X75946428Y-50497380D01*
X75803571Y-50449761D01*
X75708333Y-50354523D01*
X75660714Y-50259285D01*
X75613095Y-50068809D01*
X75613095Y-49925952D01*
X75660714Y-49735476D01*
X75708333Y-49640238D01*
X75803571Y-49545000D01*
X75946428Y-49497380D01*
X76041666Y-49497380D01*
X76184523Y-49545000D01*
X76232142Y-49592619D01*
X77184523Y-50497380D02*
X76613095Y-50497380D01*
X76898809Y-50497380D02*
X76898809Y-49497380D01*
X76803571Y-49640238D01*
X76708333Y-49735476D01*
X76613095Y-49783095D01*
X77803571Y-49497380D02*
X77898809Y-49497380D01*
X77994047Y-49545000D01*
X78041666Y-49592619D01*
X78089285Y-49687857D01*
X78136904Y-49878333D01*
X78136904Y-50116428D01*
X78089285Y-50306904D01*
X78041666Y-50402142D01*
X77994047Y-50449761D01*
X77898809Y-50497380D01*
X77803571Y-50497380D01*
X77708333Y-50449761D01*
X77660714Y-50402142D01*
X77613095Y-50306904D01*
X77565476Y-50116428D01*
X77565476Y-49878333D01*
X77613095Y-49687857D01*
X77660714Y-49592619D01*
X77708333Y-49545000D01*
X77803571Y-49497380D01*
%TO.C,C11*%
X113502142Y-47177142D02*
X113454523Y-47224761D01*
X113311666Y-47272380D01*
X113216428Y-47272380D01*
X113073571Y-47224761D01*
X112978333Y-47129523D01*
X112930714Y-47034285D01*
X112883095Y-46843809D01*
X112883095Y-46700952D01*
X112930714Y-46510476D01*
X112978333Y-46415238D01*
X113073571Y-46320000D01*
X113216428Y-46272380D01*
X113311666Y-46272380D01*
X113454523Y-46320000D01*
X113502142Y-46367619D01*
X114454523Y-47272380D02*
X113883095Y-47272380D01*
X114168809Y-47272380D02*
X114168809Y-46272380D01*
X114073571Y-46415238D01*
X113978333Y-46510476D01*
X113883095Y-46558095D01*
X115406904Y-47272380D02*
X114835476Y-47272380D01*
X115121190Y-47272380D02*
X115121190Y-46272380D01*
X115025952Y-46415238D01*
X114930714Y-46510476D01*
X114835476Y-46558095D01*
%TO.C,D5*%
X96247380Y-61698095D02*
X95247380Y-61698095D01*
X95247380Y-61460000D01*
X95295000Y-61317142D01*
X95390238Y-61221904D01*
X95485476Y-61174285D01*
X95675952Y-61126666D01*
X95818809Y-61126666D01*
X96009285Y-61174285D01*
X96104523Y-61221904D01*
X96199761Y-61317142D01*
X96247380Y-61460000D01*
X96247380Y-61698095D01*
X95247380Y-60221904D02*
X95247380Y-60698095D01*
X95723571Y-60745714D01*
X95675952Y-60698095D01*
X95628333Y-60602857D01*
X95628333Y-60364761D01*
X95675952Y-60269523D01*
X95723571Y-60221904D01*
X95818809Y-60174285D01*
X96056904Y-60174285D01*
X96152142Y-60221904D01*
X96199761Y-60269523D01*
X96247380Y-60364761D01*
X96247380Y-60602857D01*
X96199761Y-60698095D01*
X96152142Y-60745714D01*
X95127380Y-53601904D02*
X94127380Y-53601904D01*
X95127380Y-53030476D02*
X94555952Y-53459047D01*
X94127380Y-53030476D02*
X94698809Y-53601904D01*
%TO.C,L2*%
X100838333Y-46922380D02*
X100362142Y-46922380D01*
X100362142Y-45922380D01*
X101124047Y-46017619D02*
X101171666Y-45970000D01*
X101266904Y-45922380D01*
X101505000Y-45922380D01*
X101600238Y-45970000D01*
X101647857Y-46017619D01*
X101695476Y-46112857D01*
X101695476Y-46208095D01*
X101647857Y-46350952D01*
X101076428Y-46922380D01*
X101695476Y-46922380D01*
%TO.C,U2*%
X93132380Y-38226904D02*
X93941904Y-38226904D01*
X94037142Y-38179285D01*
X94084761Y-38131666D01*
X94132380Y-38036428D01*
X94132380Y-37845952D01*
X94084761Y-37750714D01*
X94037142Y-37703095D01*
X93941904Y-37655476D01*
X93132380Y-37655476D01*
X93227619Y-37226904D02*
X93180000Y-37179285D01*
X93132380Y-37084047D01*
X93132380Y-36845952D01*
X93180000Y-36750714D01*
X93227619Y-36703095D01*
X93322857Y-36655476D01*
X93418095Y-36655476D01*
X93560952Y-36703095D01*
X94132380Y-37274523D01*
X94132380Y-36655476D01*
%TD*%
M02*
