%TF.GenerationSoftware,KiCad,Pcbnew,5.1.6-c6e7f7d~86~ubuntu18.04.1*%
%TF.CreationDate,2020-06-01T12:36:53+02:00*%
%TF.ProjectId,UPC-EURS,5550432d-4555-4525-932e-6b696361645f,rev?*%
%TF.SameCoordinates,Original*%
%TF.FileFunction,Soldermask,Bot*%
%TF.FilePolarity,Negative*%
%FSLAX46Y46*%
G04 Gerber Fmt 4.6, Leading zero omitted, Abs format (unit mm)*
G04 Created by KiCad (PCBNEW 5.1.6-c6e7f7d~86~ubuntu18.04.1) date 2020-06-01 12:36:53*
%MOMM*%
%LPD*%
G01*
G04 APERTURE LIST*
%ADD10C,0.100000*%
%ADD11R,1.500000X1.000000*%
%ADD12O,1.600000X1.600000*%
%ADD13R,1.600000X1.600000*%
%ADD14R,2.000000X2.000000*%
%ADD15C,2.000000*%
%ADD16C,1.600000*%
%ADD17R,2.400000X2.400000*%
%ADD18C,2.400000*%
%ADD19R,2.200000X2.200000*%
%ADD20O,2.200000X2.200000*%
%ADD21R,3.200000X3.200000*%
%ADD22O,3.200000X3.200000*%
%ADD23R,1.800000X1.800000*%
%ADD24C,1.800000*%
%ADD25C,1.524000*%
%ADD26R,1.700000X1.700000*%
%ADD27C,1.700000*%
%ADD28C,3.500000*%
%ADD29C,1.740000*%
%ADD30C,3.000000*%
%ADD31R,3.000000X3.000000*%
%ADD32C,2.600000*%
%ADD33C,2.800000*%
%ADD34O,1.270000X2.000000*%
%ADD35R,3.500000X3.500000*%
%ADD36O,1.700000X1.700000*%
%ADD37C,3.200000*%
G04 APERTURE END LIST*
D10*
%TO.C,JP5*%
G36*
X201180000Y-83735000D02*
G01*
X201180000Y-83185000D01*
X201180602Y-83185000D01*
X201180602Y-83160466D01*
X201185412Y-83111635D01*
X201194984Y-83063510D01*
X201209228Y-83016555D01*
X201228005Y-82971222D01*
X201251136Y-82927949D01*
X201278396Y-82887150D01*
X201309524Y-82849221D01*
X201344221Y-82814524D01*
X201382150Y-82783396D01*
X201422949Y-82756136D01*
X201466222Y-82733005D01*
X201511555Y-82714228D01*
X201558510Y-82699984D01*
X201606635Y-82690412D01*
X201655466Y-82685602D01*
X201680000Y-82685602D01*
X201680000Y-82685000D01*
X202180000Y-82685000D01*
X202180000Y-82685602D01*
X202204534Y-82685602D01*
X202253365Y-82690412D01*
X202301490Y-82699984D01*
X202348445Y-82714228D01*
X202393778Y-82733005D01*
X202437051Y-82756136D01*
X202477850Y-82783396D01*
X202515779Y-82814524D01*
X202550476Y-82849221D01*
X202581604Y-82887150D01*
X202608864Y-82927949D01*
X202631995Y-82971222D01*
X202650772Y-83016555D01*
X202665016Y-83063510D01*
X202674588Y-83111635D01*
X202679398Y-83160466D01*
X202679398Y-83185000D01*
X202680000Y-83185000D01*
X202680000Y-83735000D01*
X201180000Y-83735000D01*
G37*
D11*
X201930000Y-84485000D03*
D10*
G36*
X202679398Y-85785000D02*
G01*
X202679398Y-85809534D01*
X202674588Y-85858365D01*
X202665016Y-85906490D01*
X202650772Y-85953445D01*
X202631995Y-85998778D01*
X202608864Y-86042051D01*
X202581604Y-86082850D01*
X202550476Y-86120779D01*
X202515779Y-86155476D01*
X202477850Y-86186604D01*
X202437051Y-86213864D01*
X202393778Y-86236995D01*
X202348445Y-86255772D01*
X202301490Y-86270016D01*
X202253365Y-86279588D01*
X202204534Y-86284398D01*
X202180000Y-86284398D01*
X202180000Y-86285000D01*
X201680000Y-86285000D01*
X201680000Y-86284398D01*
X201655466Y-86284398D01*
X201606635Y-86279588D01*
X201558510Y-86270016D01*
X201511555Y-86255772D01*
X201466222Y-86236995D01*
X201422949Y-86213864D01*
X201382150Y-86186604D01*
X201344221Y-86155476D01*
X201309524Y-86120779D01*
X201278396Y-86082850D01*
X201251136Y-86042051D01*
X201228005Y-85998778D01*
X201209228Y-85953445D01*
X201194984Y-85906490D01*
X201185412Y-85858365D01*
X201180602Y-85809534D01*
X201180602Y-85785000D01*
X201180000Y-85785000D01*
X201180000Y-85235000D01*
X202680000Y-85235000D01*
X202680000Y-85785000D01*
X202679398Y-85785000D01*
G37*
%TD*%
D12*
%TO.C,A1*%
X173990000Y-114550000D03*
X173990000Y-112010000D03*
D13*
X125730000Y-105410000D03*
D12*
X173990000Y-74930000D03*
X125730000Y-102870000D03*
X173990000Y-77470000D03*
X125730000Y-100330000D03*
X173990000Y-80010000D03*
X125730000Y-97790000D03*
X173990000Y-82550000D03*
X125730000Y-95250000D03*
X173990000Y-85090000D03*
X125730000Y-92710000D03*
X173990000Y-87630000D03*
X125730000Y-90170000D03*
X173990000Y-91690000D03*
X125730000Y-87630000D03*
X173990000Y-94230000D03*
X125730000Y-82550000D03*
X173990000Y-96770000D03*
X125730000Y-80010000D03*
X173990000Y-99310000D03*
X125730000Y-77470000D03*
X173990000Y-101850000D03*
X125730000Y-74930000D03*
X173990000Y-104390000D03*
X125730000Y-72390000D03*
X173990000Y-106930000D03*
X125730000Y-69850000D03*
X173990000Y-109470000D03*
X173990000Y-69850000D03*
X173990000Y-72390000D03*
%TD*%
D13*
%TO.C,A2*%
X187960000Y-139700000D03*
D12*
X205740000Y-127000000D03*
X190500000Y-139700000D03*
X203200000Y-127000000D03*
X193040000Y-139700000D03*
X200660000Y-127000000D03*
X195580000Y-139700000D03*
X198120000Y-127000000D03*
X198120000Y-139700000D03*
X195580000Y-127000000D03*
X200660000Y-139700000D03*
X193040000Y-127000000D03*
X203200000Y-139700000D03*
X190500000Y-127000000D03*
X205740000Y-139700000D03*
X187960000Y-127000000D03*
%TD*%
D14*
%TO.C,BZ1*%
X204470000Y-95455001D03*
D15*
X212070000Y-95455001D03*
%TD*%
D13*
%TO.C,C1*%
X68580000Y-116840000D03*
D16*
X68580000Y-120340000D03*
%TD*%
D17*
%TO.C,C2*%
X80645000Y-63500000D03*
D18*
X73145000Y-63500000D03*
%TD*%
D16*
%TO.C,C5*%
X212359699Y-131755000D03*
D13*
X212359699Y-135255000D03*
%TD*%
D19*
%TO.C,D1*%
X97155000Y-88900000D03*
D20*
X86995000Y-88900000D03*
%TD*%
%TO.C,D2*%
X130810000Y-139700000D03*
D19*
X140970000Y-139700000D03*
%TD*%
D21*
%TO.C,D3*%
X81280000Y-87630000D03*
D22*
X66040000Y-87630000D03*
%TD*%
D23*
%TO.C,D4*%
X209550000Y-76835000D03*
D24*
X207010000Y-76835000D03*
%TD*%
D25*
%TO.C,F1*%
X177800000Y-148590000D03*
X172720000Y-148590000D03*
%TD*%
D26*
%TO.C,J2*%
X89535000Y-138430000D03*
D27*
X87035000Y-138430000D03*
X87035000Y-140430000D03*
X89535000Y-140430000D03*
D28*
X94305000Y-143140000D03*
X82265000Y-143140000D03*
%TD*%
%TO.C,J3*%
G36*
G01*
X140570000Y-149874999D02*
X140570000Y-151115001D01*
G75*
G02*
X140320001Y-151365000I-249999J0D01*
G01*
X139079999Y-151365000D01*
G75*
G02*
X138830000Y-151115001I0J249999D01*
G01*
X138830000Y-149874999D01*
G75*
G02*
X139079999Y-149625000I249999J0D01*
G01*
X140320001Y-149625000D01*
G75*
G02*
X140570000Y-149874999I0J-249999D01*
G01*
G37*
D29*
X137160000Y-150495000D03*
X134620000Y-150495000D03*
X132080000Y-150495000D03*
X129540000Y-150495000D03*
%TD*%
D30*
%TO.C,J4*%
X198755000Y-149225000D03*
X193675000Y-149225000D03*
D31*
X203835000Y-149225000D03*
D30*
X188595000Y-149225000D03*
%TD*%
%TO.C,J5*%
G36*
G01*
X155810000Y-149874999D02*
X155810000Y-151115001D01*
G75*
G02*
X155560001Y-151365000I-249999J0D01*
G01*
X154319999Y-151365000D01*
G75*
G02*
X154070000Y-151115001I0J249999D01*
G01*
X154070000Y-149874999D01*
G75*
G02*
X154319999Y-149625000I249999J0D01*
G01*
X155560001Y-149625000D01*
G75*
G02*
X155810000Y-149874999I0J-249999D01*
G01*
G37*
D29*
X152400000Y-150495000D03*
X149860000Y-150495000D03*
X147320000Y-150495000D03*
%TD*%
D11*
%TO.C,JP1*%
X171450000Y-119380000D03*
X171450000Y-120680000D03*
%TD*%
%TO.C,JP2*%
X203200000Y-132700000D03*
X203200000Y-134000000D03*
%TD*%
%TO.C,JP3*%
X200660000Y-132715000D03*
X200660000Y-134015000D03*
%TD*%
%TO.C,JP4*%
X198120000Y-134000000D03*
X198120000Y-132700000D03*
%TD*%
D32*
%TO.C,L1*%
X60960000Y-78105000D03*
X65960000Y-78105000D03*
%TD*%
D15*
%TO.C,SW1*%
X177142000Y-124968000D03*
X177142000Y-129468000D03*
X183642000Y-124968000D03*
X183642000Y-129468000D03*
%TD*%
%TO.C,SW2*%
X153121500Y-129476500D03*
X153121500Y-124976500D03*
X146621500Y-129476500D03*
X146621500Y-124976500D03*
%TD*%
%TO.C,SW3*%
X116245500Y-125031500D03*
X116245500Y-129531500D03*
X122745500Y-125031500D03*
X122745500Y-129531500D03*
%TD*%
%TO.C,SW4*%
X86440000Y-95863000D03*
X91440000Y-95863000D03*
D33*
X83340000Y-102863000D03*
X94540000Y-102863000D03*
D15*
X86440000Y-110363000D03*
X88940000Y-110363000D03*
D14*
X91440000Y-110363000D03*
%TD*%
D15*
%TO.C,SW5*%
X92225000Y-81906500D03*
X92225000Y-77406500D03*
X85725000Y-81906500D03*
X85725000Y-77406500D03*
%TD*%
%TO.C,SW6*%
X92265500Y-129531500D03*
X92265500Y-125031500D03*
X85765500Y-129531500D03*
X85765500Y-125031500D03*
%TD*%
D34*
%TO.C,U3*%
X171450000Y-57150000D03*
X171450000Y-34290000D03*
X168910000Y-57150000D03*
X168910000Y-34290000D03*
X166370000Y-57150000D03*
X166370000Y-34290000D03*
X163830000Y-57150000D03*
X163830000Y-34290000D03*
X161290000Y-57150000D03*
X161290000Y-34290000D03*
X158750000Y-57150000D03*
X158750000Y-34290000D03*
X156210000Y-57150000D03*
X156210000Y-34290000D03*
X153670000Y-57150000D03*
X153670000Y-34290000D03*
X151130000Y-57150000D03*
X151130000Y-34290000D03*
X148590000Y-57150000D03*
X148590000Y-34290000D03*
X146050000Y-57150000D03*
X146050000Y-34290000D03*
X143510000Y-57150000D03*
X143510000Y-34290000D03*
X140970000Y-57150000D03*
X140970000Y-34290000D03*
X138430000Y-57150000D03*
X138430000Y-34290000D03*
X135890000Y-57150000D03*
X135890000Y-34290000D03*
X133350000Y-57150000D03*
X133350000Y-34290000D03*
X130810000Y-57150000D03*
X130810000Y-34290000D03*
X128270000Y-57150000D03*
X128270000Y-34290000D03*
X125730000Y-57150000D03*
X125730000Y-34290000D03*
%TD*%
D35*
%TO.C,J1*%
X111760000Y-139700000D03*
G36*
G01*
X112760000Y-147400000D02*
X110760000Y-147400000D01*
G75*
G02*
X110010000Y-146650000I0J750000D01*
G01*
X110010000Y-145150000D01*
G75*
G02*
X110760000Y-144400000I750000J0D01*
G01*
X112760000Y-144400000D01*
G75*
G02*
X113510000Y-145150000I0J-750000D01*
G01*
X113510000Y-146650000D01*
G75*
G02*
X112760000Y-147400000I-750000J0D01*
G01*
G37*
G36*
G01*
X117635000Y-144550000D02*
X115885000Y-144550000D01*
G75*
G02*
X115010000Y-143675000I0J875000D01*
G01*
X115010000Y-141925000D01*
G75*
G02*
X115885000Y-141050000I875000J0D01*
G01*
X117635000Y-141050000D01*
G75*
G02*
X118510000Y-141925000I0J-875000D01*
G01*
X118510000Y-143675000D01*
G75*
G02*
X117635000Y-144550000I-875000J0D01*
G01*
G37*
%TD*%
D26*
%TO.C,J6*%
X217170000Y-113030000D03*
D36*
X217170000Y-115570000D03*
%TD*%
D37*
%TO.C,H1*%
X60325000Y-149860000D03*
%TD*%
%TO.C,H2*%
X60325000Y-30480000D03*
%TD*%
%TO.C,H3*%
X215900000Y-30480000D03*
%TD*%
%TO.C,H4*%
X215900000Y-149860000D03*
%TD*%
%TO.C,H5*%
X103124000Y-114681000D03*
%TD*%
%TO.C,H6*%
X196596000Y-114681000D03*
%TD*%
%TO.C,H7*%
X103124000Y-60579000D03*
%TD*%
%TO.C,H8*%
X196596000Y-60706000D03*
%TD*%
D26*
%TO.C,DS1*%
X200660000Y-73250000D03*
D36*
X200660000Y-70710000D03*
X200660000Y-68170000D03*
X200660000Y-65630000D03*
%TD*%
D17*
%TO.C,C10*%
X79375000Y-42545000D03*
D18*
X74375000Y-42545000D03*
%TD*%
D13*
%TO.C,C11*%
X112395000Y-52070000D03*
D16*
X115895000Y-52070000D03*
%TD*%
D21*
%TO.C,D5*%
X92075000Y-53340000D03*
D22*
X92075000Y-68580000D03*
%TD*%
D32*
%TO.C,L2*%
X98505000Y-52070000D03*
X103505000Y-52070000D03*
%TD*%
M02*
