M48
; DRILL file {KiCad 5.1.6-c6e7f7d~86~ubuntu18.04.1} date Mon Jun  1 12:36:58 2020
; FORMAT={-:-/ absolute / inch / decimal}
; #@! TF.CreationDate,2020-06-01T12:36:58+02:00
; #@! TF.GenerationSoftware,Kicad,Pcbnew,5.1.6-c6e7f7d~86~ubuntu18.04.1
; #@! TF.FileFunction,Plated,1,2,PTH
FMAT,2
INCH
T1C0.0300
T2C0.0315
T3C0.0354
T4C0.0362
T5C0.0394
T6C0.0429
T7C0.0433
T8C0.0472
T9C0.0512
T10C0.0598
T11C0.0630
T12C0.0866
T13C0.0917
%
G90
G05
T1
X6.8Y-5.85
X7.0Y-5.85
T2
X3.05Y-4.35
X3.59Y-1.16
X3.9Y-5.125
X4.125Y-4.8
X4.4Y-3.15
X4.825Y-1.775
X4.825Y-2.475
X5.25Y-5.35
X5.4Y-3.25
X5.5Y-3.45
X5.5Y-3.8504
X5.65Y-5.0
X5.9Y-3.7
X6.05Y-3.1
X6.05Y-4.35
X6.075Y-3.525
X6.1Y-2.55
X6.125Y-4.5
X6.2Y-3.1
X6.3Y-4.65
X6.35Y-3.1
X6.45Y-4.8
X6.4797Y-4.9203
X6.5Y-2.85
X6.525Y-3.375
X6.575Y-2.75
X6.7Y-5.0
X6.875Y-4.775
X6.95Y-2.375
X6.95Y-2.375
X7.0Y-1.225
X7.0Y-3.4
X7.05Y-2.55
X7.125Y-3.525
X7.15Y-3.125
X7.1902Y-4.4098
X7.2652Y-4.5098
X7.3Y-2.25
X7.4195Y-2.7445
X7.45Y-3.4
X7.4551Y-2.6445
X7.5787Y-3.8287
X7.6Y-2.5
X7.65Y-3.2
X7.7Y-3.725
X7.7Y-4.075
X7.725Y-2.875
X7.8Y-3.9
X7.8Y-4.85
X7.95Y-4.775
X8.025Y-4.0
X8.375Y-4.15
X8.3606Y-5.1872
X8.3606Y-5.325
X2.7Y-4.6
X2.7Y-4.7378
X7.4Y-5.0
X7.4Y-5.5
X7.5Y-5.0
X7.5Y-5.5
X7.6Y-5.0
X7.6Y-5.5
X7.7Y-5.0
X7.7Y-5.5
X7.8Y-5.0
X7.8Y-5.5
X7.9Y-5.0
X7.9Y-5.5
X8.0Y-5.0
X8.0Y-5.5
X8.1Y-5.0
X8.1Y-5.5
X4.95Y-1.35
X4.95Y-2.25
X5.05Y-1.35
X5.05Y-2.25
X5.15Y-1.35
X5.15Y-2.25
X5.25Y-1.35
X5.25Y-2.25
X5.35Y-1.35
X5.35Y-2.25
X5.45Y-1.35
X5.45Y-2.25
X5.55Y-1.35
X5.55Y-2.25
X5.65Y-1.35
X5.65Y-2.25
X5.75Y-1.35
X5.75Y-2.25
X5.85Y-1.35
X5.85Y-2.25
X5.95Y-1.35
X5.95Y-2.25
X6.05Y-1.35
X6.05Y-2.25
X6.15Y-1.35
X6.15Y-2.25
X6.25Y-1.35
X6.25Y-2.25
X6.35Y-1.35
X6.35Y-2.25
X6.45Y-1.35
X6.45Y-2.25
X6.55Y-1.35
X6.55Y-2.25
X6.65Y-1.35
X6.65Y-2.25
X6.75Y-1.35
X6.75Y-2.25
X4.425Y-2.05
X4.5628Y-2.05
T3
X8.15Y-3.025
X8.25Y-3.025
T4
X3.4266Y-5.45
X3.4266Y-5.5287
X3.525Y-5.45
X3.525Y-5.5287
T5
X4.95Y-2.75
X4.95Y-2.85
X4.95Y-2.95
X4.95Y-3.05
X4.95Y-3.15
X4.95Y-3.25
X4.95Y-3.45
X4.95Y-3.55
X4.95Y-3.65
X4.95Y-3.75
X4.95Y-3.85
X4.95Y-3.95
X4.95Y-4.05
X4.95Y-4.15
X6.85Y-2.75
X6.85Y-2.85
X6.85Y-2.95
X6.85Y-3.05
X6.85Y-3.15
X6.85Y-3.25
X6.85Y-3.35
X6.85Y-3.45
X6.85Y-3.6098
X6.85Y-3.7098
X6.85Y-3.8098
X6.85Y-3.9098
X6.85Y-4.0098
X6.85Y-4.1098
X6.85Y-4.2098
X6.85Y-4.3098
X6.85Y-4.4098
X6.85Y-4.5098
X3.4031Y-3.7741
X3.4031Y-4.345
X3.5016Y-4.345
X3.6Y-3.7741
X3.6Y-4.345
X8.05Y-3.7581
X8.3492Y-3.7581
X7.9Y-2.5839
X7.9Y-2.6839
X7.9Y-2.7839
X7.9Y-2.8839
X8.55Y-4.45
X8.55Y-4.55
T6
X5.1Y-5.925
X5.2Y-5.925
X5.3Y-5.925
X5.4Y-5.925
X5.5Y-5.925
X5.8Y-5.925
X5.9Y-5.925
X6.0Y-5.925
X6.1Y-5.925
T7
X3.3766Y-4.9225
X3.3766Y-5.0997
X3.6325Y-4.9225
X3.6325Y-5.0997
X4.5766Y-4.9225
X4.5766Y-5.0997
X4.8325Y-4.9225
X4.8325Y-5.0997
X6.9741Y-4.92
X6.9741Y-5.0972
X7.23Y-4.92
X7.23Y-5.0972
X5.15Y-5.5
X5.55Y-5.5
X5.7725Y-4.9203
X5.7725Y-5.0975
X6.0284Y-4.9203
X6.0284Y-5.0975
X3.425Y-3.5
X3.825Y-3.5
X3.375Y-3.0475
X3.375Y-3.2247
X3.6309Y-3.0475
X3.6309Y-3.2247
T8
X2.8797Y-2.5
X3.175Y-2.5
X2.9281Y-1.675
X3.125Y-1.675
T9
X2.4Y-3.075
X2.5969Y-3.075
X3.8781Y-2.05
X4.075Y-2.05
T10
X7.425Y-5.875
X7.625Y-5.875
X7.825Y-5.875
X8.025Y-5.875
T11
X2.6Y-3.45
X3.2Y-3.45
X3.625Y-2.1
X3.625Y-2.7
T12
X3.2811Y-4.0497
X3.722Y-4.0497
T13
X3.2388Y-5.6354
X3.7128Y-5.6354
T5
G00X4.3606Y-5.5
M15
G01X4.4394Y-5.5
M16
G05
G00X4.3606Y-5.7441
M15
G01X4.4394Y-5.7441
M16
G05
G00X4.5969Y-5.6614
M15
G01X4.5969Y-5.5827
M16
G05
T0
M30
